<?xml version="1.0"?>
    
<!--********* Copyright (c) 2024 Pareto Softare, LLC DBA Simplemaps.com ***************************************
************* Free for Commercial Use, full terms at  https://simplemaps.com/resources/svg-license ************
************* Attribution is appreciated! https://simplemaps.com *******************************************-->

<svg baseprofile="tiny" fill="#6f9c76" height="890" stroke="#ffffff" stroke-linecap="round" stroke-linejoin="round" stroke-width=".5" version="1.2" viewbox="0 0 1000 890" width="1000" xmlns="http://www.w3.org/2000/svg">
 <g id="features">
  <path d="M708.7 68.2l0.1 0.3 0.4-0.1 0.5-0.3 0.8-0.1 0.9-0.3 0.3 0 0.8 0.4 0.4 0.3 0 0.2-0.1 0.4 0 0.5 0.3 0.9 0.2 0.3 0.5 0.2 0.5 0.1 0.5-0.1 0.4-0.3 0.2-0.4 0.4-1 0.6-0.4 0.8 0.1 1.2 0.3 1.7 0.9 0.5 0 0.4-0.2 0.5 0 1.1 1.2 0.2 2-0.4 2.2-0.7 1.8-0.5 0.7-1.6 1.8-0.4 0.4 0.5 1.2 0.8 0.9 0.9 0.5 1 0.3 1.1 0.1 0.7-0.3 0.3-0.7 0.1-1.5 0.3-1.1 0.7-0.8 0.9-0.3 0.9 0.2-0.9 0.8-0.3 0.7 0.2 0.7 0.7 0.8 0.7 0.5 2.4 0.4 1.4 0.8 1.3 1.1 1.5-0.2 0.4 0.1 0.6 0.5 0.3 0.2 1.4 0.2 0.7 0.2 0.5 0.6 1.4 1 1.5 0.5 3.3 0.3 3.1-0.6 1.1 0.4 0.5 1.6-1 0-1.4 0.7-0.3 0.5-0.1 0.4 0 0.4-0.1 0.3-1.1 1.5-0.2 0.5-0.1 0.4 0.1 0.9-0.3 1.6-0.4 1-0.4 0.3-0.5 0.3-0.3 0.2-0.3 0.7-0.8 0.3-1.1 1.1-0.5 0.3-0.5 0.3-1.9 0.5-0.3 0.3-0.1 0.4 0 0.4-0.1 0.4-0.2 0.7-0.1 0.3-0.5 0.3-0.8 0-0.4-0.1-2.4 0.3-0.3 0.3-0.1 0.4 0 0.3 0 0.3-0.4 0.2-0.3 0.1 0.1 0.1 0.7 0.3-0.1 0.2-0.2 0.3-1 0.6-0.5 0.5-0.3 0.5 0 0.5-0.3 0.2-0.3 0.2-0.4 0.1-0.7-0.3-0.5 0.1-0.3 0.2-0.2 0.4-0.3 0.5-0.2 0.4 0 0.5 0 0.3 0.1 0.3 0.2 0.4 0.1 0.2 0 0.4-0.2 0.5-0.6 1-1.1 1-0.9 1.4-0.2 1-0.1 0.6 0 0.4 0.2 0.3 0.3 0.2 0.2 0.3 0.1 0.3-0.2 0.5-1.2 1.4-0.8 1.3-0.2 0.7-0.2 0.6 0 0.4-0.2 0.8-0.2 0.6-0.3 0.7-0.2 0.5 0 0.5 0.1 0.4 0.1 0.4 0.3 0.3 0.2 0.4 0.1 0.4 0.1 0.4 0 1.1 0 0.5 0 0.7 0.1 0.4 0.2 0.3 0.6 0.6 0.2 0.3 0.1 0.3 0.1 0.4 0.2 0.4 0.3 0.3 0.3 0.2 0.4 0.1 0.4 0 0.3 0.2 0.1 0.5-0.1 0.9-0.3 0.6-0.8 1.1-0.7 1.2-0.6 1.3-0.2 0.4-0.1 0.5-0.5 0.6-0.3 0.4-0.3 0.5-0.2 0.3-0.2 0.1-0.3-0.1-0.7-0.2-0.4 0-1.2-0.4-0.3 0-0.3 0-0.2 0.1-0.6 0.4-0.8 0.1-0.3 0-0.4 0-0.7-0.3-0.7-0.5-0.2-0.2-0.5-0.7-0.3-0.3-0.3-0.2-0.7-0.3-0.7-0.3-0.4 0.1-0.7 0.4-0.4 0-0.4-0.1-0.8-0.3-0.3-0.2-0.3-0.3-0.5-0.6-0.3-0.3-0.4-0.2-0.3-0.2-1.6-0.1-0.3 0.1-0.5-0.3 0-0.1-0.1 0-0.1 0-0.5 0-1.5-1.3-0.3-0.6-0.2-0.5 0-0.5 0-0.4 0.1-0.4 0.1-0.4 1.7-1.9 0.5-0.6 0.3-0.3 0.1-0.4 0.2-0.3 0.2-0.3 0.3 0 0.5 0 0.4 0.3 0.4 0.1 0.4-0.1 0.8-0.3 0.4 0 0.4 0.1 0.8 0.5 0.4-0.1 0.4-0.1 0.2-0.2 0.1-0.4-0.1-0.4-0.1-0.5 0-0.3 0.1-0.1 0-0.2 0-0.2-0.1-0.3-0.2-0.4 0-1.2-1.2-0.8-0.8-0.3-2-1.1-1-0.9-0.4-0.3-0.2 0-0.6 0.1-0.3-0.1-0.2-0.3 0-0.4 0-0.5 0-0.3-1.6-1.1-3-3.7-2.3 0-0.9-0.3-0.6-0.9 0.2-0.1 0.2-0.3 0.2-0.3-0.8-0.8-1.2-0.1-2.7 0.2-0.8-0.1-0.6-0.2-0.5-0.4-0.5-0.6-0.3-0.4-1.2-0.8-0.4-0.2-2.6 0.4-1.7-0.6-0.9-0.2 0.2-0.8 0.3-2.9-0.1-1-0.1-0.4-0.2-0.3-0.3-0.1-0.4 0-0.8 1-0.3 0.2-0.4-0.1-0.6-0.4-0.3 0-0.3-0.3-0.2-0.3 0-0.3 0-0.4 0.6-0.6 0.4-0.2 0.7-0.6 0.6-0.6 0.8-0.7 0.3-0.1 0.4 0 0.4 0.1 0.2 0.1 0.2 0.2 0.3 0.6 0.3 0.2 0.7 0 0.4-0.1 0.4-0.2 1.2-0.8 0.2-0.3 0-0.5-0.1-0.3-0.4-0.1-0.3-0.2-0.3-2.1 0-0.4 0.3-0.5 1.1-0.4 0.3-0.3 0.1-0.5 0-0.9 0.1-0.8 0.4-1.3 0.9-1.4 0.1-0.5 0-0.5-0.6-2.3 0.7-1.3 0-0.3 0.2-0.4 0.2-0.3 0.5-0.5 0.5-0.1 0.8 0.4 0.3 0.1 0.8-0.1 0.4 0 0.5-0.1 0.4-0.2 0.4-0.3 0.7-1.1 0.4-0.2 1.1-0.2 0.4-0.3 0.2-0.3 0.2-0.6 0-0.4-0.1-0.4 0-0.5 0.2-0.4 0.3-0.7 0.6-1 2-1.5 0.5-0.3 0.6-0.4 0.4-0.5 0.6-1.1 0-0.6 0-0.5-0.2-0.4 0-0.4-0.1-0.8 0-0.5 0.3-1.1 0.1-0.3 0.3 0.1 0.5 0.3 0.2-0.1 0.2-0.1 0-0.3 0.1-0.3 0.2-0.1 0.3 0.1 0.3 0.1 0.4 0 0.6-0.3 0.5-0.5 0.6-1.1 0.6-1.1 0.4-0.4 0.3-0.3 1-0.3z m22.6 49.2l-0.3-0.5 0.1-0.7 0.3-0.3 0.6-0.3 0.3-0.3 0.3 0.2 0 0.6-0.3 0.8-0.5 0.4-0.5 0.1z m4.6-1.6l-0.5-0.1-0.8-0.2-0.6-0.1-0.5-0.4 0.1-0.5 0.2-0.6 0.1-0.4 0.5-0.5 0.3 0 0.3 0 0.1 0.5 0 0.6 0.4 0.2 0.4 0.5 0.3 0.2 0 0.5-0.3 0.3z" id="ESNC" name="Navarra, Comunidad Foral de">
  </path>
  <path d="M708.7 68.2l-1 0.3-0.3 0.3-0.4 0.4-0.6 1.1-0.6 1.1-0.5 0.5-0.6 0.3-0.4 0-0.3-0.1-0.3-0.1-0.2 0.1-0.1 0.3 0 0.3-0.2 0.1-0.2 0.1-0.5-0.3-0.3-0.1-0.1 0.3-0.3 1.1 0 0.5 0.1 0.8 0 0.4 0.2 0.4 0 0.5 0 0.6-0.6 1.1-0.4 0.5-0.6 0.4-0.5 0.3-2 1.5-0.6 1-0.3 0.7-0.2 0.4 0 0.5 0.1 0.4 0 0.4-0.2 0.6-0.2 0.3-0.4 0.3-1.1 0.2-0.4 0.2-0.7 1.1-0.4 0.3-0.4 0.2-0.5 0.1-0.4 0-0.8 0.1-0.3-0.1-0.8-0.4-0.5 0.1-0.5 0.5-0.2 0.3-0.2 0.4 0 0.3-0.7 1.3 0.6 2.3 0 0.5-0.1 0.5-0.9 1.4-0.4 1.3-0.1 0.8 0 0.9-0.1 0.5-0.3 0.3-1.1 0.4-0.3 0.5 0 0.4 0.3 2.1 0.3 0.2 0.4 0.1 0.1 0.3 0 0.5-0.2 0.3-1.2 0.8-0.4 0.2-0.4 0.1-0.7 0-0.3-0.2-0.3-0.6-0.2-0.2-0.2-0.1-0.4-0.1-0.4 0-0.3 0.1-0.8 0.7-0.6 0.6-0.7 0.6-0.4 0.2-0.6 0.6 0 0.4 0 0.3 0.2 0.3 0.3 0.3 0.3 0 0.6 0.4 0.4 0.1 0.3-0.2 0.8-1 0.4 0 0.3 0.1 0.2 0.3 0.1 0.4 0.1 1-0.3 2.9-0.2 0.8-0.8-0.1-1.4-0.4-1.2-0.7-0.4-1-0.4 0.1-0.3 0.3-0.2 0.3-0.2 0.4 0.1 0.1 0 0.1 0.1 0 0.1 0.2-0.8-0.1-0.7 0.1-0.5 0.3-0.5 0.5-0.1-0.9-0.4-0.3-0.4 0-0.2 0.2-0.3 0.4-0.6-0.3-1.4-1.1-0.4-0.2-0.3-0.1-0.1-0.9 0-0.8 0.1-0.3 0-0.4-0.2-0.4-0.4-0.5-1.4-1-0.5-0.1-0.6 0.2-0.3 0.3-0.2 0.4-0.3 0.9-0.5-0.1-0.5 0.3-0.3 0-0.3-0.1-0.3-0.4 0.1-0.3 0.4-0.5 0.1-0.3-0.1-0.5-0.6 0.3-0.2-0.4-0.1-0.7 0-0.5-0.2-0.7-0.4-0.5-2.6-2.2-1.1-0.5-1-1.3-0.6-0.3-0.8-0.5-1.1-1.1-1.3-0.7-1.2 0.6-1.1 0.3-0.1-0.1-0.6 0.1 0.2-0.5 0.1-0.4-0.2-0.4-0.3-0.3-0.2-0.3-0.2-0.4 0-0.4 0.2-0.4 0.2-0.5 0.5-0.6 0.4-0.7 0.3-0.6 0.1-0.6-0.2-0.4-0.2-0.2-0.4 0.1-0.6 0.8-0.3 0.3-0.3 0.2-0.7 0-0.4 0.1-0.4 0.2-0.2 0.3-0.2 0.3-0.2 0.3 0.1 0.3-0.1 0.3-0.2 0.2-0.3-0.2-0.3-0.2-1.2-1.6-0.6-0.5-0.2-0.3 0.1-0.4 0.1-0.4 0.2-0.4 0.6-0.6 0.5-0.7 0.2-0.4 0.2-0.3 0.4-0.3 1.4-0.2 0.5 0.1 0.4 0.1 0.4 0.2 0.2 0.3 0.2 0.7 0.3 0.3 0.3 0.2 0.3 0.1 0.8 0.1 0.4 0.1 0.4 0.1 0.4 0 0.7-0.2 0.8 0 0.4-0.1 0.3-0.2 0.5-0.5 0.3 0 0.6-0.2 0.2-0.1 0.1-0.3 0.1-0.3-0.1-0.3-0.2-0.3-1.1-0.4-0.6-0.4-0.3-0.4-0.2-0.3 0-0.5 0.5 0 0.7-0.1 0.3 0 0.1-0.1 0.1 0 0.1-0.2 0.2-0.4 0.1-0.4-0.1-0.3-0.3-0.4-0.8-0.2-0.3-0.4 0-0.3 0-0.3-0.2-0.2-0.3-0.2-0.8 0.4-0.7 1.6-0.5 0.2-0.3-0.1-1.2-0.1-1.2-0.3-0.3-0.2-0.2-0.2 0.2-0.4 0.2-0.3 0.3-0.6 0-1.3 0.2-1 0-0.7-0.2-0.4-0.7-0.3-0.2-0.3-0.1-0.5 0.3-0.9 0.2-0.4 0.7-0.6 0-0.5-0.1-0.2-0.3-0.2-0.9-0.1-1.3 0-0.9-0.2-0.7-0.6-0.2-0.1-0.3-0.1-0.4 0.1-0.4 0.2-3.4 2.1-2.5 1 0-0.7-0.3-1.2-0.2-0.4-0.2-0.3 0-0.4 0.1-0.4 0-0.4-0.1-0.5-0.1-0.3 0.1-0.5 0.4-0.6 3.4-2.5 0.5-0.4 0.5-0.2 2.5 0.1 1.1-0.1 0.9 0.3 0.3 0.1 1.8-0.9 0.2-0.4 0.2-0.5 0-1.6 0-0.4 0.7 0.3 0.8 0.1 0.9-0.8 1.3 0.8 2 1.8 0-0.4-0.5-1.4-0.1-0.7-0.2-0.4 0-0.2 0.2-0.2 0.5-0.2 0.5-0.6 1.7-1.1 0.7-0.2 0-0.4-0.3 0 0-0.3 0.7-0.4 1-0.1 2 0.1 2-0.2 0.8-0.4 0.7-0.2 0.5 0.1 0.9 0.6 0.8 0.8 0.3 0.6 0.5 1.4 0.1 1.2 0.2-0.2 0.3-1 0-0.3 0-0.3 0.1-0.3 0.2-0.3 0.4-0.1 0.5 0.2 0.5 0.2 1.2 0.2 2.4 1 1.7 0.4 0.9 0.3 0.8 1.2 2.3 1.1 1.6 0.8 1.6 0.5 1.8 0.2 1.7-0.2 1.4-0.4 0.4-0.1 0.3 0.2 0.2 0.4 0.4 0.4 0.5 0.2 0.1-0.1 0.1-0.1 0.2-0.1 0.3-0.1 0.2 0.1 0.1 0.3 0.1 0.2 0.3 0.2 1.2-1 0.5-0.1 0.8-0.2 2.9-1 0.9-0.6 0.5-0.2 0.5 0 0.5 0.4 0.3 0.5 0.3 0.3 0.6-0.4-0.2-0.2-0.4-0.4-0.2-0.2 1.6-0.8 1.5-1.3 1.5-0.8 0.7 0.5-0.1 0.6-0.1 1.2 0.1 0.7 1.1 0.5 0.5 0.7 0.2 1.1 0.1 0.2z m-61.4 3.2l-0.7-1-0.7-0.3 0 2.2 0.2 0.3 1.3-0.6-0.1-0.6z m25.4 25.6l-2.4-0.7-0.6-0.3-0.5-0.1-1.1-0.1-2.5 0.1-0.5 0.1-0.2 0.3-0.8 1.3-0.6 0.7-0.1 0.3 0.2 0.5 1 1 1.1 0.8 2.5 1.2 2.7 0.6 2 0.9 3.2 0.1 0.2 0 0.2 0.1 0.1 0.3 0.2 0.1 0.5-0.1 0.4-0.2 0.1-0.2 0-0.7-0.2-0.5 0-0.4-0.2-0.3-0.1-0.1-0.3 0-0.2 0.2-0.4 0.4-0.2 0.2-0.3 0.1-0.2-0.1-0.3-0.2-0.4-0.6-0.2-0.2-0.2-0.2-0.2-0.2-0.1-0.2 0-0.3 0.1-0.2 0.2-0.2 0.5-0.1 0.2-0.2 0.2-0.2 0.4-0.8 0-0.2 0.1-0.3 0.1-0.4-0.1-0.2-0.5 0-0.3 0-0.4-0.3-0.2-0.2-0.1-0.3-0.2-0.1-0.3 0-0.4 0.1-0.3 0.1-0.6-0.1z" id="ESPV" name="País Vasco">
  </path>
  <path d="M682.1 112.2l0.9 0.2 1.7 0.6 2.6-0.4 0.4 0.2 1.2 0.8 0.3 0.4 0.5 0.6 0.5 0.4 0.6 0.2 0.8 0.1 2.7-0.2 1.2 0.1 0.8 0.8-0.2 0.3-0.2 0.3-0.2 0.1 0.6 0.9 0.9 0.3 2.3 0 3 3.7 1.6 1.1 0 0.3 0 0.5 0 0.4 0.2 0.3 0.3 0.1 0.6-0.1 0.2 0 0.4 0.3 1 0.9 2 1.1 0.8 0.3 1.2 0.8 0 1.2 0.2 0.4 0.1 0.3 0 0.2 0 0.2-0.1 0.1 0 0.3 0.1 0.5 0.1 0.4-0.1 0.4-0.2 0.2-0.4 0.1-0.4 0.1-0.8-0.5-0.4-0.1-0.4 0-0.8 0.3-0.4 0.1-0.4-0.1-0.4-0.3-0.5 0-0.3 0-0.2 0.3-0.2 0.3-0.1 0.4-0.3 0.3-0.5 0.6-1.7 1.9-0.1 0.4-0.1 0.4 0 0.4 0 0.5 0.2 0.5 0.3 0.6 1.5 1.3 0.3 1-0.1 0.2-0.4 1.3-1.6 0.9-0.3 0.2-0.7 0.5-0.4 0.2-0.5 0.1-1 0.1-0.4-0.1-0.4-0.4-0.4-0.3-1-0.5-0.7 0-2.2-0.6-0.4-0.2-0.2-0.4-0.2-0.8-0.1-0.3 0.1-0.4 0.2-0.2 0.1-0.2 0.1 0 0-0.1 0-0.1-0.1-0.3-0.4-0.7-0.9-0.8-0.3-0.4-0.1-0.4 0-0.4 0-0.4 0.3-0.2 0.3-0.2 0.3-0.3 0.2-0.3 0-0.4-0.2-0.3-0.4-0.3-0.6-0.1-0.8-0.1-0.7 0.1-2.3 0.8-0.4 0-0.4-0.3-0.2-0.4-0.2-0.4 0-0.4-0.1-0.4-0.1-0.3-0.2-0.2-0.4-0.2-2.1-0.3-2.5 0.2-1.1 0.4-0.5 0.5-0.9 0.6-0.4 0.2-0.8-0.2-0.3 0.1-0.1 0.2-0.1 0.4 0 0.9-0.1 0.7-0.1 0.3-0.3 0.2-0.2 0.2-0.2 0.2-0.2 0.3-0.2 0.5-0.4 0.8-0.5 0.7-0.1 0.3-0.1 0.2 0 0.1-0.7 0-1.2-0.2-1.4 0.1-0.2 0.1-0.2 0-0.3-0.1-0.7-0.6-0.5-0.2-0.5-0.1-0.6 0-0.6-0.3-0.2-0.3 0.1-0.4 0.1-0.4 0.1-0.4 0.1-0.4 0.2-0.3 0.5-0.5 0.2-0.4 0.2-0.8 0-0.3-0.1-0.4-0.1-0.4-0.3-0.1-0.5-0.2-1 0.1-0.5 0.3-0.5 0.7-0.2 0.4-0.2 0.4-0.1 0.4 0 0.4 0.1 0.4 0 0.4-0.2 0.5-0.5 0.5-1.1 0.7-1.2 0.6-1.6-0.5-0.3-1.8-0.2-0.4-0.1-0.4-0.2-0.3-0.2-0.3-0.3-0.2-0.4 0-0.3 0.1-0.6 0.1-0.6 0-0.4 0-0.5 0-0.6-0.3-0.4-0.7-0.2-0.3-0.1-0.4-0.5-0.7-0.6-0.4-0.3-0.2-0.3-0.8-0.1-0.4-1.3-2 0-0.3 0.5-0.4 0.2-0.5 0.5-1.7 0.1-0.6 0-0.5 0-0.5-0.1-0.4-0.1-0.3-0.1-0.5-0.1-0.4 0-1-0.1-0.4-0.2-0.2-0.2-0.4 0.1-0.3 0.4-0.2 0.8-0.1 0.2-0.2 0.7-1.2 0-0.4-0.1-0.4 0-0.4 0-1.3 0.4-1.1 0-0.3-0.1-0.4-0.3-0.3-0.1-0.4-0.2-0.3-0.6-0.4-0.1-0.4 0.1-0.4 0.3-0.7 0.1-0.5 0-0.4-0.1-0.4-0.2-0.2-0.3 0-0.4 0-0.3 0.2-0.3 0-0.2-0.3 0.1-0.4 1.2-1.3 0.1-0.4 0.3-0.3 0.3-0.3 0.2-0.5 0-0.4-0.2-0.4-0.4-0.6 0.1-0.4 0.7-0.3 1.7-0.2 2.6 0.4 0.6 0.2 1.1 0.2 2.8-0.9 0 0.5 0.1 0.7 0.2 0.4 0.6-0.3 0.1 0.5-0.1 0.3-0.4 0.5-0.1 0.3 0.3 0.4 0.3 0.1 0.3 0 0.5-0.3 0.5 0.1 0.3-0.9 0.2-0.4 0.3-0.3 0.6-0.2 0.5 0.1 1.4 1 0.4 0.5 0.2 0.4 0 0.4-0.1 0.3 0 0.8 0.1 0.9 0.3 0.1 0.4 0.2 1.4 1.1 0.6 0.3 0.3-0.4 0.2-0.2 0.4 0 0.4 0.3 0.1 0.9 0.5-0.5 0.5-0.3 0.7-0.1 0.8 0.1-0.1-0.2-0.1 0 0-0.1-0.1-0.1 0.2-0.4 0.2-0.3 0.3-0.3 0.4-0.1 0.4 1 1.2 0.7 1.4 0.4 0.8 0.1z" id="ESRI" name="La Rioja">
  </path>
  <path d="M800.5 218.6l-0.2-0.2-2.5-1.1-0.4-0.2-0.3-0.5-0.1-0.4 0-0.4-0.3-0.3-0.5-0.4-1.2-0.7-2.9-1-0.9-0.5-0.4-0.4-0.3-0.7 0-0.5 0.2-0.5 0.2-0.3 0.1-0.3-0.4-0.4-0.5-0.4-0.9-0.2-0.5-0.5-0.2-0.4-0.1-0.4-0.2-0.2-0.8 0.2-1.1-0.2-0.2-0.7 0.2-0.2 2.2-1.3 0.3-0.3 0.3-0.7 0.8-0.9 0.2-0.4 0.2-0.4 0-0.4-0.4-0.9-0.1-0.5-0.1-0.5 0-0.4-0.3-0.8 0.1-0.6 0.1-0.4 0.2-0.4 0.1-0.4 0.1-0.4 0.5-0.7 0.2-0.5 0.2-0.4 0.1-1.3-0.6-1.9-0.6-0.5-0.6-0.3-0.7-0.5-0.4-1.5-0.2-0.7-0.1-0.3-0.2-0.4 0-0.4 0.1-0.4 0.1-0.4 0.2-0.3 0.4-0.3 0.4 0 0.3-0.1 0.3-0.2 0.1-0.3 0.3-0.2 0.7-0.2 0.4-0.2 0.3-0.3 0.2-0.3 0.3-1 0-0.5 0.1-0.4 0.2-0.4 0.3-0.4 0.6-0.4 0.5-0.2 0.4-0.3 0.1-0.1-0.2-1.2-0.1-1.3 1-2.2-0.1-1-0.4-0.7-0.5-0.6-0.7-0.3-0.3-0.1-0.2-1 0.6-0.9 0.4-1.5 0.1-1-0.1-1.1 0.1-0.3 0.4-0.3 1.2-0.4 0.3-0.2 0.1-0.1 0.1-0.1 0-0.1 0.1-0.2 0.1-0.3 0.2-0.3 0.8-1 0.2-0.3 0.2-0.4-0.2-0.4-0.2-0.4-0.1-0.4 0-0.4 0-0.4-0.2-0.5-0.4-0.1-0.4-0.1-0.4 0.1-1.2-0.2-0.4-0.2-0.2-0.3-0.1-0.4-0.2-1.2-0.5-1.3-0.1-0.4 0-0.4 0.6-0.9 0.9-0.9 0.6-0.9 0.3-0.3 0.3-0.3 0-0.3 0.3-0.3 0.1-0.2 0.3-0.2 0.3-0.1 1.4-0.3 0.4-0.2 0.4-0.5 0.4-0.9 0.5-0.9 0.2-0.2 0.2-0.2 0.3-0.1 0.8-0.2 0.3-0.2 0.3-0.4 0.4-0.6 0.6-0.4 0.3-0.2 0.3-0.3 0.2-0.3 0.2-0.4-0.1-1.8-0.1-0.4-0.1-0.2-0.4-0.3-0.5-0.5-0.1-0.3 0.2-0.3 0.2-0.4 0.3-0.3 0.4-0.2 0.3-0.1 0.3-0.1 0.2-0.2 0.3-0.6 0.2-0.3 0.2-0.2 0.5-0.2 0.2-0.2 0.2-0.3 0.1-0.6 0-0.5 0-0.3 0.5-1.2 0.7-2.2 0-0.3 0.4-0.3 0.2-0.5 0.1-0.6 0.2-1.1 0.1-0.6-0.1-0.6-0.1-0.3 0-0.5 0.2-0.6 0.1-0.4 0.3-1.7 0.1-0.2 0.2-0.3 0.3-0.5 0.3-1 0.1-0.4 0.1-1 0-0.7-0.1-0.2 0.2-0.7 0.1-0.6 0-1-0.2-2.3-0.3-1.4-0.3-0.6-0.2-0.4-0.2-0.2-0.1-0.1-0.2-0.2-0.1-0.4 0-0.6-0.1-0.4-0.2-0.5-0.1-0.4 0.1-0.4 0.3-0.2 0.3 0 0.1-0.1 0.2 0 0.1-0.2 0.1-0.1 0.1-0.3-0.1-0.6 0.1-0.5 0.1-0.3 0.2-0.2 0.2-0.5 0.2-0.4 0.2-0.3 0.1-0.3 0.1-0.2 0.1-0.4 0-0.7 0.1-0.3 0.1-0.4 0-0.2-0.1-0.3-0.5-0.2-0.8-0.2-0.4-0.1-0.3-0.3-0.3-0.5-0.6-1.5-0.8-1.5-0.5-0.4 0.1-0.1 0.1-0.9-0.3-0.8-0.5-0.7-0.6-0.2 0.3-0.5 0.1-0.3 0.3-0.2-0.4-0.6 0.6-1.6-0.1-1.1 0.2-0.8 0.9-0.4 1.1-0.1 0.7 0.1 1.4 0.6 0.7 0.1 0.8-0.1 0.7 0.2 1.7 1 1.2 0.5 0.4 0.2 0.6 0.7 0.5 0.2 0.3-0.2 0.4-0.4 0.4-0.1 0.4 0.1 0.6 0.6 0.3 0.2 3.5 0.2 0.8 0.3 0.8 0.6 0.3 0.8 0.4 0.9 0.4 0.7 0.7 0.5 0.4 0.1 1.4-0.5 4.9 0.1 1 0.2-0.2 0.8 0.2 0.2 0.4 0 0.3 0.2 0.7 1.3 0.8 1.1 0.7 1.9 0.6 0.7-0.2 0.4-0.2 0.5-0.1 0.5 0.4 0.3 0 0.2-0.7 1.1-0.1 0.7 0.9-0.2 0.7 0.7 0.1 0.8-0.8 0.6-0.2 0.1-0.7 0.3 1.2 1.8 0 0.7 0.4 0.4 2.5 0.3 0.3-0.1 0.5-0.2 0.2-0.3 0.2-0.4 0.2-0.2 1.2-0.2 1.4-0.1 1.3-0.6 0.4-1.5 0.2-0.1 0.1-0.1 0.1 0 0.1 0.2 0.5 0.2 0.5 0 0.4-0.2 0.4-0.5 0.1 0.1 0.1 0.1 0 0.1 0 0.2 0.8 0.3 2.5 0.4 0.8 0.3 2.3 1.6 0.9 0.2 0.8 0.1 0.6 0.2 0.6 0.9 0.5 2.1 0.4 0.8 0.8 0.7 0.5 0.4 0.5 0 1.1-0.1 0.6-0.1 0.5-0.4 0.7-0.7 0.9-0.7 0.2-0.3 0.3-0.8 0.2-0.3 0.7-0.3 1.9 0.2 2.5-0.8 1.2-0.1 1.2 0.6 0.5 0.4 2.3 1.1 1.3 0.3 0.6 0 0.3 0.9 0.6 0.9 0.8 0.6 0.8 0.2 0.8 0.5 0.4 0.1 0.5 0 0.2-0.3 0.4-0.9 0.3-0.2 0.8-0.1 1.8 0.7 0.9 0.1 1.1 0 0-0.3-0.5-0.5-0.4-1.1 0.3-0.4 1.7-1.4 0.7-0.4 0.9 0 1.5 0.2 0.9-0.1 0.6-0.4 1.3-1.2 0.6-0.4 0.7-0.1 0.6 0.1 0.7-0.2 1.4-1 1.3 0.5 0.6-0.4 0.5 0 1.2 0.1 0.2 0.1 0.3 0.6 0.3 0.5 0.4 0.4 0.5 0.3 0.8 0.3 1 0.1 1.1-0.1 1.7-0.3 0 0.8-0.4 1.1 0.2 0.9 0 0.9 0.5 0.8 0.7 0.6 0.9-0.2 0.9 0 0.6 0.7 0.2 0 0.5-0.4 0.5 0.1 1 0.7-1 1.9-0.1 0.5-0.2 0.8-0.3 0.4-0.3 0.3-0.3 0.6-0.7-0.3-1.5 0.3-1.2-0.5-0.4-0.6-0.7 0.2-0.9 0.9-0.5 1.2 0 1.9-0.1 1.3 0.3 1 0.6 0.7 1.4 0.9 0.8 1 0.9 1.3-0.1 0.7-0.5 0.5-0.2 0.8 0.3 0.8 0.2 1.1 0 0.4 0.2 0.3 0.7 0.6 0.3 0.4-0.2 1.1-1 1.7-0.5 1.4-0.7 0.7-1.1 1.7-1.3-0.2-1.6 1.2-0.4 1.5-1.1 0.6-3.6 2.9-0.8 1.2-1.3 0.3-0.9 0.2-1.1 0.3-0.4 0.1-0.2 0.1-0.6 0.6-0.2 0.2-0.1 0.4-0.4 0.1-0.5 0-0.5 1.3-5.1 2.1-8.2 3.8-0.8 0.9-2.4 1.6-3 1.3-1.2 0.9-1.1 1.5-1.9 3.5-1.2 1.6-1.3 1.2-2.8 1.6-1.7 0.4-2.7 0.3-2.7 0.7-0.9 0.5-0.4 0.1-1.3 0-7.9 2.4-3.5 0.3-10.1 3.8-2.9 0.6-0.3 0.2-0.7 1.3-0.1 0.4-0.2 0.3-0.5 0.3-0.9-0.6-0.3-0.1-1.8 0-1.7 0.3-1.6 0.7-1 0.7-4.6 4.5-2.2 3-4.4 4.5-0.8 1.5 1.1 0.7 1.1 0.4 0.5 0 0.2-0.3-0.1-0.4-0.6-0.4 0.7 0.1 0.6 0.3 0.4 0.4 1 1.2 1 0.9 0.5 0 0.8 0.2 0 1.1-0.6 1.2-0.4 0.5-2.6 0.8-1.1 1-2 3.1-1.2 1-1.2 0.4-1.3 0.2-0.9-1.5 1.9-0.3 0.9 0.7 1.4-0.8 1.4-2.4-0.8-0.1-1.2 0.1-3.3 1.1-0.8 0.5-0.7 0.8-0.6 0.9-1 2.5z m57.5-103.9l-0.1-0.6 0.5-1 0.4-0.2 0.5 0.5 0.4 1 0.4 0.7-0.1 0.1-0.4 0.1-0.1 0-1-0.1-0.5-0.5z" id="ESCT" name="Cataluña">
  </path>
  <path d="M704.5 139.3l0.5 0 0.1 0 0.1 0 0 0.1 0.5 0.3 0.3-0.1 1.6 0.1 0.3 0.2 0.4 0.2 0.3 0.3 0.5 0.6 0.3 0.3 0.3 0.2 0.8 0.3 0.4 0.1 0.4 0 0.7-0.4 0.4-0.1 0.7 0.3 0.7 0.3 0.3 0.2 0.3 0.3 0.5 0.7 0.2 0.2 0.7 0.5 0.7 0.3 0.4 0 0.3 0 0.8-0.1 0.6-0.4 0.2-0.1 0.3 0 0.3 0 1.2 0.4 0.4 0 0.7 0.2 0.3 0.1 0.2-0.1 0.2-0.3 0.3-0.5 0.3-0.4 0.5-0.6 0.1-0.5 0.2-0.4 0.6-1.3 0.7-1.2 0.8-1.1 0.3-0.6 0.1-0.9-0.1-0.5-0.3-0.2-0.4 0-0.4-0.1-0.3-0.2-0.3-0.3-0.2-0.4-0.1-0.4-0.1-0.3-0.2-0.3-0.6-0.6-0.2-0.3-0.1-0.4 0-0.7 0-0.5 0-1.1-0.1-0.4-0.1-0.4-0.2-0.4-0.3-0.3-0.1-0.4-0.1-0.4 0-0.5 0.2-0.5 0.3-0.7 0.2-0.6 0.2-0.8 0-0.4 0.2-0.6 0.2-0.7 0.8-1.3 1.2-1.4 0.2-0.5-0.1-0.3-0.2-0.3-0.3-0.2-0.2-0.3 0-0.4 0.1-0.6 0.2-1 0.9-1.4 1.1-1 0.6-1 0.2-0.5 0-0.4-0.1-0.2-0.2-0.4-0.1-0.3 0-0.3 0-0.5 0.2-0.4 0.3-0.5 0.2-0.4 0.3-0.2 0.5-0.1 0.7 0.3 0.4-0.1 0.3-0.2 0.3-0.2 0-0.5 0.3-0.5 0.5-0.5 1-0.6 0.2-0.3 0.1-0.2-0.7-0.3-0.1-0.1 0.3-0.1 0.4-0.2 0-0.3 0-0.3 0.1-0.4 0.3-0.3 2.4-0.3 0.4 0.1 0.8 0 0.5-0.3 0.1-0.3 0.2-0.7 0.1-0.4 0-0.4 0.1-0.4 0.3-0.3 1.9-0.5 0.5-0.3 0.5-0.3 1.1-1.1 0.8-0.3 0.3-0.7 0.3-0.2 0.5-0.3 0.4-0.3 0.4-1 0.3-1.6-0.1-0.9 0.1-0.4 0.2-0.5 1.1-1.5 0.1-0.3 0-0.4 0.1-0.4 0.3-0.5 1.4-0.7 1 0 0.2 0.4 0 0.4-0.1 0.2-0.1 0.3 0.2 0.5 0.4 0.4 0.4 0.1 0.4-0.1 0.4 0.1 1.4 0.9 0.8 0.6 1.5 2.1 0.1 0.2-0.1 0.2 0 0.2 0.3 0.2 0.6 0 0.2 0 0.2 0.4 0 0.3 0 0.3 0.4 0.3 0.3 0 0.7-0.5 0.3-0.1 0.1-1.3 1 0 2.2 1 1.2-0.1 1-0.6 1.9-1.5 0.4 0.3 0.3-0.1 0.3-0.4 0.2-0.5 0.6 0.5 0.1 0.1 2.4 1.4 0.4 1.1 1.1 0.1 1.2-0.3 0.7-0.3-0.1 0.9 0.3 1 0.5 0.8 0.6 0.5 0.3 0.3 0 0.4 0.1 0.4 0.5 0.2 0.5 0.1 0.3 0.3 0.1 0.2 0.3 0.3 1.6 0.6 1.4-0.1 3.1-1.2 2.5-0.3 0.7-0.6 0.7-0.1 2.1 0.6 0.7 0.3 0.8 1.6 0.7 0.7 0.6-0.1 1.1-1.6 0.7-0.7 0.8-0.3 1.1 1 0.1 0.2-0.1 0.2 0.1 0.2 0.2 0.2 0.8 0.2 0.8-0.1 1.5-0.4 0.7 0.3 5-0.1 1.4 0.2 0.6-0.2 0.2-0.5 0.5 0.4 0.8 1.5 0.6 1.5 0.3 0.5 0.3 0.3 0.4 0.1 0.8 0.2 0.5 0.2 0.1 0.3 0 0.2-0.1 0.4-0.1 0.3 0 0.7-0.1 0.4-0.1 0.2-0.1 0.3-0.2 0.3-0.2 0.4-0.2 0.5-0.2 0.2-0.1 0.3-0.1 0.5 0.1 0.6-0.1 0.3-0.1 0.1-0.1 0.2-0.2 0-0.1 0.1-0.3 0-0.3 0.2-0.1 0.4 0.1 0.4 0.2 0.5 0.1 0.4 0 0.6 0.1 0.4 0.2 0.2 0.1 0.1 0.2 0.2 0.2 0.4 0.3 0.6 0.3 1.4 0.2 2.3 0 1-0.1 0.6-0.2 0.7 0.1 0.2 0 0.7-0.1 1-0.1 0.4-0.3 1-0.3 0.5-0.2 0.3-0.1 0.2-0.3 1.7-0.1 0.4-0.2 0.6 0 0.5 0.1 0.3 0.1 0.6-0.1 0.6-0.2 1.1-0.1 0.6-0.2 0.5-0.4 0.3 0 0.3-0.7 2.2-0.5 1.2 0 0.3 0 0.5-0.1 0.6-0.2 0.3-0.2 0.2-0.5 0.2-0.2 0.2-0.2 0.3-0.3 0.6-0.2 0.2-0.3 0.1-0.3 0.1-0.4 0.2-0.3 0.3-0.2 0.4-0.2 0.3 0.1 0.3 0.5 0.5 0.4 0.3 0.1 0.2 0.1 0.4 0.1 1.8-0.2 0.4-0.2 0.3-0.3 0.3-0.3 0.2-0.6 0.4-0.4 0.6-0.3 0.4-0.3 0.2-0.8 0.2-0.3 0.1-0.2 0.2-0.2 0.2-0.5 0.9-0.4 0.9-0.4 0.5-0.4 0.2-1.4 0.3-0.3 0.1-0.3 0.2-0.1 0.2-0.3 0.3 0 0.3-0.3 0.3-0.3 0.3-0.6 0.9-0.9 0.9-0.6 0.9 0 0.4 0.1 0.4 0.5 1.3 0.2 1.2 0.1 0.4 0.2 0.3 0.4 0.2 1.2 0.2 0.4-0.1 0.4 0.1 0.4 0.1 0.2 0.5 0 0.4 0 0.4 0.1 0.4 0.2 0.4 0.2 0.4-0.2 0.4-0.2 0.3-0.8 1-0.2 0.3-0.1 0.3-0.1 0.2 0 0.1-0.1 0.1-0.1 0.1-0.3 0.2-1.2 0.4-0.4 0.3-0.1 0.3 0.1 1.1-0.1 1-0.4 1.5-0.6 0.9 0.2 1 0.3 0.1 0.7 0.3 0.5 0.6 0.4 0.7 0.1 1-1 2.2 0.1 1.3 0.2 1.2-0.1 0.1-0.4 0.3-0.5 0.2-0.6 0.4-0.3 0.4-0.2 0.4-0.1 0.4 0 0.5-0.3 1-0.2 0.3-0.3 0.3-0.4 0.2-0.7 0.2-0.3 0.2-0.1 0.3-0.3 0.2-0.3 0.1-0.4 0-0.4 0.3-0.2 0.3-0.1 0.4-0.1 0.4 0 0.4 0.2 0.4 0.1 0.3 0.2 0.7 0.4 1.5 0.7 0.5 0.6 0.3 0.6 0.5 0.6 1.9-0.1 1.3-0.2 0.4-0.2 0.5-0.5 0.7-0.1 0.4-0.1 0.4-0.2 0.4-0.1 0.4-0.1 0.6 0.3 0.8 0 0.4 0.1 0.5 0.1 0.5 0.4 0.9 0 0.4-0.2 0.4-0.2 0.4-0.8 0.9-0.3 0.7-0.3 0.3-2.2 1.3-0.2 0.2 0.2 0.7-1.1 0.4-1.5 0.1-0.6 0.1-0.5 0.1-0.3 0.2-0.4 0.3-0.3 0.3-0.4 0.3-0.4 0-0.3-0.2 0-0.3 0-0.4-0.2-0.4-0.2-0.3-0.7-0.2-2 0.2-1.1-0.2-1.8-1.2-0.6-0.6-0.3-0.3-0.4-0.3-0.6-0.2-0.7 0-0.4 0.2-0.8 0.9-0.2 0.4-0.2 0.3-0.2 0.8 0 0.8 0 0.4 0 0.4-0.2 0.3-2.1 1.1-0.3 0.3-0.5 0.3-0.3 0-0.7-0.5-0.6-0.1-0.5 0.1-0.5 0.3-0.3 0.3-0.1 0.4 0.1 0.4 0 0.4 0 0.8 0.1 0.3 0.3 0.2 0.4 0.1 0.3 0.1 0.3 0.2 0.4 0.1 0.3 0 0.7-0.2 0.3 0 0.3 0.1-0.1 0.8-0.1 0.4 0 0.4 0.1 0.7 0.1 0.4 0 0.4 0 0.8-0.1 0.3-0.1 0.4 0 0.3 0.1 0.3 0.6 0.4 0 0.1 0.2 0.6 0.1 0.3 0 0.4-0.2 0.2-1.8 0.7-0.4 0.4-0.3 0.4 0.1 0.4 0.1 0.4 0.2 0.3 0.7 0.5 0.2 0.2 0.5 0.7 0.3 0.3 0.1 0.4 0 0.6-0.3 0.3-1.6 1.1-0.3 0.4-0.7 1-0.5 0.5-0.8 0.7-0.1 0.3 0.1 0.4 0 0.4-0.1 0.6-0.2 0.4-0.4 0.3-1.4 0.7-0.4 0.1-0.8 0-0.3 0.1-0.4 0.1-0.3 0.1-0.2 0-0.6-0.2-0.4-0.2-0.3-0.2-0.4 0-0.3 0.3 0 0.4 0 0.7-0.1 0.4 0 0.3-0.1 0.8-0.3 0.5-0.2 0.4-0.1 0.8-0.2 0.5-0.3 0.5-0.6 0.4-0.6 0.7-0.2 0.4-0.1 0.4 0.1 0.4 0.2 0.7-0.1 0.3-2.8 1.5-1.5 0.2-0.7 0-0.3-0.1-0.3 0.1-0.2 0.3-0.1 0.8-0.2 0.5-0.4 0.5-0.1 0-0.5 0.4-0.4 0.1-1 0.5-0.2 0.4-0.2 0.3-0.1 0.8-0.1 0.4 0.2 0.3 0 0.3 0.1 0.8 0.4 0.7 0.2 0.2 0.4 0.2 0.4 0.6 0.3 0.5-2.3 1.1-0.5 0.2-0.7 0-0.4-0.1-0.4-0.3-0.2-0.3-0.1-0.4 0.1-0.4 0-0.4-0.1-0.3-0.2-0.3-0.1-0.3 0-0.4 0.1-0.4 0.1-0.3 0.1-0.4-0.2-0.5-0.5-0.7-2-0.9-0.7-0.2-0.5-0.1-0.7 0.1-1.4-0.1-1 0.2-0.8 0.3-0.3 0-1 0.3-0.6-0.4-0.7-2.1 0.9-0.2 1.9-1 0.3-0.2 0.3-0.4 0.1-0.3-0.1-0.4-0.1-0.3-0.5-0.6-1.3-1.1-1.1-0.7-2.5-0.3-0.8-0.4-0.3-0.3-0.2-0.3 0-0.3 0-0.2-0.2-0.2-0.3-0.2-0.3-0.2-0.2-0.4-0.2-0.3-0.4-0.7-0.2-0.8-0.2-0.2-0.2-0.1-0.5 0.4-0.3 0.4-0.1 0.5 0.2 0.8-0.1 0.4-0.2 0.3-0.7 0.4-0.9 0.2-1.2-0.1-2.2-0.5 0.3-0.5 0.1-0.6 0.1-0.4 0-0.4-0.1-0.3-0.2-0.3-1 0.2-0.5 0-0.6-0.3-0.5-0.1-0.5 0-0.5 0.3-0.3-0.1-0.6-0.4-4.2-4.1-1-0.6-0.6-0.1-0.4 0.2-0.2 0.2-0.2-0.1-0.1-0.7 0.2-0.4 0-0.6-0.2-0.7-1.6-2.3-0.7-0.7-1.2-0.5 0.5-0.7 0.2-0.1 0.3-0.2 1.3-2.1 0.4-0.4 0.4-0.3 0.7-0.4 0.3-0.3 0.3-0.4 0-1.9 0-0.7 0.7-1.9 0.2-0.4 0.2-0.2 1.1 0.3 0.3 0 0.7 0.3 0.3 0.2 0.3 0.2 0.4 0.1 0.3-0.1 0.7-0.4 0.4-0.2 0.2-0.4 0.2-0.3-0.2-1 0.1-0.6 0.2-0.9 0.3-0.7 0.1-0.4 0.1-1.1-0.2-0.6-0.2-0.7-0.3-0.5-0.2-0.4 0.1-0.6 0-0.4 0.2-0.5 0.4-0.8 0.1-0.5-0.1-1.3 0-0.4-0.2-0.4-0.3-0.5-1.1-0.7-0.5-0.6-0.3-0.4-0.3-0.7-0.3-0.8 0.1-1.8 0.1-0.4-0.5-1.1-1.4-1.2-0.2-0.3-0.4-0.5-0.3-0.3-2.2-1.9-0.5-0.7-0.3-0.3-0.1-0.4-0.2-0.3-0.3-0.4-2-1.7-1.3-0.8-1.7-1.2-1-0.5-0.5-0.3-0.4-0.4-0.2-0.4-1.1-0.3-3.3 1-0.3-0.4-0.9-0.7-0.4-0.2-0.4-0.1-0.3 0-0.8-0.1-0.3-0.1-0.3-0.3-0.2-0.4-0.1-2-0.3-2-0.1-0.4-0.1-0.3-0.4-0.7 0.1-1.8 0.2-1 0.3-0.4 0.2-0.2 0.3-0.1 0.3-0.2 0.2-0.3 0.3-0.4 0.2-1.2 0.1-0.5 0-0.4 0-0.5 0.2-0.4 0.2-0.3 0.4-0.3 1.2 0.2 0.7 0.2 0.3 0.3 0.2 0.3 0.1 0.4 0 0.4-0.1 0.4 0 0.4 0.1 0.3 0.3 0.2 0.4 0 0.3-0.1 0.7-0.6 0.7-0.3 0.4-0.2 0.4-0.1 0.3-0.1 0.2-0.2-0.2-2.3-0.2-0.5-0.2-0.4-0.3-0.3-0.3-0.6-0.1-0.9 0.1-1.9-0.2-1.5-0.3-0.2-0.1-0.4 0-0.3 0.1-0.4 0.3-0.4 0.3-0.1 0.2-0.2 0.2 0 0.2 0 0.3 0.1 0.8 0.3 0.3-0.1 0.3-0.3 0.2-0.3 0.7-0.9 0.8-0.4 0.4-0.3 0.4-0.5 0.4-0.2 0.4-0.1 0.4 0 0.4-0.2 0.3-0.5 0.4-0.9 0.2-0.5 0.2-0.5 0.1-0.7-0.4-0.5-0.3-0.2-0.2-0.3-0.1-0.4-0.3-0.7-0.7-1-0.3-0.4-0.1-0.4 0.1-0.5 0.4-0.8 0.3-0.3 0.2-0.4 0.1-0.4 0.1-0.5 0-0.4-0.9-1.2-0.6-1.7-0.2-2.7 0.4-1.3 0.1-0.2-0.3-1z m26.8-21.9l0.5-0.1 0.5-0.4 0.3-0.8 0-0.6-0.3-0.2-0.3 0.3-0.6 0.3-0.3 0.3-0.1 0.7 0.3 0.5z m4.6-1.6l0.3-0.3 0-0.5-0.3-0.2-0.4-0.5-0.4-0.2 0-0.6-0.1-0.5-0.3 0-0.3 0-0.5 0.5-0.1 0.4-0.2 0.6-0.1 0.5 0.5 0.4 0.6 0.1 0.8 0.2 0.5 0.1z" id="ESAR" name="Aragon">
  </path>
  <path d="M501.6 231.7l0.5 0.4 0.8 0.8 0.3 0.3 0.5 0.2 0.4 0.1 0.4 0 0.4-0.2 0.3 0 0.3 0.1 0.8 0.1 1.3-0.7 0.4-0.1 0.7 0.5 0.4 0 0.5-0.2 0.4-0.2 0.5-0.2 2.8-0.5 0.6-0.3 0.4-0.3 0.2-0.2 0.1-0.4 0-0.4-0.2-0.7 0-0.4 0.2-0.3 0.3-0.3 1.2-1 0.4-0.2 0.8-0.3 0.3-0.2 1.5-0.6 0.8-0.9 0.4-0.2 0.4-0.2 1.2-0.2 0.4-0.3 0.2-0.4 0.1-0.3 0.2-0.4 0.3-0.2 0.4-0.3 0.4-0.3 0.7-0.1 0.5-0.2 0.5-0.2 1.4-1 0.4-0.2 0.5-0.1 0.7 0.2 1.4 0.8 0.4 0.4 0.6 0.7 0.4 0.2 0.8 0.2 0.1 0.3 0 0.3 0.3 0.3 0.5 0.3 0.9 0.3 0.2 0.3 0 0.2-0.3 0.4 0 0.2-0.1 0.2-0.2 0.2 0 0.2-0.1 0.4-0.2 0.2-0.2 0.2 0.1 0.2 0.5 0.3 1.4 0.6 0.9 0.5 0.6 0.5 0.3 0.4 0.6 0.4 1.4 0.7 1.1 0.4 0.5 0.1 0.4-0.2 0.2-0.3 0.2-0.4 0.2-0.4 0.1-0.3 0.1-0.4 0.3-0.2 0.3-0.2 1.4-0.3 0.8-0.5 0.4-0.1 0.3 0.1 0.4 0.5 0.2 0.4 0 0.5-0.1 0.3-0.3 0.7 0.1 0.3 0.2 0.2 0.9 0.1 1.4-0.5 1.6 0.6 1.2 0.9 1.2 1.1 1 1.3 1 0.7 1.6 0.5 1.5-0.1 0.3 0 0.3-0.1 0.3-0.2 0.6-0.5 0.3-0.4 1.4-1.1 2-0.6 0.7-0.1 0.2 0.3 0 0.3-0.4 1-0.1 0.4-0.1 0.5 0.2 2.3 0.3 0.7 0.2 0.4 0.1 0.4 0.7 1.1-1.2 0.6-0.1 0.2-0.2 0.4-0.2 1.3 0 0.6 0.1 0.5-0.3 2.8-0.6 3.9 0 1.4 0.2 0.7 0.3-0.2 0.8-0.1 1.1-0.1 0.4 0.1 0.3 0.1 0.3 0.3 0.3 0.3 0.2 0.3 0.2 0.3 0 0.4-0.1 0.3-0.5 0.7-0.2 0.4-0.1 0.7 0 0.6-0.1 0.5-0.1 1.1 0.1 0.5 0.2 0.2 1.4 0.3 0.5 0.1 0.3-0.1 0.2-0.2 0.5-0.7 0.3-0.5 0.8-0.7 0.3-0.1 0.8-0.1 0.3 0 0.3 0.2 0.1 0.4 0.2 0.7 0 0.5-0.2 0.8 0.1 0.3 0.5 0.7 0.3 0.4 0.1 0.5-0.1 0.4-0.1 0.3-0.2 0.7-0.1 1.2-0.1 0.3-0.1 0.4-0.1 0.3-0.5 0.6-0.1 0.4-0.3 0.3-0.2 0.4-0.4 0.6-0.1 0.3 0.1 0.3 0.3 0.3 0.3 0.3 0.6 0.4 0.3 0.2 1.5 2 0.9 0.9 0.6 0.5 0.3 0.4 0.6 0.4 0.7 0.1 0.3 0.2 0.6 1 1.2 1.4 0.4 0.6 0.5 0.6 0.2 0.2 0.4 0.3 0.5 0.5 2.6 1.3 1-0.6 0.2-0.1 0.3-0.1 0.3-0.1 0.9-0.5 1.4-0.4 0.5-0.2 0.5-0.7 2-1.1 0.5-0.6 0.6 1.7-0.2 0.9-0.6 1.2-0.6 1.7-0.3 0.5-0.4 0.3-0.5 0.1-0.3 0.2-0.3 0.4 0 0.5 0.1 0.5 0.8 1.9 0.7 1.3 0 0.2 0.3 0.3 0.4 0.4 1.2 1.4 0.5 0.9-0.6 0-0.2-0.1-1.4-0.7-0.3-0.2-0.3-0.1-0.7-0.2-0.7 0.2-0.4 0-0.4 0-0.7-0.2-0.3 0-0.3 0.3-0.3 0.3-0.2 0.3-0.6 0.6-0.3 0.3-0.1 0.3-0.2 0.6-0.5 2.2 0 0.7 0.2 0.5 0.2 0.3 0.7 0.4 0.3 0.3 0.1 0.5-0.2 0.3-0.9 0.6-0.4 0.1-0.4 0.1-0.7-0.3-1-0.6-0.4-0.1-0.3-0.1-0.4 0.1-0.3 0.3 0 0.4 0.1 0.3 0.2 0.4 0 0.4 0.1 0.4 0.2 0.2 0.2 0.2 0.1 0.1 0.1 0 0 0.4 0 0.4 0.1 0.3 0.1 0.4 0.2 0.3 0.2 0.3 1.4 0.4 0.3 0.1 1.1 0.2 0.2 0.3 0.2 0.6-0.2 0.7-0.2 1.2-0.2 0.3-0.3 0-1.1-0.2-0.4 0.1-0.4 0.1-0.3 0.2-0.3 0.3-0.3 0.3-0.6 1.1-0.2 0.5-1 3.7-0.4 1-0.4 0.5-0.3 0.2-0.2 0-0.2 0-0.5 0.1-0.6 0.3-1.1 0.1-0.7 0.3-3.2 0.1-0.4 0.2-0.1 0.3 0.1 0.4 0.1 0.4-0.1 0.5-0.2 0.4-0.1 0.2-0.1 0.3-1.2 0.4-1.9 1.2-1.3 1.2-0.2 0.2-0.2 0.2-0.1 0.3-0.1 0.2 0 0.2-0.1 0.3-0.2 0-0.2 0.1-0.5-0.2-0.9 0-0.5 0.1-0.7 0.7-0.2 0.3-0.4 0.5-0.2 0.3-0.2 0.3-0.1 0.3 0 0.3-0.2 0.4-0.3 0.5-1.2 0.8-0.6 0.5-0.2 0.4-0.5 0.7-0.3 0.2-0.6 0.2-1.8 1-0.5 0.5-0.3 0.3-0.3 1.1 0 0.3 0 0.2 0.1 0.3 0.4 0.4 0.1 0.2 0 0.3 0 0.2-0.1 0.6-0.1 0.3 0 0.5 0 0.2 0.1 0.2 0.1 0.2 0.3 0.2 0.1 0.2 0.2 0.3 0.1 0.2 0.1 0.6 0.1 0.2 0.1 0.3 0.2 0.3 0.3 0.7 0.1 0.2 0 0.4 0 0.3 0.1 0.4 0 0.4 0.1 0.4 0 0.4-0.1 0.7-0.3 0.3-0.1 0.4-0.2 0.7 0 0.4 0 0.3-0.2 0.3-1.7 1.4-1.7-0.1-0.8 0.5-0.3 0.3-0.9 0.9-0.9 0.6-0.7 0.1-0.4 0-0.3-0.3-0.2-1.1 0-0.3 0-0.4 0.2-0.2 0.3-0.2 0.4-0.1 0.6-0.4 0.2-0.3-0.1-0.3-0.1-0.3-0.7-0.7-0.5-0.5-0.5-0.1-2.7 0.4-1.3 0.5-0.3 0.2-0.3 0.4-0.3 0.6-0.3 0.3-0.3 0.2-1 0.6-0.4 0.4-0.2 0.3-0.2 0.4-0.1 0.4 0 0.3 0.1 0.4 0.2 0.3 0.2 0.3 0 0.4-0.1 0.3-0.7 0.9-0.2 0.3 0 0.3-0.1 0.3-0.2 0.4-0.4 0.5-0.4 0.3-0.6 0.2-1.7 0.3-0.8 0.1-3 0.6-1 0.5-1.3 1-0.5 0.5-0.7-0.6-5.3-2.2-1-0.3-0.2-0.3 0-0.4-0.2-0.4-0.3-0.5-1.6-1.2-0.5-0.1-0.4 0-0.3 0.1-0.3 0.2-0.2 0.3-0.2 0.3-0.6 0.5-0.2 0.2-0.1 0.3-0.1 0.2-0.6 0-1-0.3-1.9-0.1-0.3-0.3-0.1-0.3 0.1-0.4-0.1-0.4-0.1-0.3-0.8-1.1-0.6-0.5-0.5-0.2-0.6-0.1-1.3-0.1-1 0.1-1.9 0-1.1-0.4-0.5-0.2-0.5-0.2-0.4-0.2-0.1-0.3 0.1-0.4 0.2-0.6 0.2-0.4 0.2-0.3 0.2-0.3-0.1-0.4-0.2-0.4-5.5-1.8-0.6 0.5-0.6-0.4-1.1 0.1-1.1 0.3-0.1 0-0.2-0.1-0.5 0.7-1 0.5-1 0.2-0.6 0-0.6-0.5-0.4-0.4-1.6-4.2-0.2-0.2-0.7-0.5-0.3-0.3-0.1-0.3-0.3-0.7-0.2-0.3-4.2-5.5-1.2-0.9-0.5-0.3 0.5-0.6 0.4-0.5 0.1-0.6-0.5-0.7 0.4-0.6 0.7-2.6 1.7-2.5 0.2-0.7-0.1-0.4-0.2-0.2-0.3-0.1-0.2-0.4 0-0.4-0.1-0.5 0.1-1.2 0.3-1.7 0.1-0.4 0.4-0.7 0-0.2 1.8-1.5 0.6-0.5 0.6-0.2 0.7-0.6 0.6-0.6 0.2-0.5 0.4-0.3 1.8-0.4 0.7-0.4 0.5-0.5 0.5-0.4 0.3-0.2 0-0.7 0.2-0.8-0.6-1.1 0.9-0.7 0.9-1.3 1.3-2.6 0.4-0.5 0.2-0.5 0-0.5-0.5-0.4 0.3-0.9-0.3-1-0.5-0.9-0.7-0.7-0.9-0.6-1.1-0.3-1 0.1-1 0.6-0.5 0.2-0.6-0.1-0.6-0.3-0.4-0.4-0.1-0.5 0.5-1 0.1-0.5-0.5-1-1-0.4-1.1-0.3-1-0.6-0.6-0.8-0.3-1.1 0.1-1.1 0.5-0.9-2-2.5-0.7-0.6-0.3-0.6-0.2-1.1 0-1.2 0.2-0.7 0.3-0.8 0.2-1.2 0-1.1-0.3-0.5-1.7-0.5-0.8-0.4-0.7-0.5-0.3-1.1-0.4-0.5-1.4-0.7-0.6-0.6-1.2-1.6-0.8-0.7-1.3-3.7-0.3-0.7 0-0.1 8.7 0.4 0.5-0.2 0.7-0.3 0.7-0.1 1.7 0 0.6-0.2 0.9 0.6 1.3 0 5.9-0.7 0.6-0.3 0.5-1.1-0.1-0.4-0.1-0.3 0-0.5 0.2-0.5 0.5-0.9 0.2-0.5-0.1-0.4-0.2-0.5 0-0.6 0.3-0.7 0.3-0.3 0.9-0.3 0.4-0.3 1-1.5 0.1-0.5 0.1-0.9 0-0.5 0-0.2-0.1-0.6 0-0.2 0.1-0.3 0.4-0.3 0.1-0.2 0.3-1.3 0.1-0.5-0.1-0.5 0.2-0.6 0.7-1.2-1.6-2.9-0.9-1.1-0.5-0.9-0.5-0.4-0.4-0.2-1.1-0.1-0.5-0.2-0.4-0.7-0.3-1.8-0.4-0.8 0.4-0.6 0.4-1.2 0.3-0.5 0.8-0.3 1.7-1.2 0.5 0 0.3-0.1 0.8 0.1 0.8-0.1 0.7-0.5 0.1-0.3 0-0.4z" id="ESEX" name="Extremadura">
  </path>
  <path d="M494.7 57.7l-0.1 0.4-0.1 0.1-1.2 1.1-0.6 0.9-0.4 0.4-0.3 0.2-0.3 0-0.3 0-0.4-0.1-0.4 0-0.5 0.1-0.3 0.3-0.1 0.4-0.1 1.1 0.1 0.3 0.1 0.3 0.6 0.2 0.7 0 0.2 0.2 0.2 0.3 0 0.4 0 0.5 0 0.5 0.2 0.6 0.2 0.6 0.3 0.4 0.5 0.6 0.4 0.1 0.3 0.2 0.3 0.3 0.3 2.4 0.3 0.5 0.2 0.4 0.3 0.3 0.9 0.8 0.3 0 0.3 0.1 0.4 0.6 0.7 0.3 0.3 0.1 0.3 0.2 0 0.3-0.1 0.3-0.2 0.8-0.1 0.6 0.1 0.4 0.3 0.4 0.2 0.3 0.3 0.2 0.4 0.1 0.6-0.3 0.8-0.4 0.4-0.2 0.3-0.2 0.2-0.3 0-0.3 0.2-0.4 0.3-0.2 0.3 0 0.3 0.3 0.4 0.6 0.6 1 0.2 0.6-0.1 0.5-1.5 1.4-0.4 0.2-1.4 0.6-0.4 0-0.4 0-0.3 0.1-0.2 0.1-0.2 0.3-0.1 0.3-0.1 0.4-0.1 0.5-0.3 0.4-0.3 0.2-0.3 0.1-0.3 0.4-0.1 0.6 0.2 0.6 0.3 0.6 0.4 0.2 0.2-0.1 0.2-0.1 0-0.1 0.1-0.1 0-0.2 0-1 0.1-0.1 0.3 0 0.8 1.2 0.1 0.2 0.4 0.3 0.3 0.1 0.4 0.1 0.7-0.1 0.4 0.2 0.9 0.9 0.4 0.5 0.1 0.6 0.2 2.1-0.4 0.5 0 0.5-0.2 0.4-0.7 0.8-0.1 0.7 0.4 1.3 0 0.5-0.2 0.6-0.2 0.5-1.3 1.6-0.9 1.2-0.4 0.4-0.5 0.2-0.3 0-0.3-0.1-0.4 0.1-1 0.9-1.1 0.6-0.2 0.1-0.5 0.7-0.2 0.4 0 0.5 0.1 0.7 0.2 0.5 0.3 0.4 0.3 0.3 0.1 0.4 0 0.3-0.4 0.3-0.3 0.3-0.3 0.3-0.2 0.5 0.1 1.5-0.1 0.6-0.7 1.6-0.1 0.4 0.1 1.1-0.4 1 1.8 0.1 1.8 0.4 0.4-0.1 0.1-0.1 0.1-0.2 0.2-0.1 0.4-0.3 0.8-0.2 0.5 0 0.4 0.2 0.5 0.4 0.2 0.1 2.9 0.8 0.5 1.1-0.1 0.5-0.1 0.9-0.1 0.5-0.2 0.4-0.3 0.4-0.1 0.2-0.3 0.1 2 1.7 1.3 0.9 0.7 0.7 0.1 0.5 0 0.4-0.1 0.4 0.1 0.8-0.1 0.3-0.1 0.4-0.1 0.4-0.5 0.6-0.5 1-0.6 0.5-0.6 0.8-0.1 0.4-0.2 0.7-0.2 0.1-0.8-0.3-0.6 0-0.8 0.2-0.7 0.4-0.6 0.6-1.4 1.4-0.3 0.5-0.2 0.3-0.4 1.5-0.3 0.3-0.4 0.2-0.3 0.2-0.3 0.3-1 1.5-0.5 0.5-0.2 0.5 0.1 0.3 0.3 0.3 0.3 0.2 0.3 0.1 0.8 0 0.3 0.2 0.4 0.6 0 0.2 0.1 0.2-0.7 1.7-0.2 0.4 0 0.4 0.2 0.5-0.1 0.6-0.3-0.2-1 0.7-1.4 0.6-1.3-0.6-1.2-1-1.3-0.9-0.6 0.1-0.7 0.4-0.6 0.5-0.3 0.3-0.1 0.8 0.3 1.7-0.1 0.9-0.5 0.7-0.4 0.5-1.3 0.9-2.9 1-0.7 0.1-1.5-0.1-0.6 0.1-0.5 0.4-1 1.1-0.5 0.5-0.2-0.9-0.4-0.9-0.5-0.7-0.6-0.2-0.3-0.1-0.7-0.4-0.3 0-0.3 0.3 0 0.3-0.1 0.3-0.2 0.4-0.6 0.5-0.8 0.3-0.9 0.1-0.7-0.1-0.7-0.3 0-0.5 0.6-1.8-2.1 0-0.7-0.4-1.2-0.8-0.6-0.2-1.1 0.6-2.5 0.6-1.1 0-0.5 0.1-0.1 0.3-0.2 0.4-0.3 0.3-1.2 0-0.3-1.6-0.1-1.5-0.8 0.3-0.2 0.7-0.2 0.9-0.4 0.7-0.7 0-0.7-0.1-0.6 0.3-0.5 0.5-0.4 0.6-1.3 1.4-0.1 0-1.7 0.6-3.5-0.3 0-0.1 0.2-1.3-0.1-0.7-0.3-0.4-1.4-0.6-0.5-1 0.1-1 0.4-0.9 1.5-2.4 1.2-1.1 1.2-0.8 0.6-0.5 0.4-0.7 0.1-1-0.3-0.8-0.6-0.6-0.8-0.3-0.8 0.1-0.7 0.3-0.7 0.2-0.5-0.4-0.1-0.9 0.1-2.3-0.3-0.9-0.4-0.5-1.2 0.9-0.8 0.3-0.7 0-0.3 0.1-0.3 0.2-1.1 1-0.6 0.3-6.3 1-0.7 0.3-1.4 1-0.8 0.3-1.4 0-0.8 0.2-0.6 0.5-0.4 0.6-0.4 1.1-0.3 0.6-0.9 0.5-1 0.3-0.9 0.5-0.5 0.3-0.4 0.9-0.6 0.9-0.8 0.6-0.8 0.2-0.7 0.4-0.6 0.8-0.7 0.6-0.6-0.2 0.1-0.8-0.8-10.6 0.1-0.9 0.4-0.4 1.6 0 0.8-0.2 0.3-0.5-0.2-0.5-0.8-0.3-0.1-0.4 0.2-0.2 1-0.5 0.1-0.3 0.1-0.5 0.2-0.5 0.4-0.2 0.2-0.2 0.8-0.9 2.1-1.7 0.5-0.2 0.2-0.1 1.3-1.2 0.7-0.3 0.9-0.6 0.2-0.3 0.2-0.4 0-1.7-0.1-0.4-0.1 0-0.4 0.1-0.6 0.6-0.4 1-0.6 1-1 0.4-0.8 0.2-2.2 1-0.4 0.5-0.5 0.1-2.1-0.2-0.8 0.3 0.2-0.7 0.4-1.2 0-0.8 0.3 0 0.5 0.9 0.3-0.4 0-1.8-0.1-0.4-0.1-0.3 0.2-0.1 0.5-0.1 1.5 0.3 0.2-0.1 0.3-0.7 1.5-1.8 0.7-0.7 1.3-0.9 0.6-0.5 0.3-0.8-0.4 0.2-0.3-0.1-0.4-0.1-0.4 0-0.1 0.1-0.1 0.1-0.9 0.5-1 0.8-0.5 0.4-0.9 0.2-1.3 0.1-1.3-0.2-1-0.6-0.3-0.6-0.2-1-0.3-0.6-0.5-0.3-1.4-0.2-0.3-0.2 0.3-0.6 0.7-0.4 0.9-0.4 0.6-0.1 0.5 0.1 0.3 0.5 0 0.5-0.5 0.4 0.3 0.2 0.6 0.2 0.6 0.1 0.4-0.1 0.1-0.6-0.1-0.7 0-0.5 0.5-0.5-0.5-1.9 0-0.9 0.1-0.8 0.4-0.7 0.5-0.4 0.5-0.2 0.5-0.7 1.5-3.3 0.3-1.3-0.2 0-0.3 0.9-0.4 0.9-0.5 0.6-0.7 0.3-0.8-0.3-0.5-0.7-0.4-0.9-0.5-0.4-0.7 1.1 0 0.7 0.4 0.5-0.9 1.2-0.5 0.3-0.6-0.4 0.2-0.6-0.5 0.3-1.4 1 0.6 0.7-0.5 0.4-1.4 0.4-0.1 0.3-0.3 1.3-0.4 0.1-0.3 0.3-0.6 0.7-0.6-0.7-0.1-1-0.2-0.9-0.9-0.4-0.6-0.6 0.2-1.3 0.6-1.4 0.5-0.9 0-0.6 0.1-0.8 0.3-1.1 0.4-0.7 0.2-0.4 0.3-0.4 0.5-0.1 0.1-0.2 1.2-0.6 1-1.5 0.6-0.5 1-0.3 0.3-0.4 0.2-0.8-0.1-0.9-0.8-0.5-0.2 1.3-0.6 0.8-0.9 0.4-1.1 0.1-2.1-0.3-0.8 0.2 0.1 0.9-0.9 1-0.5 0.3-0.8-0.2-0.5-0.4-0.3-0.7-0.2-0.9-0.4-1 0.5 0 0.4-0.2 0.3-0.4 0.2-0.5-0.3-0.7-0.6-0.4-0.7-0.3-0.1-0.4-0.2-0.7 0-0.4 0.1-0.2 0.3-0.4 0.1-0.3 0.1-0.5-0.1-0.4-0.2-0.2-0.7-0.1-0.4-0.2-0.6-1-0.5-0.2 0 0.3 0.2 0.6-0.2 0.3-0.4 0.1-0.2 0-0.2-0.8-0.4 0-0.4 0.3-0.4 0.3-0.3 0.5-0.4 1.1-0.3 0.5-0.2-0.1-0.4-1.3-0.3-0.4 0-0.3 0.2-0.5 0.9-2.3 0-0.4 0.1-0.4 0.1-0.5 0.2-0.3 0.1-0.5-0.2-0.3-0.6-0.5-0.3-1.3 0.3-0.3 0.6 0 0.2-0.5 0.3-1 0.4-0.5 0.5-0.3 0.2-0.7 0.6 0.6 0.5 0.1 0.5-0.2 0.6-0.5 0.2-0.3 0.1-0.2 0.2-0.3 0.4-0.3 0.3-0.2 0.3-0.1 0.7 0 0-0.4-0.7 0.3-0.9 0.2-0.6-0.1 0-0.4-1.3 0.6-0.5-0.1-0.4-0.9 1.9-1.9 1.3-0.7 1.5 0.7 0.7 0 0.7-0.2 0.6-0.2 0.5-0.4 0.5-0.4 0.4-0.7 0.2-0.8 0.3 0 0.8 0.6 1 0 1.1-0.5 0.7-0.5-0.9 0.1-0.4-0.4-0.6-1.2-0.2 0-0.5-0.3-0.3-0.3 0.3-0.2 0.4 0 1.6-0.7 1.7-1.2 1.3-0.3 0.3-0.4 0.3-0.3 0.4-0.1 0.6 0.3 1.2 1.3 0.7 0.3 0.8 0.1 1.5 0.5 0.8 0.1 1.1-0.4 1.4-0.8 1.5-0.5 1.4 0.6 2.1-1 0.4-0.3 0.1-0.5 0.3-0.5 0.4-0.3 0.9-0.2 0.1-0.2 0.1-0.2 0.3-0.2 2.2-0.6 0.1 0.7 0.4 0.6 0.9 0.8 0.5-0.7 0.1-0.5-0.1-1.3 0.4-0.7 0.8 0.1 1.2 0.8 0.6 0.2 0.2 0.5 0.2 0.6 0.3 0.6 0.9 0.9 0.4 0.6 0.3 0.8 0.3-0.9 0-0.8-0.3-1.7 0-0.9 0.2-0.5 0.4-0.4 0.8-0.5-0.8-0.4-0.7-0.1-1.4 0.1-0.7-0.2-1-1.1-0.7-0.2 0.8-0.6 4.1-0.6 0.3-0.1 0.2-0.2 0.2-0.4 0-0.4-0.2-0.1-1 0.5-2.4 0.4 0.1-0.2 0.1-0.1 0.3-0.1-0.1-0.2-0.4-0.2-0.5 0.7-0.8 0.3-1.8 0.1 0.3-0.8 0.2-1.2 0.2-0.8 0.4 0.2 0.6-0.8-0.4-0.3-0.3-0.4-0.2-0.6 0-0.6 0.2 0 0.7 0.1 0.3-0.1 0.9 0.1 1.2-0.6 5.9-4.5 0.1 0.6 0.4 0.4 0.4 0 0.5-0.2-0.4 0-0.2 0 0-0.4 0.2-0.1 0.2-0.2 0.2-0.1-0.8-0.6-0.1-0.6 0.2-0.6 0.1-0.7 0.3-0.4 0.6-0.2 1.3 0 1.2-0.3 1.2-0.7 1-0.9 0.8-1.1 1.1 0.1 0.5 0.8 0.3 1 0.6 0.8 0 0.3-0.3-0.1-0.4-0.1-0.2-0.1-0.3 0.5-0.1 0.5-0.1 0.4 0.3 0.4-0.4 0.4-0.2-0.1-0.3-0.3-0.2 0.3-0.1 0.1-0.2 0.1 0 0.3 2 0.2 0.4-0.5-0.8-1.2 0.5-0.3 0.5 0 1 0.3-0.1-0.2-0.1-0.4-0.1-0.2 0.6-0.6 0.7-0.6 0.8-0.5 1.6-0.4 0.9-0.6 0.7-0.8 0.2-0.9 0.2-0.1 0.3 0.1 0.3 0.4 0.1 0.6-0.2 0.4-0.9 1.1-0.1 0.8 0.2 0.3 0.3-0.1 0.4-0.2 0.1-0.1-0.1-0.3 0.1-0.3 0.3-0.1 0.3 0 0.7-0.4 0.1 0.8 1 1.9-0.1 0.9 0.3-0.1 0.5-0.7 0.4-0.8 0.5 0.2 0.3-0.3 0.4-0.5 0.6-0.2 1.6 0.2 0.5 0.2 3.3 1.9 1.6 0.6 2.6 4.5 1.9 1-0.1 0.2-0.1 0.2-0.1 0.2-0.3 0.1 0 0.4 0.6 0.3 0.3-0.2 0.3-0.3 0.5-0.2 0.6 0 0.8 0.3 1.5 0.2 2.5-0.1 0.7-0.4 0.7 0.4 0.7 0.1 0.5 0.4 0 1.1-0.3 0.6-0.4 0.7-0.2 0.7 0.3 0.7z" id="ESGA" name="Galicia">
  </path>
  <path d="M501.6 231.7l0.1-0.5 0.1-0.4 0.3-0.3 1.7-1.3 0.4-0.3 0.7-1.3-1.4-1.3-0.9-1.5-0.3-1.8 0.8-1.8 0.9-1.4 0.1-0.6-0.2-0.9-0.4-0.8-0.5-0.4-0.3-0.6-0.1-0.9 0.3-0.8 0.9-1.8 0.3-0.9 0-0.6-0.1-1-0.3-1.7-0.5-1.8-0.1-0.7 0-1.1 0-0.5 0.2-0.3 0-0.3-0.1-0.6-0.1-0.3 0.1-1.4 0.6-0.2 0.2-0.6-0.2-0.8-0.4-0.3-0.7-0.1-0.3-0.5-0.3-1.1-0.9-2.2-0.6-0.9-1.2-1.4-0.4-0.6-0.1-0.7 0.4-0.7 0.2-1 0.8-0.4 2.5 0.2 1.1-0.1 0.6-0.6 1.6-2.3 0.3-1-0.1-1.3 0.2-0.4 0.5-0.7 1.4-1.2 0.2-0.5 0.3-0.8 1.5-2.1 0.4-0.6 0.8-0.1 2.6 0 0.4-0.3 2.3-1 0.6-0.5 0.8-0.6 1.3-1.3 1.2-2.1 0.2 0 0.5 0.1 0.1-0.1 0.1-0.3 0.1-0.4 0-0.3-0.2 0 0.6-0.5 0.5-0.2 1.3-0.1 0-0.4 1.5-2.5 0.1-0.4-0.2-0.3 0-0.5 0.3-0.5 1-1.1 1.9-2.9-0.4-0.5-0.5-0.8-1.7-1.8-1.8-1.2-2-0.7-3.3-0.7-0.5 0-0.3 0.2-0.3 0.4-0.5 0.4-0.7 0.3-0.4 0.1-1.1-0.4-0.6-0.9-0.2-1.1-0.1-1-0.2-0.5-0.2-0.5-0.2-0.4 0.3-0.5 0.3-0.5 0.1-0.5 1-4.4 0.5-1-1.1-0.4-0.7-0.1-0.3-0.4 0.3-2.3-0.1-0.9-0.6-0.7-1-0.4-0.5 1.2-1.4 0.4-2.8 0.1-1.3-0.3-1.4-2.3-1.3-0.3-0.2 1.7-1 0.6-2.5 0.2-1.1-0.3-1-0.7-0.6-0.3 0.1-0.6-0.2-0.5 0-0.4 0.2-0.4 0.7-1.7-0.1-0.2 0-0.2-0.4-0.6-0.3-0.2-0.8 0-0.3-0.1-0.3-0.2-0.3-0.3-0.1-0.3 0.2-0.5 0.5-0.5 1-1.5 0.3-0.3 0.3-0.2 0.4-0.2 0.3-0.3 0.4-1.5 0.2-0.3 0.3-0.5 1.4-1.4 0.6-0.6 0.7-0.4 0.8-0.2 0.6 0 0.8 0.3 0.2-0.1 0.2-0.7 0.1-0.4 0.6-0.8 0.6-0.5 0.5-1 0.5-0.6 0.1-0.4 0.1-0.4 0.1-0.3-0.1-0.8 0.1-0.4 0-0.4-0.1-0.5-0.7-0.7-1.3-0.9-2-1.7 0.3-0.1 0.1-0.2 0.3-0.4 0.2-0.4 0.1-0.5 0.1-0.9 0.1-0.5-0.5-1.1-2.9-0.8-0.2-0.1-0.5-0.4-0.4-0.2-0.5 0-0.8 0.2-0.4 0.3-0.2 0.1-0.1 0.2-0.1 0.1-0.4 0.1-1.8-0.4-1.8-0.1 0.4-1-0.1-1.1 0.1-0.4 0.7-1.6 0.1-0.6-0.1-1.5 0.2-0.5 0.3-0.3 0.3-0.3 0.4-0.3 0-0.3-0.1-0.4-0.3-0.3-0.3-0.4-0.2-0.5-0.1-0.7 0-0.5 0.2-0.4 0.5-0.7 0.2-0.1 1.1-0.6 1-0.9 0.4-0.1 0.3 0.1 0.3 0 0.5-0.2 0.4-0.4 0.9-1.2 1.3-1.6 0.2-0.5 0.2-0.6 0-0.5-0.4-1.3 0.1-0.7 0.7-0.8 0.2-0.4 0-0.5 0.4-0.5 1.3 0.2 0.8 0.4 0.2 0.5 0.3 0.1 0.5-0.3 0.3-0.3 0.3-0.3 0.3-0.4 0.4-0.2 0.7-0.3 0.8-0.1 1.9 0 0.5 0.1 0.3 0.1 0.3 0.2 1.9 0.2 0.4-0.1 1.4-0.6 0.6-0.1 2.1-1.1 0.2-0.4 0-0.3-0.2-0.3-0.7-0.2-0.4-0.3-0.2-0.3 0.1-0.3 0.2-0.2 1.1 0 0.9-0.3 0.3-0.2 0.1-0.2 0-0.3 0.1-0.3 0.2-0.4 0.2-0.3 0.2-0.4 0.2-0.4 1.1-0.5 0.7 0.2 0.4 0.3 0.3 0.3 0.8 0.2 0.6 0 1.7 0.9 0.8 0.2 0.3-0.1 0.2-0.2 0.1-0.8 0.3-0.3 0.5-0.1 1 0.2 1.1 0.4 0.5 0.2 0.5-0.1 0.8-0.4 0.3-0.3 0.1-0.5 0.1-0.4 0.1-0.3 0.4-0.1 2 0.4 0.5 0 1.2-0.3 0.4 0.3 0.2 0.3 0.2 0.8 0.1 0.4 0.2 0.4 0.2 0.3 1 0.6 0.5 0.4 0.5 0.4 0.5 0.1 0.1 0.3 1.1 0.4 0.3 0.2 0.4 0.1 1.6 0.1 0.7-0.1 0.4-0.1 0.4-0.4 0.1-0.4 0.2-0.3 0.1-0.3 0-0.1 0-0.2 0.1-0.3 0.2-0.3 0.3-0.3 0.2-0.4 0.2-0.3 0.2-0.4 0.4-0.2 0.6-0.2 1-0.1 0.6 0.1 1.1 0.6 0.9 0.2 0.6 0 0.9 0.1 0.3 0.3 0.4 0.2 0.4 0.1 0.4 0 1-0.4 0.7 0 0.3 0 0.2-0.3 0.2-0.3 0.1-0.4 0.2-0.3 2.2 0 0.5-0.1 0.4-0.2 0.3-0.4 0.3-1.1 0.4-0.3 0.5-0.1 2.1 0.3 3.9-0.4 2.1-1.1 0.4 0 0.4 0.2 0.4 0.1 0.5 0 0.6-0.6 0.3-0.5 0.3-0.9 0.1-0.4 0.1-0.4 0.4-0.8 0.4-0.3 0.7-0.4 1.5-0.4 1.3-0.7 0.6-0.6 2.2-1.2 0.4 0 0.4 0 0.3 0.2 0.8 0.6 1.2 1.9-0.2 3 0.1 0.6 0.2 0.9 0.3 0.4 0.4 0.3 1.6 0.9 0.3 0.4 0.2 0.5 0.8 0.8 0.2 0.4 0.3 1.4 0.8 0 0.7-0.2 2 0 1.6-0.3 1.4 0.1 0.5-0.1 1.4-0.7 0.5-0.1 0.6 0 0.4-0.2 0.8-0.4 0.6 0 0.5 0.1 1 0.5 0.4 0.3 0.8 1.4 0.1 0.4 0.1 0.1 0.2 0.4 0.6 0.4 4.1 1.5 0.6 0.4 0.1 0.4-0.1 0.4 0 0.4 0.1 0.7 0.2 0.8 0.1 0.4 0 0.4 0.1 0.4 0 0.4 0.1 0.4 0 0.3 0 0.2 0.1 0.3 0.2 0.3 0.3 0.1 0.3 0.1 0.2-0.1 0.5-0.5 0.4-0.2 1-0.3 0.4 0.2 0.2 0.2 0.1 0.5-0.1 0.3-0.3 0.3-0.3 0.2-0.4 0-0.7 0.2-0.3 0.2-0.1 0.3 0.1 0.3 0.3 0.4 0.8 0.7 0.4 0.1 1.1 0.1 0.4 0.2 0.4 0.2 0.2 0.3 0.4 0.7 1.6-0.4 1.1-2.5 0.3-0.2 0.3-0.2 0.1 0.1 0.1 0.3 0 1.3 0.1 0.4-0.1 0.9 1.4 0.4 0.6-0.1 0.8-0.3 0.5-0.2 1.4-1.3 0.7-0.2 1.4 0 0.4-0.2 0.2-0.4 0-0.3 0-0.4-0.1-0.3-0.3-0.6-0.1-0.4 0.1-0.6-0.1-0.4-0.1-0.4-0.4-0.2-0.4 0-0.5 0.2-0.3 0.4-0.3 0.6-0.3 0.2-0.4 0-0.2-0.3-0.2-0.3 0-0.4-0.2-0.6 0.1-0.3 0.3-0.2 0-0.3 0.1-0.2 1.1-0.1 1.2-0.8 0.3-0.4-0.1-0.4-0.2-0.3-0.3-0.4-0.3-0.2-0.4-0.2-0.3 0.1-0.3 0.2-0.2 0.3-0.4 0.7-0.3 0.3-1 0.6-0.8 0.2-0.4 0-0.4-0.1-0.3-0.3-0.3-0.3-0.1-0.4 0-0.4 0-0.4 0.9-2.6 0.4-0.7 0-0.1 0.3-0.2 0.4-0.2 0.7-0.4 0.9-1 0.6-0.3 0.6-0.2 0.4-0.3 0.5-0.5 0.2-0.5 0-0.5 0-0.5 0.3-0.2 0.3-0.1 0.4-0.1 1.2 0.1 0.3 0 0.4-0.2 0.6-0.5 0.8-0.5 0.4-0.4 0.6-0.6 1-1.3 0.8-0.9 0.6-0.4 0.4 0 0.4 0.1 0.6 0.5 0.4 0.2 1.2 0.2 1.1 0.3 1.1 0.5 0.8 0.2 0.7-0.1 1.2 0.2 1.1-0.1 2.5-1 3.4-2.1 0.4-0.2 0.4-0.1 0.3 0.1 0.2 0.1 0.7 0.6 0.9 0.2 1.3 0 0.9 0.1 0.3 0.2 0.1 0.2 0 0.5-0.7 0.6-0.2 0.4-0.3 0.9 0.1 0.5 0.2 0.3 0.7 0.3 0.2 0.4 0 0.7-0.2 1 0 1.3-0.3 0.6-0.2 0.3-0.2 0.4 0.2 0.2 0.3 0.2 1.2 0.3 1.2 0.1 0.3 0.1 0.5-0.2 0.7-1.6 0.8-0.4 0.3 0.2 0.2 0.2 0 0.3 0 0.3 0.3 0.4 0.8 0.2 0.3 0.4 0.1 0.3-0.1 0.4-0.2 0.4-0.1 0.2-0.1 0-0.1 0.1-0.3 0-0.7 0.1-0.5 0 0 0.5 0.2 0.3 0.3 0.4 0.6 0.4 1.1 0.4 0.2 0.3 0.1 0.3-0.1 0.3-0.1 0.3-0.2 0.1-0.6 0.2-0.3 0-0.5 0.5-0.3 0.2-0.4 0.1-0.8 0-0.7 0.2-0.4 0-0.4-0.1-0.4-0.1-0.8-0.1-0.3-0.1-0.3-0.2-0.3-0.3-0.2-0.7-0.2-0.3-0.4-0.2-0.4-0.1-0.5-0.1-1.4 0.2-0.4 0.3-0.2 0.3-0.2 0.4-0.5 0.7-0.6 0.6-0.2 0.4-0.1 0.4-0.1 0.4 0.2 0.3 0.6 0.5 1.2 1.6 0.3 0.2 0.3 0.2 0.2-0.2 0.1-0.3-0.1-0.3 0.2-0.3 0.2-0.3 0.2-0.3 0.4-0.2 0.4-0.1 0.7 0 0.3-0.2 0.3-0.3 0.6-0.8 0.4-0.1 0.2 0.2 0.2 0.4-0.1 0.6-0.3 0.6-0.4 0.7-0.5 0.6-0.2 0.5-0.2 0.4 0 0.4 0.2 0.4 0.2 0.3 0.3 0.3 0.2 0.4-0.1 0.4-0.2 0.5 0.6-0.1 0.1 0.1 1.1-0.3 1.2-0.6 1.3 0.7 1.1 1.1 0.8 0.5 0.6 0.3 1 1.3 1.1 0.5 2.6 2.2 0.4 0.5 0.2 0.7-2.8 0.9-1.1-0.2-0.6-0.2-2.6-0.4-1.7 0.2-0.7 0.3-0.1 0.4 0.4 0.6 0.2 0.4 0 0.4-0.2 0.5-0.3 0.3-0.3 0.3-0.1 0.4-1.2 1.3-0.1 0.4 0.2 0.3 0.3 0 0.3-0.2 0.4 0 0.3 0 0.2 0.2 0.1 0.4 0 0.4-0.1 0.5-0.3 0.7-0.1 0.4 0.1 0.4 0.6 0.4 0.2 0.3 0.1 0.4 0.3 0.3 0.1 0.4 0 0.3-0.4 1.1 0 1.3 0 0.4 0.1 0.4 0 0.4-0.7 1.2-0.2 0.2-0.8 0.1-0.4 0.2-0.1 0.3 0.2 0.4 0.2 0.2 0.1 0.4 0 1 0.1 0.4 0.1 0.5 0.1 0.3 0.1 0.4 0 0.5 0 0.5-0.1 0.6-0.5 1.7-0.2 0.5-0.5 0.4 0 0.3 1.3 2 0.1 0.4 0.3 0.8 0.3 0.2 0.6 0.4 0.5 0.7 0.1 0.4 0.2 0.3 0.4 0.7 0.6 0.3 0.5 0 0.4 0 0.6 0 0.6-0.1 0.3-0.1 0.4 0 0.3 0.2 0.2 0.3 0.2 0.3 0.1 0.4 0.2 0.4 0.3 1.8 1.6 0.5 1.2-0.6 1.1-0.7 0.5-0.5 0.2-0.5 0-0.4-0.1-0.4 0-0.4 0.1-0.4 0.2-0.4 0.2-0.4 0.5-0.7 0.5-0.3 1-0.1 0.5 0.2 0.3 0.1 0.1 0.4 0.1 0.4 0 0.3-0.2 0.8-0.2 0.4-0.5 0.5-0.2 0.3-0.1 0.4-0.1 0.4-0.1 0.4-0.1 0.4 0.2 0.3 0.6 0.3 0.6 0 0.5 0.1 0.5 0.2 0.7 0.6 0.3 0.1 0.2 0 0.2-0.1 1.4-0.1 1.2 0.2 0.7 0 0-0.1 0.1-0.2 0.1-0.3 0.5-0.7 0.4-0.8 0.2-0.5 0.2-0.3 0.2-0.2 0.2-0.2 0.3-0.2 0.1-0.3 0.1-0.7 0-0.9 0.1-0.4 0.1-0.2 0.3-0.1 0.8 0.2 0.4-0.2 0.9-0.6 0.5-0.5 1.1-0.4 2.5-0.2 2.1 0.3 0.4 0.2 0.2 0.2 0.1 0.3 0.1 0.4 0 0.4 0.2 0.4 0.2 0.4 0.4 0.3 0.4 0 2.3-0.8 0.7-0.1 0.8 0.1 0.6 0.1 0.4 0.3 0.2 0.3 0 0.4-0.2 0.3-0.3 0.3-0.3 0.2-0.3 0.2 0 0.4 0 0.4 0.1 0.4 0.3 0.4 0.9 0.8 0.4 0.7 0.1 0.3 0 0.1 0 0.1-0.1 0-0.1 0.2-0.2 0.2-0.1 0.4 0.1 0.3 0.2 0.8 0.2 0.4 0.4 0.2 2.2 0.6 0.7 0 1 0.5 0.4 0.3 0.4 0.4 0.4 0.1 1-0.1 0.5-0.1 0.4-0.2 0.7-0.5 0.3-0.2 1.6-0.9 0.2 2.7 0.6 1.7 0.9 1.2 0 0.4-0.1 0.5-0.1 0.4-0.2 0.4-0.3 0.3-0.4 0.8-0.1 0.5 0.1 0.4 0.3 0.4 0.7 1 0.3 0.7 0.1 0.4 0.2 0.3 0.3 0.2 0.4 0.5-0.1 0.7-0.2 0.5-0.2 0.5-0.4 0.9-0.3 0.5-0.4 0.2-0.4 0-0.4 0.1-0.4 0.2-0.4 0.5-0.4 0.3-0.8 0.4-0.7 0.9-0.2 0.3-0.3 0.3-0.3 0.1-0.8-0.3-0.3-0.1-0.2 0-0.2 0-0.2 0.2-0.3 0.1-0.3 0.4-0.1 0.4 0 0.3 0.1 0.4 0.3 0.2 0.2 1.5-0.1 1.9 0.1 0.9 0.3 0.6 0.3 0.3 0.2 0.4 0.2 0.5 0.2 2.3-0.2 0.2-0.3 0.1-0.4 0.1-0.4 0.2-0.7 0.3-0.7 0.6-0.3 0.1-0.4 0-0.3-0.2-0.1-0.3 0-0.4 0.1-0.4 0-0.4-0.1-0.4-0.2-0.3-0.3-0.3-0.7-0.2-1.2-0.2-0.4 0.3-0.2 0.3-0.2 0.4 0 0.5 0 0.4-0.1 0.5-0.2 1.2-0.3 0.4-0.2 0.3-0.3 0.2-0.3 0.1-0.2 0.2-0.3 0.4-0.2 1-0.1 1.8 0.4 0.7 0.1 0.3 0.1 0.4 0.3 2 0.1 2 0.2 0.4 0.3 0.3 0.3 0.1 0.8 0.1 0.3 0 0.4 0.1 0.4 0.2 0.9 0.7 0.3 0.4 0 0.8-0.3 1.4 0 1 0.1 0.3 0 0.3-0.3 0.2-0.3-0.1-0.3-0.3-0.2-0.3-0.2-0.3-1-0.6-0.3-0.3-0.3-0.2-0.3-0.1-0.3 0.2-1.3 1.2-0.4 0.1-0.4 0.1-0.9-0.2-0.7 0.1-0.5 0.3-0.5 0.4-0.5 0.3-0.6 0.2-1 0.2-0.6-0.1-0.7-0.4-0.3-0.3-0.5-0.1-0.5 0.1-1.3 0.7-0.5 0-1.1-0.5-0.4-0.3-0.3-0.3-0.2-0.4-0.2-0.8-0.2-0.3-0.3-0.2-0.5-0.2-0.2-0.2-0.1-0.1-0.1-0.3-0.1-0.4-0.2-0.3-0.2-0.4-0.3-0.2-0.4 0.1-0.4 0.2-0.7 0.3-0.4 0-0.3-0.2-0.1-0.3 0.3-0.6 0-0.3-0.2-0.4-0.7-0.4-0.3-0.3 0.1-0.2 0.6-0.4 0.2-0.4 0.1-0.3-0.3-0.3-0.3 0-0.4 0-0.3 0.1-0.3-0.1-0.3-0.3-0.3-0.4-0.6-0.3-1-0.2-0.8-0.2-0.4-0.2-0.2-0.4-0.2-0.4-0.4-0.3-0.5-0.1-0.4 0-0.4 0.2-0.4 0.3-0.4 0.2-1 0.1-1.5-0.5-0.5-0.2-0.3-0.4-0.3-0.7-0.1-0.4-0.1-0.4-0.2-0.4-0.7-0.3-0.5-0.1-0.5 0.1-0.3 0.2-0.2 0.3-0.3 0.3-0.1 0.4-0.6 0.4-0.9 0.2-2.7 0.3-1.4 0-4.7-1.1-0.8 0.5-1.2 1.4-1.3 0-0.4 0.3-2 0.4-2-0.1-1.1-0.5-0.1 0.2 0.1 0.2 0.2 0.4 0.2 0.3 0 0.4-0.1 0.8-0.1 0.4-0.3 0.2-0.9 0.2-3.1 2.4-0.4 0.1-0.7-0.1-1.9 0.4-1.2 0.8-0.5 0.4-0.3 0.4-0.2 0.4-0.7 0.9-0.8 0.9-1.8 1.2-0.6 0.5-0.4 0.5-0.3 0.8-0.3 0.4-0.2 0.4-0.5 0.9-0.4 0.3-0.4 0.2-3.5 1.2-0.4 0.3-0.4 0.5-0.3 0.5-0.6 0.7-0.5 1-0.2 0.4 0 0.4 0.1 0.7 0 0.4-0.1 0.4-0.3 0.5-0.2 0.4 0 0.4-0.1 0.8-0.1 0.4-0.3 0.8-0.1 0.4-0.2 0.4-0.2 0.2-0.3 0.1-0.9 0.2-0.4 0-0.3-0.2-0.5-0.1-0.5 0-0.8 0.4-0.4 0.4-1.5 2.4-0.2 0.3-1.2 1.7-0.2 1 0 0.4-0.2 0.9 0 0.8-0.1 0.3-0.4 0.4-0.4 0.1-0.4 0.2-0.8 0.3-0.7 0.1-0.4-0.1-0.3-0.1-0.3-0.3-0.3-0.6-0.2-0.2-0.3 0-0.2 0.3 0 0.5 0.2 0.4 0.1 0.4 0 0.3 0 0.4-0.2 0.6-0.1 0.2-0.1 0.2-0.1 0.1-0.3 0.2-0.3 0.3-0.3 0.5 0 0.6 0 0.4 0 0.8 0 0.3 0.1 0.3-0.1 0.2 0 0.7 0.1 0.3 0 0.4 0 0.4-0.2 0.4-0.3 1.1 0.2 0.8-0.1 0.3-0.4 0.2-1.1 0.1-0.3 0.1-0.2 0-0.2 0-0.3-0.1-0.3-0.1-0.2 0-0.3 0-0.2 0.2-0.3 0.1-0.3 0.4-0.2 0.3-0.1 0.9 0 0.3-0.1 0.4-0.1 0.5-0.4 0.8-0.3 0.5-0.5 0.3-0.4 0.1-0.7 0.1-0.2-0.1-0.2-0.2-0.5-0.7-0.2-0.2-0.3 0-0.3 0.3 0 0.4 0.1 0.4 0.2 0.7 0.1 0.4-0.1 0.4-0.2 0.3-0.5 1.1-0.4 1.8-0.5 0.9-1.3 0.5-0.9 0.3-0.6 0-0.5-0.1-0.8-0.4-0.3-0.2-0.2-0.3-0.1-0.4-0.2-1.3-0.1-0.3-0.1-0.4 0.1-0.4-0.2-0.3-0.5-0.1-0.8 0.3-1.9 0.3-0.9 0-0.2 0.2-0.2 0.8-0.1 0.4-0.1 0.5-0.4 0.6-0.7 0.6-0.9 0.5-0.4 0.4-0.7 0.5-0.4 0.3-0.4 0.7-0.1 0.4-0.1 0.4-0.2 0.3-0.3 0.3-0.9 0.6-0.6 0.3-0.9 0.2-0.6-0.2-0.2-0.2-0.2-1.5-0.3-0.3-0.4 0.1-1.1 0.3-0.5 0.2-0.3 0.3-0.3 0.4-0.2 0.3-1.6 1.2-0.2 0.2-0.2 0.2-0.4 0.2-0.7 0.1-0.9 0-0.5-0.4-1.1-0.5-4-0.5-0.7-1.1-0.1-0.4-0.2-0.4-0.3-0.7-0.2-2.3 0.1-0.5 0.1-0.4 0.4-1 0-0.3-0.2-0.3-0.7 0.1-2 0.6-1.4 1.1-0.3 0.4-0.6 0.5-0.3 0.2-0.3 0.1-0.3 0-1.5 0.1-1.6-0.5-1-0.7-1-1.3-1.2-1.1-1.2-0.9-1.6-0.6-1.4 0.5-0.9-0.1-0.2-0.2-0.1-0.3 0.3-0.7 0.1-0.3 0-0.5-0.2-0.4-0.4-0.5-0.3-0.1-0.4 0.1-0.8 0.5-1.4 0.3-0.3 0.2-0.3 0.2-0.1 0.4-0.1 0.3-0.2 0.4-0.2 0.4-0.2 0.3-0.4 0.2-0.5-0.1-1.1-0.4-1.4-0.7-0.6-0.4-0.3-0.4-0.6-0.5-0.9-0.5-1.4-0.6-0.5-0.3-0.1-0.2 0.2-0.2 0.2-0.2 0.1-0.4 0-0.2 0.2-0.2 0.1-0.2 0-0.2 0.3-0.4 0-0.2-0.2-0.3-0.9-0.3-0.5-0.3-0.3-0.3 0-0.3-0.1-0.3-0.8-0.2-0.4-0.2-0.6-0.7-0.4-0.4-1.4-0.8-0.7-0.2-0.5 0.1-0.4 0.2-1.4 1-0.5 0.2-0.5 0.2-0.7 0.1-0.4 0.3-0.4 0.3-0.3 0.2-0.2 0.4-0.1 0.3-0.2 0.4-0.4 0.3-1.2 0.2-0.4 0.2-0.4 0.2-0.8 0.9-1.5 0.6-0.3 0.2-0.8 0.3-0.4 0.2-1.2 1-0.3 0.3-0.2 0.3 0 0.4 0.2 0.7 0 0.4-0.1 0.4-0.2 0.2-0.4 0.3-0.6 0.3-2.8 0.5-0.5 0.2-0.4 0.2-0.5 0.2-0.4 0-0.7-0.5-0.4 0.1-1.3 0.7-0.8-0.1-0.3-0.1-0.3 0-0.4 0.2-0.4 0-0.4-0.1-0.5-0.2-0.3-0.3-0.8-0.8-0.5-0.4z m105-22l-0.9-0.2-0.8 0.8-0.1 1.3 2.5-0.2-0.7-1.7z m66.1-112.7l0.6 0.1 0.3-0.1 0.4-0.1 0.3 0 0.2 0.1 0.1 0.3 0.2 0.2 0.4 0.3 0.3 0 0.5 0 0.1 0.2-0.1 0.4-0.1 0.3 0 0.2-0.4 0.8-0.2 0.2-0.2 0.2-0.5 0.1-0.2 0.2-0.1 0.2 0 0.3 0.1 0.2 0.2 0.2 0.2 0.2 0.2 0.2 0.4 0.6 0.3 0.2 0.2 0.1 0.3-0.1 0.2-0.2 0.4-0.4 0.2-0.2 0.3 0 0.1 0.1 0.2 0.3 0 0.4 0.2 0.5 0 0.7-0.1 0.2-0.4 0.2-0.5 0.1-0.2-0.1-0.1-0.3-0.2-0.1-0.2 0-3.2-0.1-2-0.9-2.7-0.6-2.5-1.2-1.1-0.8-1-1-0.2-0.5 0.1-0.3 0.6-0.7 0.8-1.3 0.2-0.3 0.5-0.1 2.5-0.1 1.1 0.1 0.5 0.1 0.6 0.3 2.4 0.7z" id="ESCL" name="Castilla y León">
  </path>
  <path d="M786.3 207.7l1.1 0.2 0.8-0.2 0.2 0.2 0.1 0.4 0.2 0.4 0.5 0.5 0.9 0.2 0.5 0.4 0.4 0.4-0.1 0.3-0.2 0.3-0.2 0.5 0 0.5 0.3 0.7 0.4 0.4 0.9 0.5 2.9 1 1.2 0.7 0.5 0.4 0.3 0.3 0 0.4 0.1 0.4 0.3 0.5 0.4 0.2 2.5 1.1 0.2 0.2-0.3 0.6-0.6 1.6-0.7 1-0.7 0.8-0.6 0.9-0.2 1.3-1.1 1.1-2.8 5.5-0.5 0.5-1 0.9-0.6 0.6-1.4 1.9-2.4 2.1-2.4 4.9-1.1 1.2-2.1 1.2-1 1.6-1.8 3.7-1 1.6-2.5 2.8-4.2 7-0.2 0.6-0.1 1.2-0.3 0.9-0.4 0.7-1 1-0.6 0.8-0.4 0.9-0.3 0.9-0.2 0.7-1.3 1.8-0.4 0.9-0.3 1.9 0.1 2.6 0.3 2.2 0.8 3.5 2.5 5.6 0.4 0.8 0.5 0.9-0.5 0.4-0.5 0.4 0.2 1 0.4 1.9 0.7 1.7 1 1.9 1.1 2.1 1.5 2.6 0.6 0.8 1.5 1.2 1.5 1.6 0.8 0.6 1.1 0.3 1.9 0.2 1.9 0.6 1.8 1 1.2 1.4-0.1 0.1-0.5 0.3 0.5 0.2 0.3 0.3 1.1 0.9 0.4-0.1 0.3 0.6 0 0.9-0.3 0.4-0.7 0-0.7 0.2-0.6 0.3-0.6 0.5-0.5 1.1 0 0.2-0.2 0.1-0.8 0.1-0.3 0.1-0.5 0.6-0.5 0.2-0.4 0.4-0.4 0.8 0.3 0.7-0.8-0.2-0.6 0.1-0.5 0.3-0.7 0.1-1.3 0.1-0.5 0.1-0.6 0.5-0.5 0.9 0 0.7 0.1 0.7-0.3 0.8-0.6 0.6-0.6 0.3-1.7 0-1.8 0.4-1 0.4-1.3 0.9-3.9 1.6-0.6 0.5-0.2 0.6-0.3 0.2-1.5 1.6-0.5 0.8-0.1 1 0 0.5-0.2 0.2-1.3 0.1-0.5 0.2-0.5 0.4-0.1 0.8-1.5-0.1-0.3 2.1 0.6 4.7-0.5 0.6-0.7 0.1-1.4-0.1-0.9 0.3-0.8 0.6-0.6 0.8-0.4 0.8-0.2 0.7-0.2 0.8-0.1 2.2-0.2 3.4-0.1 0.9-0.4 0.5-1 0.4-0.8 0.8-0.4 0.7-1.6 4.1-0.1 0.8 0 0.1-0.8 0.1-0.3 0-0.1-0.1-0.2-0.3-0.3-0.2-0.4-0.2-0.7-0.2-0.3-0.2-1.7-1.8-0.4-0.3-1.1-1.3-0.2-0.4-0.5-1-0.6-0.9-0.2-0.3-0.5-0.8-0.6-1.4-0.9-1.3-0.1-0.2-0.3-0.3-0.3-0.3-0.2-0.5-0.2-1-0.1-1 0.2-0.9 0.2-0.6 1.2-1.8 0.3-0.7 0.1-0.4 0.3-1.6 0.1-0.4 0.2-0.9 0-0.6-0.6-2.1-0.4-0.7-0.2-0.2-0.5-0.3-1.5-0.5-0.8-0.1-0.4-0.2-0.1-0.5-0.1-0.8-0.1-2.1 0.1-0.8 0.3-0.5 0.3-0.4 1.5-1.4 0.3-0.4 0.2-0.3 0.1-0.4-0.1-1.2 0.1-0.8 0.4-1.5 0-1.3-0.6-3.3 0.6-0.2 0.2 0 1 0.1 0.8-0.1 0.7-0.3 1.3-0.9 0.1-0.2 0-0.2-0.2-0.4-0.3-0.3-0.4-0.6-0.3-0.3-0.3-0.6-0.3-0.6-0.2-1 0-0.4 0.2-0.4 0.4-0.1 0.3-0.3 0.5-0.3 0-0.9 0.2-0.2 0.1-0.4 0-0.2-0.6-1.6 0-0.4 0.2-0.8 0-0.4-0.2-0.5-1.3-2.3-0.5-0.3-0.4-0.2-0.4-0.1-0.3 0.1-0.2 0-0.6 0.5-0.8 0.1-1.1 0-1.1 0.2-1.1 0.1-0.6-0.3-0.7-0.5-3.9-4.7-0.3-0.5-0.2-0.8 0-0.6 0.1-0.4 0.1-0.4 0-0.3 0.2-0.4 0.4-0.7 0.2-0.4 0.2-0.8 0.2-0.4 0.5-0.6 0.2-0.3 0.3-0.3 0.3-0.8 0.1-0.3 0.2-0.5 0.1-0.3 0.1-0.3 0.1-0.4 0.1-0.8 0-0.3 0-0.4-0.1-0.4 0.1-0.9 0.1-0.3 0.2-0.4-0.1-0.4-0.2-0.5-5.4-1.7-0.4 0-0.3 0-0.5-0.2-1.8-1.2-0.9-0.3-0.3 0-0.3 0.1-0.2 0.1-0.3-0.1-0.3 0.1-0.2 0-0.1-0.4 0-0.3-0.1-0.3 0-0.3-0.2-0.2-0.3-0.1-0.1-0.2-0.1-0.2-0.3-0.1-0.2-0.2-0.1-0.3-0.1-0.2-0.6-0.1-0.2-0.5-0.2-0.1-0.2-0.2-0.1-0.2 0-0.3 0-0.3 0.2-0.4 0.3-0.8-0.1-0.6 0.1-0.2 0.2-0.2 0.1-0.1 0-0.1 0-0.1-0.1 0-0.1-0.2 0-0.5 0-0.2 0-0.3 0.1-0.2 0.1-0.3 0-0.1 0-0.1-0.1-0.2-0.1-0.1 0-0.2 0-0.2 0-0.2 0.2-0.5 0.2-0.2 0.3-0.2 0.5-0.4 0.4-0.6 1.5-2.9 0.2-0.3 0.9-1 0.8-0.6 0.3-0.1 0.4-0.1 0.3 0.1 0.7 0.3 0.4 0.2 0.3 0.1 0.8 0 0.3-0.1 0.4-0.1 0.3-0.3 0.2-0.3 0.2-0.4 0-0.5-0.1-0.8-0.1-0.4 0-0.4 0.2-0.5 0.9-1.7 0.4-0.6 0.3-0.4 0.3-0.9 0.7-2.7 0.1-0.8 0-0.8 0.1-0.9 0-0.4-0.1-0.3-0.2-0.5-0.1-0.2 0.1-0.3 0.3-0.4 1.6-0.7 0.5-0.4 0.6 0.4 1-0.3 0.3 0 0.8-0.3 1-0.2 1.4 0.1 0.7-0.1 0.5 0.1 0.7 0.2 2 0.9 0.5 0.7 0.2 0.5-0.1 0.4-0.1 0.3-0.1 0.4 0 0.4 0.1 0.3 0.2 0.3 0.1 0.3 0 0.4-0.1 0.4 0.1 0.4 0.2 0.3 0.4 0.3 0.4 0.1 0.7 0 0.5-0.2 2.3-1.1-0.3-0.5-0.4-0.6-0.4-0.2-0.2-0.2-0.4-0.7-0.1-0.8 0-0.3-0.2-0.3 0.1-0.4 0.1-0.8 0.2-0.3 0.2-0.4 1-0.5 0.4-0.1 0.5-0.4 0.1 0 0.4-0.5 0.2-0.5 0.1-0.8 0.2-0.3 0.3-0.1 0.3 0.1 0.7 0 1.5-0.2 2.8-1.5 0.1-0.3-0.2-0.7-0.1-0.4 0.1-0.4 0.2-0.4 0.6-0.7 0.6-0.4 0.3-0.5 0.2-0.5 0.1-0.8 0.2-0.4 0.3-0.5 0.1-0.8 0-0.3 0.1-0.4 0-0.7 0-0.4 0.3-0.3 0.4 0 0.3 0.2 0.4 0.2 0.6 0.2 0.2 0 0.3-0.1 0.4-0.1 0.3-0.1 0.8 0 0.4-0.1 1.4-0.7 0.4-0.3 0.2-0.4 0.1-0.6 0-0.4-0.1-0.4 0.1-0.3 0.8-0.7 0.5-0.5 0.7-1 0.3-0.4 1.6-1.1 0.3-0.3 0-0.6-0.1-0.4-0.3-0.3-0.5-0.7-0.2-0.2-0.7-0.5-0.2-0.3-0.1-0.4-0.1-0.4 0.3-0.4 0.4-0.4 1.8-0.7 0.2-0.2 0-0.4-0.1-0.3-0.2-0.6 0-0.1-0.6-0.4-0.1-0.3 0-0.3 0.1-0.4 0.1-0.3 0-0.8 0-0.4-0.1-0.4-0.1-0.7 0-0.4 0.1-0.4 0.1-0.8-0.3-0.1-0.3 0-0.7 0.2-0.3 0-0.4-0.1-0.3-0.2-0.3-0.1-0.4-0.1-0.3-0.2-0.1-0.3 0-0.8 0-0.4-0.1-0.4 0.1-0.4 0.3-0.3 0.5-0.3 0.5-0.1 0.6 0.1 0.7 0.5 0.3 0 0.5-0.3 0.3-0.3 2.1-1.1 0.2-0.3 0-0.4 0-0.4 0-0.8 0.2-0.8 0.2-0.3 0.2-0.4 0.8-0.9 0.4-0.2 0.7 0 0.6 0.2 0.4 0.3 0.3 0.3 0.6 0.6 1.8 1.2 1.1 0.2 2-0.2 0.7 0.2 0.2 0.3 0.2 0.4 0 0.4 0 0.3 0.3 0.2 0.4 0 0.4-0.3 0.3-0.3 0.4-0.3 0.3-0.2 0.5-0.1 0.6-0.1 1.5-0.1 1.1-0.4z m-65.5 30.8l2.2 0.5 1.2 0.1 0.9-0.2 0.7-0.4 0.2-0.3 0.1-0.4-0.2-0.8 0.1-0.5 0.3-0.4 0.5-0.4 0.2 0.1 0.2 0.2 0.2 0.8 0.4 0.7 0.2 0.3 0.2 0.4 0.3 0.2 0.3 0.2 0.2 0.2 0 0.2 0 0.3 0.2 0.3 0.3 0.3 0.8 0.4 2.5 0.3 1.1 0.7 1.3 1.1 0.5 0.6 0.1 0.3 0.1 0.4-0.1 0.3-0.3 0.4-0.3 0.2-1.9 1-0.9 0.2-0.7 0.2-0.3 0.1-0.8 0.1-0.7 0.1-0.4 0.1-0.4 0.2-0.6-0.1-1.1-0.4-2.6-0.4-0.4 0-0.4-0.1-0.3-0.3-1.2-3.4-0.1-0.6-0.1-0.4-0.2-0.3-1-0.5-0.2-0.3-0.2-0.3 0.1-1z" id="ESVC" name="Comunidad Valenciana">
  </path>
  <path d="M738.1 316.7l0.6 3.3 0 1.3-0.4 1.5-0.1 0.8 0.1 1.2-0.1 0.4-0.2 0.3-0.3 0.4-1.5 1.4-0.3 0.4-0.3 0.5-0.1 0.8 0.1 2.1 0.1 0.8 0.1 0.5 0.4 0.2 0.8 0.1 1.5 0.5 0.5 0.3 0.2 0.2 0.4 0.7 0.6 2.1 0 0.6-0.2 0.9-0.1 0.4-0.3 1.6-0.1 0.4-0.3 0.7-1.2 1.8-0.2 0.6-0.2 0.9 0.1 1 0.2 1 0.2 0.5 0.3 0.3 0.3 0.3 0.1 0.2 0.9 1.3 0.6 1.4 0.5 0.8 0.2 0.3 0.6 0.9 0.5 1 0.2 0.4 1.1 1.3 0.4 0.3 1.7 1.8 0.3 0.2 0.7 0.2 0.4 0.2 0.3 0.2 0.2 0.3 0.1 0.1 0.3 0 0.8-0.1 0.2 2-0.2 0.5-1.1-1.3-1 2.7-0.5 0.4-0.9 0.3-0.3 0.7 0.1 0.9 1.3 2.4 0.4 0.5 1.3 0.9 1 0.4 0.8 0.1 0.3-0.6 0.7 0.5 0.3 0.5-0.1 0.7-0.6 0.4-0.4 0.4-0.3 0.2-0.4 0-0.3-0.3-0.4 0.3-1.1 0.4-0.7 0.1-1.1 0.7-1.6 0-0.5 0.1-0.5 0.2-1 0.7-0.4-0.3-1.6-0.7-1.3-0.3-2.6-0.1-0.7 0.1-0.6 0.3-0.5 0.3-0.2 0.5 0.1 0.5 0.5 0.9-1.3-0.3-1.2-0.3-0.3-0.6-0.2-0.4-0.8-0.1-1.2-0.5-0.6-0.2-0.6 0.6-0.1 0.5-1.2 0-1.3-0.2-1.2 0.6-0.7 0.4-1.8 1.8-0.6 0.4-0.8 0.2-0.3 0.1-0.3 0.3-0.3 0.2-0.1 0.3-0.1 0.2-0.4 1.7-0.1 0.3-0.3 0.3-0.3-0.1-0.2-0.1-0.3-0.1-0.3 0.3-0.8 0.7-0.4 0.1-0.6 0.1-2 0.9-1 0.6-3.6-2.9-0.4-0.2-2.1-0.4-0.2 0-0.2 0.2 0 0.2-0.1 0.2-0.2 0-0.3-0.2-0.3-0.2-0.5-0.5-6.1-9.3-0.3-0.5-0.2-0.3-0.1-0.5-0.1-0.9 0.1-0.4 0-0.8 0-0.4 0.2-0.5 0.1-0.7 0-0.3-0.1-0.5-0.2-1.9 0.1-0.3 0.3-0.8 0-0.3 0-0.9 0.1-0.4 0.2-0.3 0.4-0.6 0-0.3-0.3-0.3-3.8-0.5-1.4-0.7-0.5-0.2-1.9 0.1-1.5-1-0.9-0.5-1.2-1.4-0.8-1.3-0.6-1 0-0.1-0.3-0.3-1.4-1.1 0.6-1.8 0.2-0.4 1.5-1.7 1.2-1.7 1.2-2.4 0.4-0.7 1.2-1.1 0.5-0.3 0.4-0.2 0.8-0.1 0.5-0.3 1.7-1.6 1.1-1.2 0.6-0.4 0.5-0.1 0.3 0 0.3 0.2 0.7 0.7 0.2 0.1 0.4 0.1 1-0.4 1.3-0.3 0.7-0.2 1-0.5 1.5-1.2 2.1-1.3 0.1-0.3 0-0.3 0.1-0.1 0.2 0 0.5-0.1 0.3-0.3 0.2-0.1 0.4-0.2 0.3 0 0.3 0.1 0.5 0.3 0.2 0.1 0.7-0.1 0.2 0 0.2 0.2 0.2 0.2 0.2 0.2 0 0.2 0 0.3-0.1 0.3 0 0.2 0 0.3 0.1 0.3 0.2 0.2 0.1 0.2 0.3 0.2 0.5 0.2 0.3 0.2 0.4 0 0.4 0 2.4-0.8 3-2.4 0.3-0.4 0.2-0.4 0.1-0.3 0-0.5 0-0.4-0.2-1.2 0-0.9-0.1-1.6-0.1-0.8-0.2-0.7-0.2-0.3-0.1-0.2 0-0.3 0-0.3 0-0.3 0.2-0.3 0.4-0.9 0.4-0.3 0.5-0.4 0.2-0.3 0.2-0.4 0.1-0.7-0.1-0.4 0.2-0.8 0.6-1.5 1.3-1.5 0.7-0.6 0.5-0.3 0.4 0.1 0.2 0.2 0.2 0.3 0.3 0.2 0.4 0 2.3-1.3 1-1 0.4-0.3 0.4-0.2 2.4-0.7 0.4 0.1 1.5 0.5 0.3 0.2 0.2 0.2 0.1 0.4 0 0.4 0.1 0.3 0.2 0.4 1.1 1 2.3 1.7z m11.6 46.6l-0.3 1.1 0 1.2 0.6 1.9-0.8-0.9-0.2-1.5 0-1.7-0.1-1.5 0.2 0 0 0.1 0 0.1 0.1 0.2 0.1 0.2 0.2 0.5 0.2 0.3z" id="ESMC" name="Murcia">
  </path>
  <path d="M498.6 340.2l0.6-0.5 5.5 1.8 0.2 0.4 0.1 0.4-0.2 0.3-0.2 0.3-0.2 0.4-0.2 0.6-0.1 0.4 0.1 0.3 0.4 0.2 0.5 0.2 0.5 0.2 1.1 0.4 1.9 0 1-0.1 1.3 0.1 0.6 0.1 0.5 0.2 0.6 0.5 0.8 1.1 0.1 0.3 0.1 0.4-0.1 0.4 0.1 0.3 0.3 0.3 1.9 0.1 1 0.3 0.6 0 0.1-0.2 0.1-0.3 0.2-0.2 0.6-0.5 0.2-0.3 0.2-0.3 0.3-0.2 0.3-0.1 0.4 0 0.5 0.1 1.6 1.2 0.3 0.5 0.2 0.4 0 0.4 0.2 0.3 1 0.3 5.3 2.2 0.7 0.6 0.5-0.5 1.3-1 1-0.5 3-0.6 0.8-0.1 1.7-0.3 0.6-0.2 0.4-0.3 0.4-0.5 0.2-0.4 0.1-0.3 0-0.3 0.2-0.3 0.7-0.9 0.1-0.3 0-0.4-0.2-0.3-0.2-0.3-0.1-0.4 0-0.3 0.1-0.4 0.2-0.4 0.2-0.3 0.4-0.4 1-0.6 0.3-0.2 0.3-0.3 0.3-0.6 0.3-0.4 0.3-0.2 1.3-0.5 2.7-0.4 0.5 0.1 0.5 0.5 0.7 0.7 0.1 0.3 0.1 0.3-0.2 0.3-0.6 0.4-0.4 0.1-0.3 0.2-0.2 0.2 0 0.4 0 0.3 0.2 1.1 0.3 0.3 0.4 0 0.7-0.1 0.9-0.6 0.9-0.9 0.3-0.3 0.8-0.5 1.7 0.1 1.7-1.4 0.2-0.3 0-0.3 0-0.4 0.2-0.7 0.1-0.4 0.3-0.3 0.1-0.7 0-0.4-0.1-0.4 0-0.4-0.1-0.4 0-0.3 0-0.4-0.1-0.2-0.3-0.7-0.2-0.3-0.1-0.3-0.1-0.2-0.1-0.6-0.1-0.2-0.2-0.3-0.1-0.2-0.3-0.2-0.1-0.2-0.1-0.2 0-0.2 0-0.5 0.1-0.3 0.1-0.6 0-0.2 0-0.3-0.1-0.2-0.4-0.4-0.1-0.3 0-0.2 0-0.3 0.3-1.1 0.3-0.3 0.5-0.5 1.8-1 0.6-0.2 0.3-0.2 0.5-0.7 0.2-0.4 0.6-0.5 1.2-0.8 0.3-0.5 0.2-0.4 0-0.3 0.1-0.3 0.2-0.3 0.2-0.3 0.4-0.5 0.2-0.3 0.7-0.7 0.5-0.1 0.9 0 0.5 0.2 0.2-0.1 0.2 0 0.1-0.3 0-0.2 0.1-0.2 0.1-0.3 0.2-0.2 0.2-0.2 1.3-1.2 1.9-1.2 1.2-0.4 0.1-0.3 0.1-0.2 0.2-0.4 0.1-0.5-0.1-0.4-0.1-0.4 0.1-0.3 0.4-0.2 3.2-0.1 0.7-0.3 1.1-0.1 2.3 1.7 1.3 0.6 0.9 0 0.5-0.1 1.2 0 0.4 0.2 0.1 0.4 0.1 0.8 0 0.4 0.1 0.8 0.2 0.5 0.5 0.5 0.8 0.6 0.6 0.2 0.5 0.1 0.8 0.1 0.5 0.1 1.7 0.8 0.5 0.3 0.3 0.4 0.1 0.3 0.8 0.5 0.7 0.2 1.4 1.2 0.4 0.4 0.2 0.5 0.3 0.4 0.3 0.3 0.4 0.1 0.4 0 0.5 0.2 0.5 0.4 0.6 0.3 1.1 0.9 1.1 1.2 0.8 1.1 0.4 0.5 0.4 0.2 1.8 0.9 1 0.3 0.6 0.1 2.6 1.1 0.4 0.1 0.6-0.1 0.1-1.9 0.1-0.4 0.3-0.3 0.3-0.1 0.9 0 0.8 0.1 1.5 0.5 11.5 0.5 1.3-0.2 0.8-0.4 0.4-0.8 0.3-0.3 0.6-0.5 0.6-0.1 0.6-0.1 0.5 0.1 0.3 0.2 0.7 0.2 0.4-0.1 0.2-0.1 0.4 0 1 0.4 0.8 0.1 2.1 0.6 0.5-0.1 0.5-0.1 0.3-0.2 0.1-0.3 0.2-1.1 0.2-0.4 0.4-0.3 0.5-0.1 0.4 0.1 0.2 0.3 0.2 0.3 0 0.4 0.1 0.3 0.2 0.4 0.3 0.1 1.3 0.4 0.7 0.1 0.5 0 0.5-0.1 1-0.4 1-0.6 0.5-0.7 0.2-0.3 0.1-0.3 0.1-0.4 0.1-0.4 0.3-0.3 0.7-0.4 0.9-0.1 0.6 0 0.5 0.2 0.7 0.3 0.8 0.3 0.7 0.1 2.9 0.2 1.3 0.4 0.6 0 0.4-0.2 0.6-0.6 1.1-0.7 0.4 0 0.3 0.2 0.3 0.3 0.9 1.3 0.6 0.7 0.3 0.2 0.2-0.2 0.1-0.3 0-0.6 0.3-0.3 0.8-0.6 0.6-0.3 0.6-0.1 0.5 0 0.5 0.1 0.4 0.1 0.3 0.3 0.4 0.3 0.2 0 0.2-0.1 0.1-0.1 0.1-0.1 0.2-0.1 0.1 0 0-0.1 0.1-0.2 0.4-0.3 0.2-0.2 1.2-0.6 0.2-0.1 0.1-0.1 0.1 0 0.6-0.4 0.8-0.7 0.1-0.2 0.5-0.4 1.5 0.9 1.8 0.8 0.7-0.3 0.6-0.2 0.6-0.1 1.2 0.1 0.6 0.2 0.4 0.2 0.1 0.1 0 0.2-0.2 0.6 0.1 0.7 0.1 0.4 0 0.7-0.1 0.4 0 0.4 0.1 0.3 0.1 0.3 0.4 0.4 2.8 0.8 0.1 0.3-0.1 0.7 0.1 0.4 0 0.4 0.2 0.4 0.1 0.7 0 0.8 0 0.5 0.1 0.5 0.2 0.5 1.3 0.8 0.3 0.5 0.1 0.4 0 0.3-0.1 0.3 0 0.4-0.1 0.3-0.1 0.3-0.2 0.3-0.2 0.1-0.1 0.2 0 0.2 0.2 0.7 0.1 0.4-0.1 0.4-2.5 3.3-0.4 0.7-0.2 0.3-0.6 0.6-0.5 0.7 3.3 1.6 4.3 1.2 0.4 0.1 0.5-0.2 1.4 1.1 0.3 0.3 0 0.1 0.6 1 0.8 1.3 1.2 1.4 0.9 0.5 1.5 1 1.9-0.1 0.5 0.2 1.4 0.7 3.8 0.5 0.3 0.3 0 0.3-0.4 0.6-0.2 0.3-0.1 0.4 0 0.9 0 0.3-0.3 0.8-0.1 0.3 0.2 1.9 0.1 0.5 0 0.3-0.1 0.7-0.2 0.5 0 0.4 0 0.8-0.1 0.4 0.1 0.9 0.1 0.5 0.2 0.3 0.3 0.5 6.1 9.3 0.5 0.5 0.3 0.2 0.3 0.2 0.2 0 0.1-0.2 0-0.2 0.2-0.2 0.2 0 2.1 0.4 0.4 0.2 3.6 2.9-0.1 0.6-0.3 0.4-0.8-0.1-0.3 0.4-0.3 0.9-0.5 1.1-1.2 1.7-2.4 2.4-1 1.4-0.7 2.1-0.3 1.8-0.5 1.3-0.2 1.4-1.2 3.1-0.9 1.4 0 0.7 0.1 0.4 0.2 0.4 0 0.4 0 0.5-0.2 0.3-0.3 0.1-0.9 0-0.3 0.2-0.5 0.5-1.4 0.9-0.6 0.7-0.4 2.1-0.5 0.6-0.6 0.5-0.6 0.7-0.2 0.4-0.2 1-0.2 0.4-0.4 0.2-0.4 0.1-0.4 0.2-0.4 0.9-0.7 0.5-0.8 0.4-0.8 0.1-1.5-0.5-1.1-1.2-1-1.3-1.1-1.2-1.4-0.9-0.8-0.3-1-0.1-0.7 0.1-1.3 0.7-0.8 0.2-0.4-0.1-1.1-0.5-0.5-0.1-3.2 0.6-0.7 0.4-0.8 1.9-0.8 2.2-1 1.1-0.2 0.2-0.5 0.4-1 0.5-1.4 0.2-0.7-0.3-0.8 0.4-1.1-0.8-0.8-0.6-0.7-0.3-0.4 0.1-0.3 0.4-0.4 0.2-0.4-0.3-1.1-1.5-1.2-0.8-0.7 0-2.2 0.7-3.6-0.6-2.1 0.1-1.2 0.1-2.9-0.5-4.1 0.5-0.6 0.4-0.5 0.6-0.8 0.6-1.5 0.9-2.5 0-1.6-1.3-0.8 0.1-0.6 0.3-1.4-0.7-0.6-0.8-1.3 0.1-1.3 0.1-0.6 0.5-2.1 0.2-1.8-0.5-1.1-0.4-1.4-0.5-2.1 0.5-2.9 0.8-3.8-1.1-1 0.3-1.2 0.9-3.5 0.5-1.1 0.1-7.2-0.5-0.7 0.2-0.5 0.4-1.2 2-0.2 0.4-0.6 0.6-0.4 0.8-0.2 0.8-1.1 2-2.6 0.3-1.1 2.2-1.4 0.9-0.4 0.2-0.8 0.4-1.7 0.4-1.7-0.1-4.7-0.6-0.9 0-0.4 0.1-0.4 0.4-2.9 2-2.8 0.2-1.8 1.2-0.5 0.2-1.5 0.1-0.7 0.3-0.5 0.3-0.5 0.7-1.1 2 0 0.4-0.7 1.9-0.4 0.7-0.2 0.2-0.3 0.3-0.3 0.2-0.7 0.3 0.1 0.4 0.1 0.4-0.4 0.7-1.3 2.5-0.2 0.5-0.2 2.3-0.8 0-0.3-1.1-0.7-0.4-0.9-0.4-0.8 0-0.2 0.5-0.3 0.4-0.2 0.6 0 0.7 0.3 0.7-0.2 0.4 0.1 0.7 0.2 0.5 0.1 0.4-0.1 0.6-0.3 0.3-0.2 0.3-0.9 0.3-4 1.5-0.6 0.4-1.3 0.3-0.7-1.5-1.7-0.9-0.7-0.6-0.9 0.4-0.9-0.3-0.8-0.5-1.7-0.5-0.6-0.6-0.9-1.2-2.6-2.6-0.8-0.5-0.9 0-1.8 0.3-2.1-0.6-1.1-1.4-0.8-1.7-0.9-1.5-2.2-1.2-0.2-0.7-0.1-0.8-0.3-0.9-0.4-0.9-1.4-1.6-0.9-2.2-0.6-1.5-0.9-1.7-0.9-0.8-0.4-0.4 0.5-0.2 0.4 0.1 1.3 1.1 0.3 0.5-0.2 0.4 0.3 0.5 0.6 0.7 0.5-0.1 0.3-0.3 0.5-0.7 0.8-1-0.3 0-0.8 0.3-0.7-0.1-0.3-0.8 0.2-1.5-0.3-1-2-1.8-0.4-0.3-2.7-0.1-0.8-0.2-0.6-0.7-0.5-2-0.4-0.9-0.6-1-0.2-0.9 0.2-0.9 0.7-0.8 0.8-0.4 1.5-0.6 0.5-0.4 0.4-1.2-0.3-2.1 0.2-1.2 1.4-1.2 2.9 0.2 0.3 0.1 1.2-1.6-0.8 0.6-1 0.4-1 0-0.8-0.6-1.7 0.6-0.5 0.4-0.3 0.2-0.3 1.1 0.3 3-0.3 0.6-1.4 0-1.1-1.5-1.4-3.3-0.9-1.6-1.1-1.2-9.9-7.2-1.1-0.6-0.9-0.2-0.7-0.3-1.7-1.4-0.8-0.4-0.8-0.4-0.7-1.2-0.3-1.3 0.3-0.6 0.5-0.4 1.4-2.1 0.4-0.9-2 2.3-1.1 0.8-1.3 0 0 0.3 0.9 1.4 0.4 0.8 0.1 0.6-0.6 0.1-3.5-1.8-1.3-0.4-1.6-0.5-1.1 0.4 1.2 0.2 0.5 0.3-9.8 0.2-0.6 0.3-0.8 0.7-0.7 0.1-0.7-0.3-0.7-0.3-0.6-2.3-0.2-1.1 0.3-0.8-0.4-1.7-0.3-4-0.7-1.6 0.1-0.6-0.1-1.1-0.3-1.2-0.3-1-0.2-0.3-0.7-0.6-0.3-0.3-0.3-0.5-0.1-0.1 0-0.2-0.1-0.4-0.2-0.7-0.1 0-0.1 0 0-0.6 0.1-0.2 0.4-0.5 0.1-0.2 0.1-0.3 0-0.2-0.1-0.3 0.4-0.3 1-1.1 0.3-0.4 0.2-0.8 0.4-2.5 0.5-1.5 0.7-1 3.8-3.2 1.1-2 0.4-1.7 0.9-2.4 0.2-0.9 0-0.5-0.1-0.5 0-0.4 0.2-0.3 1.3-0.3 0.4-0.3 0.6 0.1 0.5 0.1 0.5 0.1 0.5-0.3 0.5-0.1 0.3-0.2 0.4-0.6 0.4-1.1 0.4-0.4 0.7 0.1 2.3 1 1-0.2 0.3-1.2 0.4-0.6 0.4-1.6 0.7-1.6 0.6-1.7 0.3-0.7 0.4-1.5-0.1-0.1z" id="ESAN" name="Andalucía">
  </path>
  <path d="M503.5 89.3l-0.2-2.1-0.1-0.6-0.4-0.5-0.9-0.9-0.4-0.2-0.7 0.1-0.4-0.1-0.3-0.1-0.4-0.3-0.1-0.2-0.8-1.2-0.3 0-0.1 0.1 0 1 0 0.2-0.1 0.1 0 0.1-0.2 0.1-0.2 0.1-0.4-0.2-0.3-0.6-0.2-0.6 0.1-0.6 0.3-0.4 0.3-0.1 0.3-0.2 0.3-0.4 0.1-0.5 0.1-0.4 0.1-0.3 0.2-0.3 0.2-0.1 0.3-0.1 0.4 0 0.4 0 1.4-0.6 0.4-0.2 1.5-1.4 0.1-0.5-0.2-0.6-0.6-1-0.4-0.6-0.3-0.3-0.3 0-0.3 0.2-0.2 0.4 0 0.3-0.2 0.3-0.3 0.2-0.4 0.2-0.8 0.4-0.6 0.3-0.4-0.1-0.3-0.2-0.2-0.3-0.3-0.4-0.1-0.4 0.1-0.6 0.2-0.8 0.1-0.3 0-0.3-0.3-0.2-0.3-0.1-0.7-0.3-0.4-0.6-0.3-0.1-0.3 0-0.9-0.8-0.3-0.3-0.2-0.4-0.3-0.5-0.3-2.4-0.3-0.3-0.3-0.2-0.4-0.1-0.5-0.6-0.3-0.4-0.2-0.6-0.2-0.6 0-0.5 0-0.5 0-0.4-0.2-0.3-0.2-0.2-0.7 0-0.6-0.2-0.1-0.3-0.1-0.3 0.1-1.1 0.1-0.4 0.3-0.3 0.5-0.1 0.4 0 0.4 0.1 0.3 0 0.3 0 0.3-0.2 0.4-0.4 0.6-0.9 1.2-1.1 0.1-0.1 0.1-0.4 0.1 0.3 0.2 0 0.2-0.9 0.2-0.9 0.2-0.8 0.6-0.4 0.3-1.3 2.3-0.5 4-0.2 0.6 0.2 2.4-0.2 1.7 0.5 1 0.1 2.3-1.2 2 0.2 2.1 0.8 1.5 0.8 0.4-0.3 0.4-0.1 1.1 0-0.1-0.3-0.1-0.6-0.1-0.3 0.6 0.1 0.9 0.6 0.6 0.1 2.1-0.4 2.1 0 0.5-0.1 1.1-0.5 1-0.2 0.2-0.3 0.3-0.3 0.6-0.1 1.3 1 0.5 0.1 3.1 0.4 0.6-0.4 0.7 0.4 0.6-0.3 0.6-0.5 0.6-0.3 4.7 0 0.2-0.5-0.3-0.4-0.1-0.5 0.5-0.5-0.1-0.2-0.1-0.4-0.1-0.2 1.3 0 0.5-0.2 0.2-0.7 0.2-0.6 0.7 0.1 1.3 0.6 0.9 0.8 2.2 2.6 0.7 1.2 0.3 0 0.2-0.8 0.3 0.3 0.5 0.9 2.1 0.4 8.1-0.4 1.3 0.4 0.1 0.7-0.5 0.9-0.7 0.7 0.2 0.4 0.5-0.3 0.8-0.3 0.4-0.2 0.3-0.4 0.1-0.3 0.2-0.3 0.6-0.1 1.7 0.1 0.7 0.3 2.9 1.9 1.4 0.5 3.5 0.2 0.9 0.3 0.5 0.7 0.4-0.3 2.9 0.8 0.3-0.1 0.6-0.5 0.4-0.1 0.5 0.1 0.9 0.5 2.9 0.6 3.3 1.6 0.8 0.2 8.9 0.8 0 0.4 0 0.7-0.3 0.7-0.5 0.9-0.1 0.4 0 0.3 0.2 0.2 0.4 1 0.1 0.8-0.1 0.6-0.1 0.4-0.2 0.4-0.3 0.2-0.4 0.1-0.2-0.2-0.2-0.6-0.3-0.2-0.7-0.2-0.5 0-0.4 0-0.6 0.4-0.3 0.3-0.1 0.3-0.2 0.2-0.4 0.2-0.9 0.1-0.4 0-0.3-0.1-0.4 0-0.5 0.1-0.5 0.3-0.2 0.3-0.1 0.4 0.1 0.8-0.1 0.4 0 0.3 0 0.5-0.1 0.5-0.3 0.6-0.3 0.2-0.4 0-0.8-0.1-0.4 0.1-0.4 0.1-1.2 0.2-0.4-0.1-1.2-1.9-0.8-0.6-0.3-0.2-0.4 0-0.4 0-2.2 1.2-0.6 0.6-1.3 0.7-1.5 0.4-0.7 0.4-0.4 0.3-0.4 0.8-0.1 0.4-0.1 0.4-0.3 0.9-0.3 0.5-0.6 0.6-0.5 0-0.4-0.1-0.4-0.2-0.4 0-2.1 1.1-3.9 0.4-2.1-0.3-0.5 0.1-0.4 0.3-0.3 1.1-0.3 0.4-0.4 0.2-0.5 0.1-2.2 0-0.2 0.3-0.1 0.4-0.2 0.3-0.2 0.3-0.3 0-0.7 0-1 0.4-0.4 0-0.4-0.1-0.4-0.2-0.3-0.3-0.9-0.1-0.6 0-0.9-0.2-1.1-0.6-0.6-0.1-1 0.1-0.6 0.2-0.4 0.2-0.2 0.4-0.2 0.3-0.2 0.4-0.3 0.3-0.2 0.3-0.1 0.3 0 0.2 0 0.1-0.1 0.3-0.2 0.3-0.1 0.4-0.4 0.4-0.4 0.1-0.7 0.1-1.6-0.1-0.4-0.1-0.3-0.2-1.1-0.4-0.1-0.3-0.5-0.1-0.5-0.4-0.5-0.4-1-0.6-0.2-0.3-0.2-0.4-0.1-0.4-0.2-0.8-0.2-0.3-0.4-0.3-1.2 0.3-0.5 0-2-0.4-0.4 0.1-0.1 0.3-0.1 0.4-0.1 0.5-0.3 0.3-0.8 0.4-0.5 0.1-0.5-0.2-1.1-0.4-1-0.2-0.5 0.1-0.3 0.3-0.1 0.8-0.2 0.2-0.3 0.1-0.8-0.2-1.7-0.9-0.6 0-0.8-0.2-0.3-0.3-0.4-0.3-0.7-0.2-1.1 0.5-0.2 0.4-0.2 0.4-0.2 0.3-0.2 0.4-0.1 0.3 0 0.3-0.1 0.2-0.3 0.2-0.9 0.3-1.1 0-0.2 0.2-0.1 0.3 0.2 0.3 0.4 0.3 0.7 0.2 0.2 0.3 0 0.3-0.2 0.4-2.1 1.1-0.6 0.1-1.4 0.6-0.4 0.1-1.9-0.2-0.3-0.2-0.3-0.1-0.5-0.1-1.9 0-0.8 0.1-0.7 0.3-0.4 0.2-0.3 0.4-0.3 0.3-0.3 0.3-0.5 0.3-0.3-0.1-0.2-0.5-0.8-0.4-1.3-0.2z" id="ESAS" name="Asturias">
  </path>
  <path d="M652.1 64.6l0 0.4 0 1.6-0.2 0.5-0.2 0.4-1.8 0.9-0.3-0.1-0.9-0.3-1.1 0.1-2.5-0.1-0.5 0.2-0.5 0.4-3.4 2.5-0.4 0.6-0.1 0.5 0.1 0.3 0.1 0.5 0 0.4-0.1 0.4 0 0.4 0.2 0.3 0.2 0.4 0.3 1.2 0 0.7-1.1 0.1-1.2-0.2-0.7 0.1-0.8-0.2-1.1-0.5-1.1-0.3-1.2-0.2-0.4-0.2-0.6-0.5-0.4-0.1-0.4 0-0.6 0.4-0.8 0.9-1 1.3-0.6 0.6-0.4 0.4-0.8 0.5-0.6 0.5-0.4 0.2-0.3 0-1.2-0.1-0.4 0.1-0.3 0.1-0.3 0.2 0 0.5 0 0.5-0.2 0.5-0.5 0.5-0.4 0.3-0.6 0.2-0.6 0.3-0.9 1-0.7 0.4-0.4 0.2-0.3 0.2 0 0.1-0.4 0.7-0.9 2.6 0 0.4 0 0.4 0.1 0.4 0.3 0.3 0.3 0.3 0.4 0.1 0.4 0 0.8-0.2 1-0.6 0.3-0.3 0.4-0.7 0.2-0.3 0.3-0.2 0.3-0.1 0.4 0.2 0.3 0.2 0.3 0.4 0.2 0.3 0.1 0.4-0.3 0.4-1.2 0.8-1.1 0.1-0.1 0.2 0 0.3-0.3 0.2-0.1 0.3 0.2 0.6 0 0.4 0.2 0.3 0.2 0.3 0.4 0 0.3-0.2 0.3-0.6 0.3-0.4 0.5-0.2 0.4 0 0.4 0.2 0.1 0.4 0.1 0.4-0.1 0.6 0.1 0.4 0.3 0.6 0.1 0.3 0 0.4 0 0.3-0.2 0.4-0.4 0.2-1.4 0-0.7 0.2-1.4 1.3-0.5 0.2-0.8 0.3-0.6 0.1-1.4-0.4 0.1-0.9-0.1-0.4 0-1.3-0.1-0.3-0.1-0.1-0.3 0.2-0.3 0.2-1.1 2.5-1.6 0.4-0.4-0.7-0.2-0.3-0.4-0.2-0.4-0.2-1.1-0.1-0.4-0.1-0.8-0.7-0.3-0.4-0.1-0.3 0.1-0.3 0.3-0.2 0.7-0.2 0.4 0 0.3-0.2 0.3-0.3 0.1-0.3-0.1-0.5-0.2-0.2-0.4-0.2-1 0.3-0.4 0.2-0.5 0.5-0.2 0.1-0.3-0.1-0.3-0.1-0.2-0.3-0.1-0.3 0-0.2 0-0.3-0.1-0.4 0-0.4-0.1-0.4 0-0.4-0.1-0.4-0.2-0.8-0.1-0.7 0-0.4 0.1-0.4-0.1-0.4-0.6-0.4-4.1-1.5-0.6-0.4-0.2-0.4-0.1-0.1-0.1-0.4-0.8-1.4-0.4-0.3-1-0.5-0.5-0.1-0.6 0-0.8 0.4-0.4 0.2-0.6 0-0.5 0.1-1.4 0.7-0.5 0.1-1.4-0.1-1.6 0.3-2 0-0.7 0.2-0.8 0-0.3-1.4-0.2-0.4-0.8-0.8-0.2-0.5-0.3-0.4-1.6-0.9-0.4-0.3-0.3-0.4-0.2-0.9-0.1-0.6 0.2-3 0.4 0.1 1.2-0.2 0.4-0.1 0.4-0.1 0.8 0.1 0.4 0 0.3-0.2 0.3-0.6 0.1-0.5 0-0.5 0-0.3 0.1-0.4-0.1-0.8 0.1-0.4 0.2-0.3 0.5-0.3 0.5-0.1 0.4 0 0.3 0.1 0.4 0 0.9-0.1 0.4-0.2 0.2-0.2 0.1-0.3 0.3-0.3 0.6-0.4 0.4 0 0.5 0 0.7 0.2 0.3 0.2 0.2 0.6 0.2 0.2 0.4-0.1 0.3-0.2 0.2-0.4 0.1-0.4 0.1-0.6-0.1-0.8-0.4-1-0.2-0.2 0-0.3 0.1-0.4 0.5-0.9 0.3-0.7 0-0.7 0-0.4 0.1 0 0.1 0.1 1.1 1 0.8-0.8 1.2-0.2 1.1 0.3 0.8 0.7 0.2 0 0.5-0.7 0.3-0.2 1.9 0.2 5-0.5 1.2-0.9 2.5-0.8 1-0.1 1.8 0 0.2-0.2 0-0.2 0.1-0.3 0.3-0.1 0.3 0.1 1 0.7 0.2-0.3 0.2-0.1 0.2 0 0.2 0-0.1-0.1-0.4-0.3 0-0.4 1.4-1 0.7-0.3 0.6 0.2 0.5-0.3 0.2 0 0.2 0.3 1.1-0.7 1.3-0.3 1.2 0.2 1.1 0.8-1.8 0.8-0.7 0.5-0.6 0.6 0.5 0.5 0.2 0.2 0.2 0.1-0.2 0-0.1 0 0 0.1 0 0.2 0.4 0.1 0.4-0.1 0.6-0.3 0.3-0.3 0.5-0.8 0.2-0.1 0.3 0.1 0.4 0.5 0.4 0.2 0.1-0.3-0.1-0.5-0.2-0.5-0.3-0.2 0-0.4 0.6 0.1 0.2 0.1 0.3 0.2 0.1-0.3 0.2-0.1-0.3-0.4 0.5-0.2 1.1-0.1 0.5-0.3 0.4-0.4 0.5-0.2 3-1 1.1 0.1-0.1 1 0.7 0 0.5 0.4 0.5 0.5 0.3 0.2 2.8 0.5 0.2 0.2 0.2 0.3 0 0.3-0.1 0.5-0.1 0.1-0.3-0.1-0.3 0.1-0.2-0.2-0.4-0.2-0.3-0.1-0.2 0.3-0.1 0.3-0.4 0.3-0.6 0.4 0.8 0.1 0.4 0.7 0.4 0.2 0.6-1 0.4 0.6 0.6 0.1 1.2-0.4 0.6 0.1 1.9 0.7 2.5 0.4 1.8 0.7 0.6 0.1 0.4 0.2 0.9 1.1 1.1 0.3z m-4.8 6.8l0.1 0.6-1.3 0.6-0.2-0.3 0-2.2 0.7 0.3 0.7 1z" id="ESCB" name="Cantabria">
  </path>
  <path d="M54.9 840l0.8 0.1 0.7 0.4 0.5 0.6 0.2 0.6-0.2 0.7-1.7 2.6-0.1 0.2 0.1 0.3 0 0.3-0.2 0.3-0.2 0.1-0.2 0.1-0.2 0.1 0 0.3-0.2 0.2-0.3 0.3-0.3 0.3-0.1 0.4-0.1 1.1-0.4 0.5-0.6 0-0.8-0.5-0.6-0.6-0.4-0.6-0.5-0.5-3-0.4-0.8-0.4-0.6-0.6-0.2-1.6 1-0.5 1.8 0.1 1.6 0.4 0.6-0.4 1.6-1.5 0.3-0.4 0-0.5 0.2-0.2 0.9-0.4 1.4-0.9z m25.2-16.3l2-0.5 1.9 0.6 1.7 1.1 2.2 1.6 0.5 1.1 0.2 1-0.6 0.9-0.8 0.5-1.2 1.1-0.9 0.7-0.9 0.2-1 0.3-1-0.2-2.1-1.3-1.4-2.1 0-1.6 0.2-1.7 1.2-1.7z m35.6 2.6l-0.5 0.8-0.6 0.8-2.7 2.7-0.6 0.9-0.3 0.6-1.4-0.3-2.2 0.9-1 0.3-0.7 0.3-0.7-0.1-0.4-0.6-0.1-0.5 0.1-0.5-0.4-0.2-0.3-0.2-0.1-0.4-0.1-0.9-0.1-0.3-0.6-0.7-1.5-1.6-0.4-0.7-0.2-1-0.6-0.7-0.7-0.7-0.4-0.6-0.3-2-0.1-0.4-0.6-0.9-0.5-1.1-1.3-1.4-0.4-0.9 1-0.6 2.2-1 0.8 0.3 0.9 0.7 0.5 0.1 0.5 0 1.1-0.3 0.9-0.5 1.3-0.4 1-0.4 0.8 0.2 1.6-0.1 0.8-0.1 0.8-0.6 1-0.2 0.5-0.1 0.8-0.1 0.8-0.7 1.9-1.7 0.8-0.7 0.3-0.4 0.1-0.7 0.1-0.2 0.8-0.5 0.3-0.2 0.7-0.4 0.9-0.2 0.8-0.3 0.2-0.8 0.7 0.2 3.9 0.1 2.5-0.9 0.9 0.6-0.3 1.3-1.3 0.8-2.9 1.7-0.7 1.3-0.9 0.8-1.1 1.1-1.1 1-0.7 0.3-0.6 0.4-0.4 0.9 0 1 0.2 0.7 0.1 0.5-0.1 0.5-0.4 0.3-0.3 0.4-0.3 1.1-1.3 2.4-0.4 2 0 0.8z m-53.6-30.7l-0.1 0.9 0.3 1.1 0.4 0.8 0.7 0.4 0.1 0.9-1.2 1.4-0.6 1 0.3 0.9 0.5 1.7-0.3 0.8-0.3 1.2-0.9 1.3-0.8 1.8-0.8 1.6-0.4 0.9-0.2 0-0.2-0.4-0.9-0.5-0.3-0.9-0.3-2.2-0.5-0.6-0.3-0.7-0.8-1.2-0.3-1-1.5-2.4-0.2-1.2-0.1-0.7-0.2-0.7-0.7-0.5-0.4-0.5 0.2-1.4 1.1-1.5 1.4-1.3 1-0.7 0.8 0.5 1 0.2 1 0.2 1.6-0.6 0.8 0.3 0.7 0.6 0.4 0.5z m95.5 36.2l0.3 0.3 0.6 0.4 0.2 0.3-0.1 0.7-0.3 0.8-0.1 0.8 0.5 0.8 0 0.3-0.4 0.2-0.3 0.4-0.4 1 0.3 0.6 0.3 0.9-0.1 0.7-0.6 0.2-0.5 0.4-1.3 1.6-0.6 0.5-2.8 0.9-0.5 0.3-0.2 0-1.1 1.2-0.4 0.2-0.5-0.2-0.3-0.3-0.4-0.2-1.8-0.1-0.7-0.2-0.7-0.3-2.2-1.9-0.3-0.4-0.2-0.3-0.8-0.5-0.4-0.3-0.2-0.3-1.1-2.6-0.3-0.9 0.2-0.9-0.1-0.5-0.1-0.8 0-0.7 0.2-0.5 0.4-0.4 1.6-0.9 0.7-0.5 1-1 0.7-1.1-0.2-1.1 0.4-0.5 0.2-0.8-0.1-0.9-0.2-0.7 0.4 0 0.5 0 0.4 0.1 0.3 0.2 0.6-0.1 2.2 0.7 3 0 2.6 0.7 0.9-0.4-0.1-1.5 1.2-0.2 0.1 0.1 0.2 0.5 0 0.4-0.3 0.2-0.3 0.5 0 1.3 0.3 1.8 0.1 0.3 0.1 0.5 0.2 0.6 0.3 0.6z m57.3-32.4l1.5-0.6 1.5-0.2 1.4 0.4 1.1 1.4 0.5 1.5 0.1 2.1-0.3 3.9-0.2 1-0.8 1.7-0.1 0.6-0.1 1.6 0.1 0.5 0.1 0.3 0.4 0.6 0 0.3-0.2 0.5-0.7 0.7-0.1 0.2-0.1 0.4 0 0.5-0.2 0.4-0.6 1-0.4 0.7-0.4 1.6-0.9 1.5-1.4 0.8-4.2 0.7-1.9 0.5-1.3 1-1.6 0.4-0.9 0.4-1.3 1.5-1.1 1.5-1.2 1.3-1.7 0.8-1 0-1.6-0.8-0.8-0.2-2.7 0.2-0.5-0.2 0.2-0.1 0.1-0.6 0.1-0.5 0-0.2 0.3-0.1 1.4 0.3 0.8-0.1 1.5-0.5 2.3-1.1 2.9-1.9 1.2-1.1 0.6-0.8 0.5-0.8 0.2-0.9 0.2-2.2 0.4-0.8 0.9-1.4 1-3.3 0.2-0.5 0.5-0.4 1.2-2 0.9-2.3 1.6-2.3 0.5-2.3 0.6-1.4 0.2-1.7 0.2-0.6 0.4-0.5 0.7-0.4z m19.8-23.3l0.7-0.1 0.8 0.5 1.1 1.1-0.4 0.9-0.1 0.8-0.3 0.6-0.8 0.5-0.2 0.7 0.1 0.7 0.3 0.6 0 0.9 0 0.3-0.4 0.6-0.1 0.4 0 0.3 0 0.8 0 0.4-0.7 1.2-1.1 1-1.3 0.7-1.9 0.5-0.4 0.4-0.4 0.4-0.4 0.2-0.7 0.1-0.9 0.2-0.7 0.1-1.4 0.3-1 0.8-0.9 1.2-0.7 1.4-0.3 0-0.4-0.6-0.8-0.3-1.9 0-0.3-0.2-0.3-0.6-0.1-0.5 0.1-0.3 0.5-0.1 0.3-0.4 0.4-0.7 0.2-0.8 0.2-2.3 0.1-0.6 1.3-2.2 0.7-0.8 0.6-0.4 0.7-0.3 0.7-0.2 1 0 0.7-0.3 1.4-1.1 0.8-0.5 0.7-0.3 0.7-0.1 2 0 0.6-0.2 0.4-0.5 0.5-1.1 0.5-1.6 0.3-0.8 0.5-0.7z m-0.2-2l0.4 0.8-0.6 1.1-1 0.8-1-0.2 0-0.3 0.7-0.7 0.3-1 0.4-0.8 0.8 0.3z" id="ESCN" name="Islas Canarias">
  </path>
  <path d="M841 315.5l1.6-0.7 0.7 0.8-0.1 1.2-0.9 0.2-1.4 0-2-1.3-0.7-0.4-0.7 0.6-0.4 0.3-0.7 0.9-0.6 0.4-0.6-0.2 0.2-1-0.2-0.4 0-0.5 0.2-0.4 0.2-0.5 0-0.4-0.2-0.2-0.2-0.2 0.2-0.3 0.5-0.6 0.3 0.3 0.4-0.2 0.4-0.6 0.2-0.8 0.1 0 0.1 0 0 0.2 0 0.1 2 2.8 1.6 0.9z m3.2-21.5l-0.2 0.5 0.3 1 0.6 1.8-0.7 0-0.5 0.4-0.3 0.7-0.2 0.8-0.2 0.3-1.4 1-1.3 1.9-0.5 0.4-1.1 0.6-0.4 0.6-0.2-0.2-0.2-0.3-0.2-0.2-0.6 0.9-0.6 0.3-0.4 1.7-0.1 1.3-1.3 0-0.4-1-0.7-0.6-0.6 0.3-0.3 0-0.1-0.1-0.4 0.1-0.3-0.7-0.7-0.2-0.7 0.2-0.3 0.7-1.2-0.9-0.5-0.6-0.2-0.9 0.5-1.2 0.1-0.8-0.3-0.6 0.3-0.4 0.4-0.2 0.5-0.1 0.4 0.3 0.3-0.3 0.4-0.1 1 0.1-0.4-2.2 0.1-1.3 0.4-0.5 0.6-0.2 0.6-0.5 1-1.1 0.2 0 0.4 0.4 0.8-0.7 0.4 0.3 0.8-0.6 1.1-0.6 1.2-0.3 0.8 0.1 0.4-0.5 0.6-0.2 0.5 0 0.7 0.6 0.3 0.1 0.7 0 0.5 0.1 0.3 0.3 0.3 0.3z m70.7-36.2l1.1 0.3 2.3 1.4 1.4 0.1-0.2 0.5 0 0.5 0.1 0.4 0.1 0.4-0.2 0.3-0.2 0.2-0.1 0.3 0.2 0.7-0.5 1.4-0.5 0.8-0.5 0.3-0.7 0.2-0.4 0.6-0.2 0.9 0.3 0.8-1.6 1.5-1.7 2-1.3 2.6-0.4 2.9-0.4-0.3-0.1-0.1-0.7 2.2-1.2 1.3-3.7 2.3-1.6 1.4-0.3 0.5-0.2 0.2-0.3 0.2-0.4 0.2-0.2-0.2-1.1-1.7-0.2-0.2-0.7-0.3-0.2-0.2-0.2-0.5-0.1-0.5-0.1-0.5-0.3-0.2-0.4-0.1-0.6-0.6-0.4-0.1-0.5 0.1-0.6 0.2-0.4 0.1-3.5-0.3-1.6-0.6-1-1.3-0.4-2.8-0.6-0.4 0.1-0.9 0.6-1.2-0.4-1.1-1.2-1.1-1.3-0.8-1.1-0.3-0.9 0.3-2.6 1.4-0.5 0.6-0.5 1.5-1 1-1.1 0.2-0.7-1.4-0.1-0.1-0.1-0.4 0.1-0.3 0.4-0.3-1.1-1.1-0.4 0.5-0.3 0.2-0.2-0.2-0.3-0.5-1.1 0.7-0.2 0.1-0.4-0.3-0.4-1-0.7-0.6-0.2-0.9 0-1.1 0.3-0.8 2.9-1.8 0.8-0.2 0.8-0.5 1.9-2.1 0.6-0.3 0.9-0.1 0.6-0.3 0.7-0.5 1.3-1.4 0.2-0.3 0.2-0.6 0.1-0.2 0.2 0 0.5 0.1 0.2-0.1 0.9-1 0.2-0.2 0.2-0.1 0.8-1 0.2-0.2 0.3-0.1 1.2-0.6 0.6-0.5 0.5-0.5 0.4-0.3 0.6-0.2 0.2-0.1 0.2-0.5 0.2-0.1 0.8 0.1 0.4-0.1 1.2-0.5 2.4-1.7 1.3-0.3 2.3-0.2 2.2-0.6 4.2-1.7 0.5 0.7 0.2-0.2 0.2-0.1 0.5 0.3-0.4 0.3-1.5 0.7-0.5 0.1-0.6 0.3-0.5 0.6-0.5 0.4-0.5-0.2-0.3 0 0 1.7 1.4 0.2 3.1-0.8 0 0.3-0.4 0.3-0.1 0.3 0.1 0.4-0.2 0.4-0.2 0.3-0.2 0.2-0.7 0.2-1.3 0.4-0.3 0.4 0 1.1 0.4 1.1 1.1 1.1 1.3 0.7 1.2 0.3 2.7 0 0.8-0.3 1.2-1.2 0.6-0.3z m38.3-7.4l0.1 0.7 0.9 1.5 0.3 0.8-0.2 0-0.2-0.3-0.3-0.3-0.3-0.3-0.3-0.2-0.2 3.5-2 0.3-2.9-1.4-6.6-4.4-1.3-0.5-1.6 0-3 0.6-1.5-0.6 0.2-0.6 0-0.8 0.1-0.7 0.5-0.4-0.3-0.3-0.9-0.3-0.3-0.3-0.4-0.7 0-0.2 0.1-0.3 0.1-0.6 0.5-0.7 2.8-0.6 1 0.4 3.9-0.4 1.6 0.1 0.5-0.1 0.6-0.3 0.6-0.5 0.5-0.3 0.1 0.7 0.3 0.4 0.9 0.7 0 0.2-0.1 0.3 0 0.4 0.3 0.2 0.2-0.1 0.3-0.4 0.4-0.6-0.1-0.8 0.3-0.2 0.3 0.3-0.2 0.7 0.2 0.4 1.2 0.7 0.2 0.4 0.2 0.3 0.4 0.4 0.2 0.1 0.6 0.1 0.3 0.2 0.4 0.5 0.4 0.9-0.1 0.8-0.7 0.3 0.6 0.3 0.7-0.1 0.5 0.2 0.2 0.9z m-53.3 39.7l-0.1 1.4-0.8 1.2-1.3-0.1-0.7-1.7 1.1-1.1 1.6-0.7 0.2 1z" id="ESIB" name="Islas Baleares">
  </path>
  <path d="M732.4 245.8l0.7 2.1-0.5 0.4-1.6 0.7-0.3 0.4-0.1 0.3 0.1 0.2 0.2 0.5 0.1 0.3 0 0.4-0.1 0.9 0 0.8-0.1 0.8-0.7 2.7-0.3 0.9-0.3 0.4-0.4 0.6-0.9 1.7-0.2 0.5 0 0.4 0.1 0.4 0.1 0.8 0 0.5-0.2 0.4-0.2 0.3-0.3 0.3-0.4 0.1-0.3 0.1-0.8 0-0.3-0.1-0.4-0.2-0.7-0.3-0.3-0.1-0.4 0.1-0.3 0.1-0.8 0.6-0.9 1-0.2 0.3-1.5 2.9-0.4 0.6-0.5 0.4-0.3 0.2-0.2 0.2-0.2 0.5 0 0.2 0 0.2 0 0.2 0.1 0.1 0.1 0.2 0 0.1 0 0.1-0.1 0.3-0.1 0.2 0 0.3 0 0.2 0 0.5 0.1 0.2 0.1 0 0 0.1 0 0.1-0.1 0.1-0.2 0.2-0.1 0.2 0.1 0.6-0.3 0.8-0.2 0.4 0 0.3 0 0.3 0.1 0.2 0.2 0.2 0.2 0.1 0.2 0.5 0.6 0.1 0.1 0.2 0.1 0.3 0.2 0.2 0.3 0.1 0.1 0.2 0.1 0.2 0.3 0.1 0.2 0.2 0 0.3 0.1 0.3 0 0.3 0.1 0.4 0.2 0 0.3-0.1 0.3 0.1 0.2-0.1 0.3-0.1 0.3 0 0.9 0.3 1.8 1.2 0.5 0.2 0.3 0 0.4 0 5.4 1.7 0.2 0.5 0.1 0.4-0.2 0.4-0.1 0.3-0.1 0.9 0.1 0.4 0 0.4 0 0.3-0.1 0.8-0.1 0.4-0.1 0.3-0.1 0.3-0.2 0.5-0.1 0.3-0.3 0.8-0.3 0.3-0.2 0.3-0.5 0.6-0.2 0.4-0.2 0.8-0.2 0.4-0.4 0.7-0.2 0.4 0 0.3-0.1 0.4-0.1 0.4 0 0.6 0.2 0.8 0.3 0.5 3.9 4.7 0.7 0.5 0.6 0.3 1.1-0.1 1.1-0.2 1.1 0 0.8-0.1 0.6-0.5 0.2 0 0.3-0.1 0.4 0.1 0.4 0.2 0.5 0.3 1.3 2.3 0.2 0.5 0 0.4-0.2 0.8 0 0.4 0.6 1.6 0 0.2-0.1 0.4-0.2 0.2 0 0.9-0.5 0.3-0.3 0.3-0.4 0.1-0.2 0.4 0 0.4 0.2 1 0.3 0.6 0.3 0.6 0.3 0.3 0.4 0.6 0.3 0.3 0.2 0.4 0 0.2-0.1 0.2-1.3 0.9-0.7 0.3-0.8 0.1-1-0.1-0.2 0-0.6 0.2-2.3-1.7-1.1-1-0.2-0.4-0.1-0.3 0-0.4-0.1-0.4-0.2-0.2-0.3-0.2-1.5-0.5-0.4-0.1-2.4 0.7-0.4 0.2-0.4 0.3-1 1-2.3 1.3-0.4 0-0.3-0.2-0.2-0.3-0.2-0.2-0.4-0.1-0.5 0.3-0.7 0.6-1.3 1.5-0.6 1.5-0.2 0.8 0.1 0.4-0.1 0.7-0.2 0.4-0.2 0.3-0.5 0.4-0.4 0.3-0.4 0.9-0.2 0.3 0 0.3 0 0.3 0 0.3 0.1 0.2 0.2 0.3 0.2 0.7 0.1 0.8 0.1 1.6 0 0.9 0.2 1.2 0 0.4 0 0.5-0.1 0.3-0.2 0.4-0.3 0.4-3 2.4-2.4 0.8-0.4 0-0.4 0-0.3-0.2-0.5-0.2-0.3-0.2-0.1-0.2-0.2-0.2-0.1-0.3 0-0.3 0-0.2 0.1-0.3 0-0.3 0-0.2-0.2-0.2-0.2-0.2-0.2-0.2-0.2 0-0.7 0.1-0.2-0.1-0.5-0.3-0.3-0.1-0.3 0-0.4 0.2-0.2 0.1-0.3 0.3-0.5 0.1-0.2 0-0.1 0.1 0 0.3-0.1 0.3-2.1 1.3-1.5 1.2-1 0.5-0.7 0.2-1.3 0.3-1 0.4-0.4-0.1-0.2-0.1-0.7-0.7-0.3-0.2-0.3 0-0.5 0.1-0.6 0.4-1.1 1.2-1.7 1.6-0.5 0.3-0.8 0.1-0.4 0.2-0.5 0.3-1.2 1.1-0.4 0.7-1.2 2.4-1.2 1.7-1.5 1.7-0.2 0.4-0.6 1.8-0.5 0.2-0.4-0.1-4.3-1.2-3.3-1.6 0.5-0.7 0.6-0.6 0.2-0.3 0.4-0.7 2.5-3.3 0.1-0.4-0.1-0.4-0.2-0.7 0-0.2 0.1-0.2 0.2-0.1 0.2-0.3 0.1-0.3 0.1-0.3 0-0.4 0.1-0.3 0-0.3-0.1-0.4-0.3-0.5-1.3-0.8-0.2-0.5-0.1-0.5 0-0.5 0-0.8-0.1-0.7-0.2-0.4 0-0.4-0.1-0.4 0.1-0.7-0.1-0.3-2.8-0.8-0.4-0.4-0.1-0.3-0.1-0.3 0-0.4 0.1-0.4 0-0.7-0.1-0.4-0.1-0.7 0.2-0.6 0-0.2-0.1-0.1-0.4-0.2-0.6-0.2-1.2-0.1-0.6 0.1-0.6 0.2-0.7 0.3-1.8-0.8-1.5-0.9-0.5 0.4-0.1 0.2-0.8 0.7-0.6 0.4-0.1 0-0.1 0.1-0.2 0.1-1.2 0.6-0.2 0.2-0.4 0.3-0.1 0.2 0 0.1-0.1 0-0.2 0.1-0.1 0.1-0.1 0.1-0.2 0.1-0.2 0-0.4-0.3-0.3-0.3-0.4-0.1-0.5-0.1-0.5 0-0.6 0.1-0.6 0.3-0.8 0.6-0.3 0.3 0 0.6-0.1 0.3-0.2 0.2-0.3-0.2-0.6-0.7-0.9-1.3-0.3-0.3-0.3-0.2-0.4 0-1.1 0.7-0.6 0.6-0.4 0.2-0.6 0-1.3-0.4-2.9-0.2-0.7-0.1-0.8-0.3-0.7-0.3-0.5-0.2-0.6 0-0.9 0.1-0.7 0.4-0.3 0.3-0.1 0.4-0.1 0.4-0.1 0.3-0.2 0.3-0.5 0.7-1 0.6-1 0.4-0.5 0.1-0.5 0-0.7-0.1-1.3-0.4-0.3-0.1-0.2-0.4-0.1-0.3 0-0.4-0.2-0.3-0.2-0.3-0.4-0.1-0.5 0.1-0.4 0.3-0.2 0.4-0.2 1.1-0.1 0.3-0.3 0.2-0.5 0.1-0.5 0.1-2.1-0.6-0.8-0.1-1-0.4-0.4 0-0.2 0.1-0.4 0.1-0.7-0.2-0.3-0.2-0.5-0.1-0.6 0.1-0.6 0.1-0.6 0.5-0.3 0.3-0.4 0.8-0.8 0.4-1.3 0.2-11.5-0.5-1.5-0.5-0.8-0.1-0.9 0-0.3 0.1-0.3 0.3-0.1 0.4-0.1 1.9-0.6 0.1-0.4-0.1-2.6-1.1-0.6-0.1-1-0.3-1.8-0.9-0.4-0.2-0.4-0.5-0.8-1.1-1.1-1.2-1.1-0.9-0.6-0.3-0.5-0.4-0.5-0.2-0.4 0-0.4-0.1-0.3-0.3-0.3-0.4-0.2-0.5-0.4-0.4-1.4-1.2-0.7-0.2-0.8-0.5-0.1-0.3-0.3-0.4-0.5-0.3-1.7-0.8-0.5-0.1-0.8-0.1-0.5-0.1-0.6-0.2-0.8-0.6-0.5-0.5-0.2-0.5-0.1-0.8 0-0.4-0.1-0.8-0.1-0.4-0.4-0.2-1.2 0-0.5 0.1-0.9 0-1.3-0.6-2.3-1.7 0.6-0.3 0.5-0.1 0.2 0 0.2 0 0.3-0.2 0.4-0.5 0.4-1 1-3.7 0.2-0.5 0.6-1.1 0.3-0.3 0.3-0.3 0.3-0.2 0.4-0.1 0.4-0.1 1.1 0.2 0.3 0 0.2-0.3 0.2-1.2 0.2-0.7-0.2-0.6-0.2-0.3-1.1-0.2-0.3-0.1-1.4-0.4-0.2-0.3-0.2-0.3-0.1-0.4-0.1-0.3 0-0.4 0-0.4-0.1 0-0.1-0.1-0.2-0.2-0.2-0.2-0.1-0.4 0-0.4-0.2-0.4-0.1-0.3 0-0.4 0.3-0.3 0.4-0.1 0.3 0.1 0.4 0.1 1 0.6 0.7 0.3 0.4-0.1 0.4-0.1 0.9-0.6 0.2-0.3-0.1-0.5-0.3-0.3-0.7-0.4-0.2-0.3-0.2-0.5 0-0.7 0.5-2.2 0.2-0.6 0.1-0.3 0.3-0.3 0.6-0.6 0.2-0.3 0.3-0.3 0.3-0.3 0.3 0 0.7 0.2 0.4 0 0.4 0 0.7-0.2 0.7 0.2 0.3 0.1 0.3 0.2 1.4 0.7 0.2 0.1 0.6 0-0.5-0.9-1.2-1.4-0.4-0.4-0.3-0.3 0-0.2-0.7-1.3-0.8-1.9-0.1-0.5 0-0.5 0.3-0.4 0.3-0.2 0.5-0.1 0.4-0.3 0.3-0.5 0.6-1.7 0.6-1.2 0.2-0.9-0.6-1.7-0.5 0.6-2 1.1-0.5 0.7-0.5 0.2-1.4 0.4-0.9 0.5-0.3 0.1-0.3 0.1-0.2 0.1-1 0.6-2.6-1.3-0.5-0.5-0.4-0.3-0.2-0.2-0.5-0.6-0.4-0.6-1.2-1.4-0.6-1-0.3-0.2-0.7-0.1-0.6-0.4-0.3-0.4-0.6-0.5-0.9-0.9-1.5-2-0.3-0.2-0.6-0.4-0.3-0.3-0.3-0.3-0.1-0.3 0.1-0.3 0.4-0.6 0.2-0.4 0.3-0.3 0.1-0.4 0.5-0.6 0.1-0.3 0.1-0.4 0.1-0.3 0.1-1.2 0.2-0.7 0.1-0.3 0.1-0.4-0.1-0.5-0.3-0.4-0.5-0.7-0.1-0.3 0.2-0.8 0-0.5-0.2-0.7-0.1-0.4-0.3-0.2-0.3 0-0.8 0.1-0.3 0.1-0.8 0.7-0.3 0.5-0.5 0.7-0.2 0.2-0.3 0.1-0.5-0.1-1.4-0.3-0.2-0.2-0.1-0.5 0.1-1.1 0.1-0.5 0-0.6 0.1-0.7 0.2-0.4 0.5-0.7 0.1-0.3 0-0.4-0.2-0.3-0.2-0.3-0.3-0.3-0.3-0.3-0.3-0.1-0.4-0.1-1.1 0.1-0.8 0.1-0.3 0.2-0.2-0.7 0-1.4 0.6-3.9 0.3-2.8-0.1-0.5 0-0.6 0.2-1.3 0.2-0.4 0.1-0.2 1.2-0.6 4 0.5 1.1 0.5 0.5 0.4 0.9 0 0.7-0.1 0.4-0.2 0.2-0.2 0.2-0.2 1.6-1.2 0.2-0.3 0.3-0.4 0.3-0.3 0.5-0.2 1.1-0.3 0.4-0.1 0.3 0.3 0.2 1.5 0.2 0.2 0.6 0.2 0.9-0.2 0.6-0.3 0.9-0.6 0.3-0.3 0.2-0.3 0.1-0.4 0.1-0.4 0.4-0.7 0.4-0.3 0.7-0.5 0.4-0.4 0.9-0.5 0.7-0.6 0.4-0.6 0.1-0.5 0.1-0.4 0.2-0.8 0.2-0.2 0.9 0 1.9-0.3 0.8-0.3 0.5 0.1 0.2 0.3-0.1 0.4 0.1 0.4 0.1 0.3 0.2 1.3 0.1 0.4 0.2 0.3 0.3 0.2 0.8 0.4 0.5 0.1 0.6 0 0.9-0.3 1.3-0.5 0.9 0.6 0.6 0.2 0.5-0.1 0.4-0.2 0.2-0.3 0.4-0.4 0.5-0.3 1.2-0.5 0.6-0.4 0.4-0.4 0.2-0.5 1.2-1.2 0.3-0.4 0.2-0.4 0.5-0.8 0.2 0 0.2 0 0.3 0.2 0.1 0.4 0.1 0.3-0.1 0.8 0 0.4 0.1 0.3 0.3 0.8 0.3 0.3 0.3 0.3 0.6 0.2 0.6 0.7 0.2 0 0.2-0.1 0.5-0.5 0.3-0.3 0.3-0.5 0.3-0.6 0.3-0.3 0.4-0.3 1-0.2 1-0.6 0.4 0 0.3 0.3 0.3 0.3 1.1 1.1 0.6 0.2 0.8 0.2 0.5-0.2 0.4-0.3 0.4-0.3 0.3 0.1 0.9 0.3 0.4 0.3 0.3 0.3 0.2 0.4 0.2 0.3 0.4 0.3 0.5 0.3 2.2 0.7 1.2 0.6 2 0.5 0.2 0.1 0.2 0.2 0.2 0.3 0.4 0.4 0.4 0 0.7-0.2 0.3 0.1 0.3 0.2 0.6 0.9 0.3 0.2 0.2 0.2 0.5 0.1 1-0.2 0.6 0.1 0.6 0.2 0.8 0.1 1.9 0.9 0.4 0.4 0.2 0.3 0 0.2 0 0.5-0.1 0.3-0.3 1.1-0.1 0.2-0.4 0.5 0 0.2-0.2 0.2-0.5 0.3-0.3 0.1-0.5 0.3-1.9 2-0.7 0.5-0.7 0.3-0.2 0.1-0.7 0.8-0.2 0.2-0.5 0-2.5 0.8-0.5 0.3-0.3 0.3 0.1 0.4 0.5 0.4 1.3 0.8 0.6 0.1 0.5-0.1 0.3-0.4 0.7-0.5 0.3-0.1 0.6-0.6 0.4-0.4 0.2-0.3 0.3-0.1 0.5-0.2 0.7 0 0.5-0.2 0.7-0.5 0.9-0.3 0.4-0.2 0.1-0.3-0.1-0.7 0.2-0.2 0.6-0.3 0.8-0.2 0.3-0.3 0.3-0.2 0.3-0.1 1.6-0.4 0.4-0.2 0.2-0.3 0.2-0.6 0.6-0.4 3.8 0.1 1.4-0.6 0.8 0.6 0.4 0.1 0.5-0.2 1.7-0.3 2.5-1.3 1.6-0.5 0.7 0.4 0.2 0.2 0 0.5 2.1-0.1 0.8-0.2 0.6-0.5 0.4-0.5 0.2-0.4 0-0.3-0.1-0.4-0.2-0.3-0.2-0.3-0.2-0.4-0.1-0.4-0.1-0.4-0.1-0.4 0.2-0.2 0.1-0.1 0.3 0.1-0.4-2.1 0-1.1 0-0.5-0.1-0.6-0.4-1-0.3-0.6-0.5-0.4-0.4 0.1-1 0.8-0.3 0.3-0.3 0.3-0.3 0.3-0.3 0-0.3-0.4-0.1-0.7 0.1-0.6 0.1-0.5 0.1-0.4 0.1-0.5 0.1-0.6 0.2-0.4 0.6-0.6 0.2-0.3 0-0.2 0.1-0.3 0.1-0.5 0.2-0.2 0-0.3 0-0.2 0-0.5 0-0.2 0.1-0.2 0.1-0.5-0.2-0.5-0.6-1.1-0.5-0.4-0.4-0.2-0.4-0.1-0.3-0.2-0.1-0.4 0-1.5-0.1-1.1 0-0.2 0-0.2-0.1-0.3-0.9-0.9-0.3-0.2-0.3-0.3-0.3-0.1-0.3-0.1-0.3 0.1-0.3 0.1-0.2 0.2-0.3 0.1-0.2 0-0.2-0.1-0.1-0.2 0.1-0.2 0.1-0.2 0.1-0.1 0-0.3-0.1-0.4-0.1-0.4-0.5-0.5-0.4-0.2-0.2-0.4-0.2-0.4 0.1-1.5 0.2-1.1-0.3-0.1-0.2 0.1-0.3 0.1-0.3 0-0.4-0.3-0.5-0.5-0.5-1-0.4-0.5-0.3 0-0.1 0.3-0.2 0.2-0.6 0-0.6 0.1-0.3-0.1-0.3-0.3-0.2-0.3-0.2-0.3 0.2-0.5 0.5-0.7 0.1-0.3 0-0.4-0.1-0.4-0.1-0.7-0.1-0.6-0.2-0.5-0.3-0.4-1.2-0.3-0.3-0.2-0.1-0.2 0-0.2 0.2-0.2 0.1-0.2 0.3-0.5 0.2-0.5 0-0.4 0.3-1.5 0.1-0.3 0.1-0.2 0.2-0.1 0.2-0.1 0.2-0.2 0.2-0.3 0-0.6-0.2-0.4 0-0.4 0.2-0.4 0.1-0.5 0.2-0.4 0.1-0.4 0.4-1.2 0.1-0.4 0.2-0.4 0.3-0.7 0.1-0.5 0-0.8-0.6-1.6-0.5-1.8-0.4-0.2-0.3-0.1-0.9-0.5-0.3-0.2-0.4-0.4-0.4-0.7-1.5-1.5-0.2-1 0.7 0.1 0.4-0.1 3.1-2.4 0.9-0.2 0.3-0.2 0.1-0.4 0.1-0.8 0-0.4-0.2-0.3-0.2-0.4-0.1-0.2 0.1-0.2 1.1 0.5 2 0.1 2-0.4 0.4-0.3 1.3 0 1.2-1.4 0.8-0.5 4.7 1.1 1.4 0 2.7-0.3 0.9-0.2 0.6-0.4 0.1-0.4 0.3-0.3 0.2-0.3 0.3-0.2 0.5-0.1 0.5 0.1 0.7 0.3 0.2 0.4 0.1 0.4 0.1 0.4 0.3 0.7 0.3 0.4 0.5 0.2 1.5 0.5 1-0.1 0.4-0.2 0.4-0.3 0.4-0.2 0.4 0 0.5 0.1 0.4 0.3 0.2 0.4 0.2 0.4 0.4 0.2 0.8 0.2 1 0.2 0.6 0.3 0.3 0.4 0.3 0.3 0.3 0.1 0.3-0.1 0.4 0 0.3 0 0.3 0.3-0.1 0.3-0.2 0.4-0.6 0.4-0.1 0.2 0.3 0.3 0.7 0.4 0.2 0.4 0 0.3-0.3 0.6 0.1 0.3 0.3 0.2 0.4 0 0.7-0.3 0.4-0.2 0.4-0.1 0.3 0.2 0.2 0.4 0.2 0.3 0.1 0.4 0.1 0.3 0.1 0.1 0.2 0.2 0.5 0.2 0.3 0.2 0.2 0.3 0.2 0.8 0.2 0.4 0.3 0.3 0.4 0.3 1.1 0.5 0.5 0 1.3-0.7 0.5-0.1 0.5 0.1 0.3 0.3 0.7 0.4 0.6 0.1 1-0.2 0.6-0.2 0.5-0.3 0.5-0.4 0.5-0.3 0.7-0.1 0.9 0.2 0.4-0.1 0.4-0.1 1.3-1.2 0.3-0.2 0.3 0.1 0.3 0.2 0.3 0.3 1 0.6 0.2 0.3 0.2 0.3 0.3 0.3 0.3 0.1 0.3-0.2 0-0.3-0.1-0.3 0-1 0.3-1.4 0-0.8 3.3-1 1.1 0.3 0.2 0.4 0.4 0.4 0.5 0.3 1 0.5 1.7 1.2 1.3 0.8 2 1.7 0.3 0.4 0.2 0.3 0.1 0.4 0.3 0.3 0.5 0.7 2.2 1.9 0.3 0.3 0.4 0.5 0.2 0.3 1.4 1.2 0.5 1.1-0.1 0.4-0.1 1.8 0.3 0.8 0.3 0.7 0.3 0.4 0.5 0.6 1.1 0.7 0.3 0.5 0.2 0.4 0 0.4 0.1 1.3-0.1 0.5-0.4 0.8-0.2 0.5 0 0.4-0.1 0.6 0.2 0.4 0.3 0.5 0.2 0.7 0.2 0.6-0.1 1.1-0.1 0.4-0.3 0.7-0.2 0.9-0.1 0.6 0.2 1-0.2 0.3-0.2 0.4-0.4 0.2-0.7 0.4-0.3 0.1-0.4-0.1-0.3-0.2-0.3-0.2-0.7-0.3-0.3 0-1.1-0.3-0.2 0.2-0.2 0.4-0.7 1.9 0 0.7 0 1.9-0.3 0.4-0.3 0.3-0.7 0.4-0.4 0.3-0.4 0.4-1.3 2.1-0.3 0.2-0.2 0.1-0.5 0.7 1.2 0.5 0.7 0.7 1.6 2.3 0.2 0.7 0 0.6-0.2 0.4 0.1 0.7 0.2 0.1 0.2-0.2 0.4-0.2 0.6 0.1 1 0.6 4.2 4.1 0.6 0.4 0.3 0.1 0.5-0.3 0.5 0 0.5 0.1 0.6 0.3 0.5 0 1-0.2 0.2 0.3 0.1 0.3 0 0.4-0.1 0.4-0.1 0.6-0.3 0.5-0.1 1 0.2 0.3 0.2 0.3 1 0.5 0.2 0.3 0.1 0.4 0.1 0.6 1.2 3.4 0.3 0.3 0.4 0.1 0.4 0 2.6 0.4 1.1 0.4 0.6 0.1 0.4-0.2 0.4-0.1 0.7-0.1 0.8-0.1 0.3-0.1 0.7-0.2z" id="ESCM" name="Castilla la Mancha">
  </path>
  <path d="M606.6 209.7l0.7 1.7-2.5 0.2 0.1-1.3 0.8-0.8 0.9 0.2z m-11.9 25.5l0.5-0.9 0.4-1.8 0.5-1.1 0.2-0.3 0.1-0.4-0.1-0.4-0.2-0.7-0.1-0.4 0-0.4 0.3-0.3 0.3 0 0.2 0.2 0.5 0.7 0.2 0.2 0.2 0.1 0.7-0.1 0.4-0.1 0.5-0.3 0.3-0.5 0.4-0.8 0.1-0.5 0.1-0.4 0-0.3 0.1-0.9 0.2-0.3 0.3-0.4 0.3-0.1 0.2-0.2 0.3 0 0.2 0 0.3 0.1 0.3 0.1 0.2 0 0.2 0 0.3-0.1 1.1-0.1 0.4-0.2 0.1-0.3-0.2-0.8 0.3-1.1 0.2-0.4 0-0.4 0-0.4-0.1-0.3 0-0.7 0.1-0.2-0.1-0.3 0-0.3 0-0.8 0-0.4 0-0.6 0.3-0.5 0.3-0.3 0.3-0.2 0.1-0.1 0.1-0.2 0.1-0.2 0.2-0.6 0-0.4 0-0.3-0.1-0.4-0.2-0.4 0-0.5 0.2-0.3 0.3 0 0.2 0.2 0.3 0.6 0.3 0.3 0.3 0.1 0.4 0.1 0.7-0.1 0.8-0.3 0.4-0.2 0.4-0.1 0.4-0.4 0.1-0.3 0-0.8 0.2-0.9 0-0.4 0.2-1 1.2-1.7 0.2-0.3 1.5-2.4 0.4-0.4 0.8-0.4 0.5 0 0.5 0.1 0.3 0.2 0.4 0 0.9-0.2 0.3-0.1 0.2-0.2 0.2-0.4 0.1-0.4 0.3-0.8 0.1-0.4 0.1-0.8 0-0.4 0.2-0.4 0.3-0.5 0.1-0.4 0-0.4-0.1-0.7 0-0.4 0.2-0.4 0.5-1 0.6-0.7 0.3-0.5 0.4-0.5 0.4-0.3 3.5-1.2 0.4-0.2 0.4-0.3 0.5-0.9 0.2-0.4 0.3-0.4 0.3-0.8 0.4-0.5 0.6-0.5 1.8-1.2 0.8-0.9 0.7-0.9 0.2-0.4 0.3-0.4 0.5-0.4 1.2-0.8 1.9-0.4 0.2 1 1.5 1.5 0.4 0.7 0.4 0.4 0.3 0.2 0.9 0.5 0.3 0.1 0.4 0.2 0.5 1.8 0.6 1.6 0 0.8-0.1 0.5-0.3 0.7-0.2 0.4-0.1 0.4-0.4 1.2-0.1 0.4-0.2 0.4-0.1 0.5-0.2 0.4 0 0.4 0.2 0.4 0 0.6-0.2 0.3-0.2 0.2-0.2 0.1-0.2 0.1-0.1 0.2-0.1 0.3-0.3 1.5 0 0.4-0.2 0.5-0.3 0.5-0.1 0.2-0.2 0.2 0 0.2 0.1 0.2 0.3 0.2 1.2 0.3 0.3 0.4 0.2 0.5 0.1 0.6 0.1 0.7 0.1 0.4 0 0.4-0.1 0.3-0.5 0.7-0.2 0.5 0.2 0.3 0.2 0.3 0.3 0.3 0.3 0.1 0.6-0.1 0.6 0 0.2-0.2 0.1-0.3 0.3 0 0.4 0.5 0.5 1 0.5 0.5 0.4 0.3 0.3 0 0.3-0.1 0.2-0.1 0.3 0.1-0.2 1.1-0.1 1.5 0.2 0.4 0.2 0.4 0.4 0.2 0.5 0.5 0.1 0.4 0.1 0.4 0 0.3-0.1 0.1-0.1 0.2-0.1 0.2 0.1 0.2 0.2 0.1 0.2 0 0.3-0.1 0.2-0.2 0.3-0.1 0.3-0.1 0.3 0.1 0.3 0.1 0.3 0.3 0.3 0.2 0.9 0.9 0.1 0.3 0 0.2 0 0.2 0.1 1.1 0 1.5 0.1 0.4 0.3 0.2 0.4 0.1 0.4 0.2 0.5 0.4 0.6 1.1 0.2 0.5-0.1 0.5-0.1 0.2 0 0.2 0 0.5 0 0.2 0 0.3-0.2 0.2-0.1 0.5-0.1 0.3 0 0.2-0.2 0.3-0.6 0.6-0.2 0.4-0.1 0.6-0.1 0.5-0.1 0.4-0.1 0.5-0.1 0.6 0.1 0.7 0.3 0.4 0.3 0 0.3-0.3 0.3-0.3 0.3-0.3 1-0.8 0.4-0.1 0.5 0.4 0.3 0.6 0.4 1 0.1 0.6 0 0.5 0 1.1 0.4 2.1-0.3-0.1-0.1 0.1-0.2 0.2 0.1 0.4 0.1 0.4 0.1 0.4 0.2 0.4 0.2 0.3 0.2 0.3 0.1 0.4 0 0.3-0.2 0.4-0.4 0.5-0.6 0.5-0.8 0.2-2.1 0.1 0-0.5-0.2-0.2-0.7-0.4-1.6 0.5-2.5 1.3-1.7 0.3-0.5 0.2-0.4-0.1-0.8-0.6-1.4 0.6-3.8-0.1-0.6 0.4-0.2 0.6-0.2 0.3-0.4 0.2-1.6 0.4-0.3 0.1-0.3 0.2-0.3 0.3-0.8 0.2-0.6 0.3-0.2 0.2 0.1 0.7-0.1 0.3-0.4 0.2-0.9 0.3-0.7 0.5-0.5 0.2-0.7 0-0.5 0.2-0.3 0.1-0.2 0.3-0.4 0.4-0.6 0.6-0.3 0.1-0.7 0.5-0.3 0.4-0.5 0.1-0.6-0.1-1.3-0.8-0.5-0.4-0.1-0.4 0.3-0.3 0.5-0.3 2.5-0.8 0.5 0 0.2-0.2 0.7-0.8 0.2-0.1 0.7-0.3 0.7-0.5 1.9-2 0.5-0.3 0.3-0.1 0.5-0.3 0.2-0.2 0-0.2 0.4-0.5 0.1-0.2 0.3-1.1 0.1-0.3 0-0.5 0-0.2-0.2-0.3-0.4-0.4-1.9-0.9-0.8-0.1-0.6-0.2-0.6-0.1-1 0.2-0.5-0.1-0.2-0.2-0.3-0.2-0.6-0.9-0.3-0.2-0.3-0.1-0.7 0.2-0.4 0-0.4-0.4-0.2-0.3-0.2-0.2-0.2-0.1-2-0.5-1.2-0.6-2.2-0.7-0.5-0.3-0.4-0.3-0.2-0.3-0.2-0.4-0.3-0.3-0.4-0.3-0.9-0.3-0.3-0.1-0.4 0.3-0.4 0.3-0.5 0.2-0.8-0.2-0.6-0.2-1.1-1.1-0.3-0.3-0.3-0.3-0.4 0-1 0.6-1 0.2-0.4 0.3-0.3 0.3-0.3 0.6-0.3 0.5-0.3 0.3-0.5 0.5-0.2 0.1-0.2 0-0.6-0.7-0.6-0.2-0.3-0.3-0.3-0.3-0.3-0.8-0.1-0.3 0-0.4 0.1-0.8-0.1-0.3-0.1-0.4-0.3-0.2-0.2 0-0.2 0-0.5 0.8-0.2 0.4-0.3 0.4-1.2 1.2-0.2 0.5-0.4 0.4-0.6 0.4-1.2 0.5-0.5 0.3-0.4 0.4-0.2 0.3-0.4 0.2-0.5 0.1-0.6-0.2-0.9-0.6z" id="ESMD" name="Comunidad de Madrid">
  </path>
  <path d="M563.3 458.9l0.1-0.1 0-0.1 0-0.1 0-0.1 0-0.1 0-0.1 0.1-0.2 0-0.1-0.1 0-0.1 0 0-0.1 0-0.1-0.1 0 0 0.1-0.1 0-0.2-0.1-0.1-0.2-0.1 0-0.1 0-0.1 0 0-0.1-0.1 0-0.1 0 0-0.1 0-0.1-0.1-0.3 0-0.1 0-0.1-0.1-0.2 0.1 0-0.1 0 0-0.2 0-0.1 0-0.1 0-0.1-0.1 0 0-0.1-0.1 0 0-0.1 0 0.1-0.1 0-0.3 0.1-0.2-0.8 0.5-0.1 0.8 0.2 0.8 0.5 0.7 0.5 0.7 0.1 1.1-0.5-0.3 1.1-1.8 1.3-0.2 0.8-0.3-0.3z" id="ESCE" name="Ceuta">
  </path>
  <path d="M661.6 487.6l0-0.1 0-0.1 0-0.1-0.1-0.1 0-0.1 0 0.1 0 0.1 0.1 0 0 0.1 0 0.1-0.1-0.1-0.1 0 0.1 0.2-0.1 0-0.1-0.1 0 0.1 0.1 0-0.3 0.1-0.6 0.2-0.6-0.6-0.3-0.2 0-0.2 0-0.8 0.1-0.4 0.2-0.2 0.2-0.1-0.1-0.1 0.1 0 0-0.1-0.1 0 0 0.1 0-0.1 0.1-0.2 0.2-0.1 1.4 2.7-0.1 0z" id="ESML" name="Melilla">
  </path>
 </g>
 <g id="points">
  <circle class="28.449798919939386|-17.042010051327626" cx="90.9" cy="812.6" id="0">
  </circle>
  <circle class="34.91028065897241|-5.789853480226222" cx="545.5" cy="505.6" id="1">
  </circle>
  <circle class="42.98588283276368|3.2118717766549025" cx="909.1" cy="85.3" id="2">
  </circle>
 </g>
 <g id="label_points">
  <circle class="Navarra, Comunidad Foral de" cx="712.4" cy="102.8" id="ESNC">
  </circle>
  <circle class="País Vasco" cx="674.1" cy="79.7" id="ESPV">
  </circle>
  <circle class="La Rioja" cx="678.5" cy="122.1" id="ESRI">
  </circle>
  <circle class="Cataluña" cx="841.2" cy="149.6" id="ESCT">
  </circle>
  <circle class="Aragon" cx="753.6" cy="165.5" id="ESAR">
  </circle>
  <circle class="Extremadura" cx="531.5" cy="288.2" id="ESEX">
  </circle>
  <circle class="Galicia" cx="464.1" cy="99.5" id="ESGA">
  </circle>
  <circle class="Castilla y León" cx="578.4" cy="151" id="ESCL">
  </circle>
  <circle class="Comunidad Valenciana" cx="750.1" cy="282.8" id="ESVC">
  </circle>
  <circle class="Murcia" cx="718.9" cy="353.6" id="ESMC">
  </circle>
  <circle class="Andalucía" cx="584.7" cy="373.3" id="ESAN">
  </circle>
  <circle class="Asturias" cx="542.7" cy="67.1" id="ESAS">
  </circle>
  <circle class="Cantabria" cx="613.5" cy="74.3" id="ESCB">
  </circle>
  <circle class="Islas Canarias" cx="213.3" cy="815.8" id="ESCN">
  </circle>
  <circle class="Islas Baleares" cx="899.3" cy="266.8" id="ESIB">
  </circle>
  <circle class="Castilla la Mancha" cx="679.3" cy="277.2" id="ESCM">
  </circle>
  <circle class="Comunidad de Madrid" cx="627.2" cy="219.2" id="ESMD">
  </circle>
  <circle class="Ceuta" cx="563.3" cy="456.9" id="ESCE">
  </circle>
  <circle class="Melilla" cx="660.4" cy="486.7" id="ESML">
  </circle>
 </g>
</svg>