<svg width="4274" height="1025" viewBox="0 0 4274 1025" fill="none" xmlns="http://www.w3.org/2000/svg">
<path d="M0.432129 580.316V606.806L37.2526 610.034L48.2364 619.077V975.034L37.2526 984.08L0.432129 987.306V1013.8H170.976C278.862 1013.8 340.232 968.574 340.232 889.757C340.232 822.572 300.183 787.046 219.427 783.812C286.618 763.138 313.101 734.714 313.101 682.388C313.101 614.556 263.356 580.316 165.166 580.316H0.432129ZM106.378 610.681C136.096 608.74 142.552 608.74 150.308 608.74C214.258 608.74 249.144 637.164 249.144 688.85C249.144 748.926 211.03 777.356 130.927 777.356C125.112 777.356 123.171 777.356 106.378 776.709V610.681ZM106.378 809.008C133.508 806.425 152.889 805.133 170.976 805.133C241.395 805.133 276.281 833.556 276.281 891.698C276.281 955.008 237.52 983.433 152.242 983.433C142.552 983.433 139.97 983.433 106.378 981.492V809.008ZM613.294 575.148L462.125 979.558L424.657 987.306V1013.8H551.277V987.306L509.288 984.08L502.826 975.034L548.69 851.644H701.153L747.664 975.034L743.142 984.08L703.093 987.306V1013.8H849.735V987.306L810.974 979.558L655.93 575.148H613.294ZM623.631 642.98L690.169 821.926H559.674L623.631 642.98ZM948.77 580.316V606.806L985.597 610.034L996.581 619.077V975.034L985.597 984.08L948.77 987.306V1013.8H1102.53V987.306L1065.7 984.08L1054.72 975.034V821.28C1076.68 819.992 1079.91 819.992 1088.96 819.992C1125.78 819.992 1148.39 827.094 1164.54 844.541C1178.11 859.399 1185.22 874.898 1197.49 921.416C1217.52 998.29 1239.48 1018.97 1300.21 1018.97C1316.36 1018.97 1325.4 1017.67 1351.25 1013.15V988.601C1282.77 989.248 1266.61 976.329 1251.11 905.262C1237.54 840.66 1218.81 818.697 1164.54 803.84C1237.54 785.752 1269.2 752.807 1269.2 693.371C1269.2 618.431 1217.52 580.316 1113.51 580.316H948.77ZM1054.72 610.034H1085.73C1169.07 610.034 1204.6 637.164 1204.6 700.474C1204.6 763.138 1169.71 791.569 1092.84 791.569C1085.08 791.569 1076.68 791.569 1054.72 790.274V610.034ZM1785.49 896.865H1750.61L1735.1 968.574L1724.77 978.91C1703.45 985.372 1688.59 987.306 1668.57 987.306C1563.91 987.306 1499.95 914.307 1499.95 794.795C1499.95 678.513 1560.03 606.806 1658.23 606.806C1684.07 606.806 1701.51 610.681 1731.23 623.599L1739.63 635.23L1749.32 694.018H1785.49V594.528C1728.64 577.735 1696.99 572.567 1657.58 572.567C1524.5 572.567 1433.41 662.36 1433.41 794.149C1433.41 856.812 1454.09 912.374 1492.85 954.361C1535.48 999.585 1587.81 1021.55 1655.64 1021.55C1698.93 1021.55 1736.4 1015.09 1785.49 998.939V896.865ZM1925.02 1013.8H2257.73V908.491H2224.13L2213.15 973.742L2204.11 984.08H2030.97V803.192H2136.91L2145.96 812.883L2152.42 859.399H2182.78V717.274H2152.42L2145.96 764.431L2136.91 773.475H2030.97V610.034H2180.2L2189.25 619.724L2198.29 674.638H2234.46V580.316H1925.02V606.806L1961.85 610.034L1972.83 619.077V975.034L1961.85 984.08L1925.02 987.306V1013.8ZM2390.15 1013.8H2699.59V896.219H2666L2655.01 973.742L2645.97 984.08H2500.62V619.077L2510.95 610.034L2547.77 606.806V580.316H2390.15V606.806L2431.49 610.034L2442.47 619.077V975.034L2431.49 984.08L2390.15 987.306V1013.8ZM3000.37 569.979C2875.04 569.979 2788.48 663.007 2788.48 797.377C2788.48 930.459 2875.04 1024.13 2997.79 1024.13C3119.24 1024.13 3205.8 929.813 3205.8 796.736C3205.8 666.235 3118.59 569.979 3000.37 569.979ZM2995.84 604.219C3083.7 604.219 3137.97 678.513 3137.97 798.024C3137.97 914.307 3082.41 989.894 2997.79 989.894C2911.87 989.894 2856.31 913.659 2856.31 796.09C2856.31 679.806 2911.22 604.219 2995.84 604.219ZM3327.96 1013.8H3464.27V987.306L3425.51 982.138L3413.88 969.867V646.855L3660.01 1013.8H3702.65V623.599L3714.28 611.975L3753.04 606.806V580.316H3617.38V606.806L3656.14 611.975L3667.76 623.599V927.231L3447.47 596.469V580.316H3326.02V606.806L3367.36 610.034L3379 619.077V969.867L3367.36 982.138L3327.96 987.306V1013.8ZM4036.77 575.148L3885.6 979.558L3848.13 987.306V1013.8H3974.75V987.306L3932.76 984.08L3926.3 975.034L3972.17 851.644H4124.63L4171.14 975.034L4166.62 984.08L4126.56 987.306V1013.8H4273.21V987.306L4234.45 979.558L4079.41 575.148H4036.77ZM4047.11 642.98L4113.64 821.926H3983.15L4047.11 642.98Z" fill="#040606"/>
<path d="M751.657 290.517L602.155 86.0639V73.0585H509.382V94.3361L541.289 96.6995L547.198 101.42V331.878L540.698 337.793L510.564 341.338V362.609H614.563V341.338L584.429 337.793L577.929 331.878V132.152L747.521 362.609H803.66L781.201 331.878V104.381L787.7 97.8813L817.841 94.3361V73.0585H715.023V94.3361L745.158 97.8813L751.657 104.381V290.517ZM1057.62 73.0585H931.76V94.3361L963.667 96.6995L969.576 101.42V334.247L963.667 338.974L931.76 341.338V362.609H1057.62V341.338L1025.12 338.974L1019.81 334.247V101.42L1025.12 96.6995L1057.62 94.3361V73.0585ZM1277.33 364.382H1316.91L1424.46 99.063L1454.6 94.3361V73.0585H1360.05V94.3361L1390.78 96.6995L1393.73 101.42L1309.82 309.425L1222.96 101.42L1226.5 96.6995L1255.46 94.3361V73.0585H1137.28V94.3361L1167.42 99.063L1277.33 364.382ZM1766.78 73.0585H1534.55V94.3361L1563.5 96.6995L1569.41 101.42V334.247L1563.5 338.974L1534.55 341.338V362.609H1783.33V285.79H1753.78L1744.91 334.247L1736.64 338.974H1619.64V224.333H1689.96L1696.46 228.47L1701.19 260.974H1728.96V163.468H1701.19L1696.46 195.972L1689.96 200.699H1619.64V96.6995H1720.1L1727.19 101.42L1734.87 139.242H1766.78V73.0585ZM1896.18 73.0585V94.3361L1925.14 96.6995L1931.04 101.42V334.247L1925.14 338.974L1896.18 341.338V362.609H2016.14V341.338L1987.18 338.974L1981.27 334.247V235.56C1989.55 234.969 1992.5 234.969 2000.77 234.969C2045.09 234.969 2056.91 245.02 2072.86 295.244C2090.59 351.974 2106.54 366.154 2151.46 366.154C2164.46 366.154 2176.86 364.973 2195.18 361.427V341.929H2185.73C2147.32 341.929 2136.09 333.657 2125.45 297.607C2111.27 245.02 2101.23 232.606 2064 222.561C2113.04 211.334 2136.68 187.7 2136.68 149.878C2136.68 99.063 2096.5 73.0585 2019.09 73.0585H1896.18ZM1981.27 96.6995H1999C2056.31 96.6995 2079.96 113.835 2079.96 154.605C2079.96 194.79 2056.91 211.925 2001.95 211.925C1994.27 211.925 1988.96 211.925 1981.27 211.334V96.6995ZM2286.95 353.155C2317.09 363.791 2340.13 367.336 2374.41 367.336C2451.23 367.336 2501.45 332.469 2501.45 279.29C2501.45 259.792 2493.77 242.066 2479.59 229.651C2465.41 217.243 2455.36 211.925 2417.54 198.335C2359.04 177.064 2344.86 165.831 2344.86 141.606C2344.86 112.653 2367.91 94.927 2405.13 94.927C2418.72 94.927 2428.77 96.6995 2444.14 101.42L2450.04 107.926L2457.73 153.423H2489.04V81.3307C2455.95 71.2859 2432.91 67.7408 2405.13 67.7408C2335.99 67.7408 2292.27 100.836 2292.27 153.423C2292.27 189.472 2310.59 207.789 2369.68 230.833C2414 248.559 2416.95 249.741 2425.22 255.059C2441.77 264.519 2448.86 275.745 2448.86 292.29C2448.86 322.424 2424.04 340.156 2382.09 340.156C2365.54 340.156 2353.73 338.384 2331.86 332.469L2327.13 325.969L2320.63 272.2H2286.95V353.155ZM2749.09 73.0585H2623.23V94.3361L2655.14 96.6995L2661.05 101.42V334.247L2655.14 338.974L2623.23 341.338V362.609H2749.09V341.338L2716.59 338.974L2711.28 334.247V101.42L2716.59 96.6995L2749.09 94.3361V73.0585ZM2892.16 96.6995H2957.74V334.247L2951.84 338.974L2918.75 341.338V362.609H3046.98V341.338L3013.29 338.974L3007.97 334.247V96.6995H3073.57L3080.07 101.42L3087.75 146.333H3118.47V73.0585H2847.25V146.333H2877.97L2886.25 101.42L2892.16 96.6995ZM3304.31 69.5133L3194.99 336.611L3167.22 341.338V362.609H3259.99V341.338L3228.08 338.974L3225.13 334.247L3257.63 253.292H3366.94L3400.63 334.247L3398.26 338.974L3368.71 341.338V362.609H3483.95V341.338L3455.58 336.611L3343.31 69.5133H3304.31ZM3312.58 122.107L3357.49 229.06H3268.26L3312.58 122.107ZM3567.09 96.6995H3632.68V334.247L3626.77 338.974L3593.68 341.338V362.609H3721.91V341.338L3688.23 338.974L3682.91 334.247V96.6995H3748.5L3755 101.42L3762.68 146.333H3793.41V73.0585H3522.18V146.333H3552.91L3561.18 101.42L3567.09 96.6995Z" fill="#040606"/>
<path d="M3885.81 218.78V231.437L3901.34 232.588L3904.22 234.895V345.966L3901.34 348.267L3885.81 349.418V362.081H3958.89C4016.16 362.081 4049.25 335.896 4049.25 290.717C4049.25 245.251 4015.87 218.78 3958.89 218.78H3885.81ZM3941.63 232.88H3953.14C3989.97 232.88 4007.81 251.582 4007.81 290.138C4007.81 329.272 3990.26 347.689 3953.14 347.689H3941.63V232.88ZM4112.61 218.78V231.437L4128.44 232.588L4131.03 234.895V345.966L4128.15 348.267L4112.61 349.418V362.081H4247.57V322.082H4226.56L4221.95 345.387L4219.94 347.689H4168.43V295.033H4195.48L4197.78 296.762L4200.09 313.449H4219.37V262.23H4200.09L4197.78 278.918L4195.48 280.647H4168.43V233.166H4212.17L4214.19 234.895L4217.92 254.17H4239.8V218.78H4112.61Z" fill="#040606"/>
<path d="M406.117 0.133633H281.332V26.0885L319.315 31.1512L331.338 42.5457V267.275C331.338 355.271 297.154 393.254 218.022 393.254C140.157 393.254 105.974 355.271 105.974 267.275V38.1172L116.734 29.2542L155.987 26.0885V0.133633H10.8257V26.9592L36.9732 29.2542L47.7333 38.1172V272.978C47.7333 319.825 52.7961 348.311 65.4593 370.465C88.2482 409.718 139.529 432.507 205.999 432.507C262.971 432.507 310.452 415.415 337.035 385.66C357.293 362.237 365.527 330.585 365.527 272.978V42.5457L376.922 31.1512L406.117 27.2577V0.133633Z" fill="#040606"/>
</svg>
