<?xml version="1.0" encoding="UTF-8"?>
<svg id="UPM" xmlns="http://www.w3.org/2000/svg" viewBox="0 0 342.592 184.252">
  <defs>
    <style>
      .cls-1 {
        fill: #fff;
      }
    </style>
  </defs>
  <g>
    <polygon points="171.066 26.762 171.006 157.298 172.399 157.298 172.394 26.762 171.066 26.762"/>
    <g>
      <path d="M313.621,69.135c0,1.875-.019,3.349-.728,4.133-.574.632-1.34.919-2.316.919h-2.507v-9.913h2.507c.976,0,1.742.287,2.316.919.708.785.728,2.067.728,3.942M315.684,69.135c0-1.971.096-3.961-1.376-5.434-.86-.86-2.104-1.28-3.52-1.28h-4.782v13.62h4.782c1.416,0,2.66-.42,3.52-1.28,1.471-1.472,1.376-3.654,1.376-5.625M299.596,71.547h-4.19l2.124-6.046,2.066,6.046ZM303.307,76.041l-4.993-13.62h-1.665l-4.993,13.62h2.2l.937-2.736h5.376l.937,2.736h2.2ZM287.582,69.135c0,1.875-.019,3.349-.727,4.133-.574.632-1.34.919-2.316.919h-2.507v-9.913h2.507c.976,0,1.742.287,2.316.919.708.785.727,2.067.727,3.942M289.646,69.135c0-1.971.096-3.961-1.376-5.434-.86-.86-2.105-1.28-3.521-1.28h-4.781v13.62h4.781c1.416,0,2.661-.42,3.521-1.28,1.472-1.472,1.376-3.654,1.376-5.625M275.642,62.421h-2.064v13.619h2.064v-13.619ZM270.036,72.159c0-1.167-.363-2.143-1.108-2.793-.573-.517-1.281-.823-2.544-1.015l-1.55-.229c-.631-.096-1.186-.325-1.531-.632-.364-.325-.517-.765-.517-1.263,0-1.206.88-2.124,2.489-2.124,1.149,0,2.124.249,2.966,1.052l1.319-1.301c-1.166-1.089-2.428-1.548-4.227-1.548-2.833,0-4.552,1.624-4.552,3.997,0,1.11.325,1.971.994,2.603.592.555,1.472.938,2.582,1.091l1.608.23c.804.115,1.149.248,1.493.574.364.325.536.822.536,1.416,0,1.32-1.033,2.086-2.814,2.086-1.397,0-2.488-.306-3.482-1.301l-1.376,1.359c1.3,1.318,2.772,1.796,4.82,1.796,2.852,0,4.897-1.49,4.897-3.997M255.671,66.419c0,1.34-.938,2.124-2.316,2.124h-3.063v-4.269h3.063c1.378,0,2.316.804,2.316,2.144M258.156,76.041l-3.136-6.026c1.53-.421,2.715-1.663,2.715-3.615,0-2.316-1.643-3.978-4.227-3.978h-5.28v13.62h2.064v-5.739h2.584l2.871,5.739h2.409ZM244.63,76.041v-1.853h-6.639v-4.097h5.663v-1.835h-5.663v-3.982h6.639v-1.853h-8.703v13.62h8.703ZM233.286,62.421h-2.181l-3.138,9.909-3.138-9.909h-2.143l4.477,13.62h1.607l4.515-13.62ZM220.046,62.421h-2.064v13.619h2.064v-13.619ZM213.656,76.041v-13.62h-2.063v9.564l-6.297-9.564h-1.892v13.62h2.064v-9.583l6.297,9.583h1.892ZM199.288,71.451v-9.03h-2.064v8.935c0,1.818-1.129,2.946-2.833,2.946s-2.813-1.129-2.813-2.946v-8.935h-2.064v9.03c0,2.812,2.102,4.704,4.877,4.704s4.897-1.892,4.897-4.704"/>
      <path d="M310.003,94.759h-4.19l2.124-6.045,2.066,6.045ZM313.715,99.253l-4.993-13.62h-1.665l-4.993,13.62h2.2l.937-2.736h5.376l.937,2.736h2.2ZM300.36,95.18h-2.085c-.325,1.378-1.262,2.335-2.774,2.335-.804,0-1.531-.306-2.009-.823-.669-.727-.822-1.512-.822-4.248s.153-3.521.822-4.249c.478-.516,1.205-.823,2.009-.823,1.512,0,2.43.957,2.755,2.335h2.104c-.478-2.716-2.353-4.188-4.859-4.188-1.416,0-2.64.516-3.577,1.452-1.338,1.339-1.319,2.851-1.319,5.473s-.019,4.133,1.319,5.472c.937.936,2.161,1.452,3.577,1.452,2.468,0,4.4-1.472,4.859-4.188M286.776,85.633h-2.064v13.619h2.064v-13.619ZM280.387,99.253v-13.62h-2.064v9.564l-6.296-9.564h-1.892v13.62h2.063v-9.583l6.297,9.583h1.892ZM266.612,95.18h-2.085c-.325,1.378-1.263,2.335-2.774,2.335-.804,0-1.531-.306-2.009-.823-.67-.727-.823-1.512-.823-4.248s.153-3.521.823-4.249c.478-.516,1.205-.823,2.009-.823,1.511,0,2.429.957,2.755,2.335h2.105c-.478-2.716-2.353-4.188-4.859-4.188-1.416,0-2.64.516-3.577,1.452-1.337,1.339-1.319,2.851-1.319,5.473s-.019,4.133,1.319,5.472c.937.936,2.161,1.452,3.577,1.452,2.468,0,4.4-1.472,4.859-4.188M251.825,81.214h-2.162l-1.435,3.097h1.473l2.124-3.097ZM253.756,99.253v-1.853h-6.639v-4.097h5.663v-1.835h-5.663v-3.982h6.639v-1.853h-8.703v13.62h8.703ZM241.933,87.487v-1.853h-9.564v1.853h3.75v11.766h2.064v-11.766h3.75ZM229.248,85.633h-2.064v13.619h2.064v-13.619ZM224.064,99.253v-1.853h-6.562v-11.766h-2.064v13.62h8.626ZM209.545,92.444c0,2.736-.134,3.502-.804,4.229-.478.517-1.225.842-2.029.842s-1.55-.325-2.029-.842c-.67-.727-.804-1.492-.804-4.229s.134-3.502.804-4.229c.479-.517,1.225-.842,2.029-.842s1.55.325,2.029.842c.67.727.804,1.492.804,4.229M211.609,92.444c0-2.622.038-4.134-1.299-5.473-.937-.936-2.142-1.452-3.597-1.452s-2.641.516-3.578,1.452c-1.338,1.339-1.319,2.851-1.319,5.473s-.019,4.133,1.319,5.472c.937.936,2.124,1.452,3.578,1.452s2.66-.516,3.597-1.452c1.337-1.339,1.299-2.851,1.299-5.472M196.976,89.765c0,1.436-.976,2.259-2.412,2.259h-2.986v-4.537h2.986c1.436,0,2.412.842,2.412,2.278M199.04,89.765c0-2.373-1.701-4.131-4.361-4.131h-5.164v13.62h2.063v-5.357h3.101c2.66,0,4.361-1.758,4.361-4.131"/>
      <path d="M290.529,115.94c0,1.875-.019,3.349-.728,4.133-.574.632-1.34.919-2.316.919h-2.507v-9.913h2.507c.976,0,1.742.287,2.316.919.708.785.728,2.067.728,3.942M292.592,115.94c0-1.971.096-3.961-1.376-5.434-.86-.86-2.104-1.28-3.521-1.28h-4.781v13.62h4.781c1.417,0,2.661-.42,3.521-1.28,1.471-1.472,1.376-3.654,1.376-5.625M278.588,109.225h-2.064v13.619h2.064v-13.619ZM270.67,113.223c0,1.34-.938,2.124-2.316,2.124h-3.063v-4.269h3.063c1.378,0,2.316.804,2.316,2.144M273.155,122.845l-3.136-6.026c1.53-.421,2.715-1.663,2.715-3.615,0-2.316-1.643-3.978-4.226-3.978h-5.28v13.62h2.063v-5.739h2.584l2.871,5.739h2.408ZM257.336,115.94c0,1.875-.019,3.349-.728,4.133-.574.632-1.34.919-2.316.919h-2.507v-9.913h2.507c.976,0,1.742.287,2.316.919.708.785.728,2.067.728,3.942M259.4,115.94c0-1.971.095-3.961-1.376-5.434-.86-.86-2.104-1.28-3.52-1.28h-4.782v13.62h4.782c1.416,0,2.66-.42,3.52-1.28,1.471-1.472,1.376-3.654,1.376-5.625M243.311,118.352h-4.19l2.124-6.046,2.066,6.046ZM247.023,122.845l-4.993-13.62h-1.665l-4.993,13.62h2.2l.937-2.736h5.376l.937,2.736h2.2ZM232.692,122.845v-13.62h-2.064l-3.904,8.474-3.981-8.474h-2.063v13.62h2.063v-9.105l3.215,6.637h1.531l3.139-6.637v9.105h2.064ZM211.724,122.845v-1.853h-6.639v-4.097h5.663v-1.835h-5.663v-3.982h6.639v-1.853h-8.703v13.62h8.703ZM197.129,115.94c0,1.875-.019,3.349-.727,4.133-.575.632-1.34.919-2.316.919h-2.507v-9.913h2.507c.976,0,1.742.287,2.316.919.708.785.727,2.067.727,3.942M199.193,115.94c0-1.971.096-3.961-1.376-5.434-.861-.86-2.105-1.28-3.521-1.28h-4.781v13.62h4.781c1.416,0,2.66-.42,3.521-1.28,1.472-1.472,1.376-3.654,1.376-5.625"/>
    </g>
  </g>
  <g>
    <path d="M139.917,145.059h3.377l-1.668-3.993-1.709,3.993ZM51.29,138.74c-2.835,0-5.144,2.325-5.144,5.193s2.309,5.201,5.144,5.201,5.144-2.334,5.144-5.201-2.301-5.193-5.144-5.193ZM37.452,138.97h-.156v4.01h.6c1.857,0,2.687-.633,2.687-2.038,0-1.668-1.052-1.972-3.131-1.972ZM153.557,156.45c-1.745.389-35.325.611-39.227.874-2.349.158-66.233-.5-66.233-.5l-21.085-.305s-.337-24.531-.314-25.21c.043-1.243,20.35-.61,25.368-.61,5.088,0,49.869.234,49.869.234l30.749.519,19.978.583c.033.653,1.524,24.273.895,24.414ZM84.153,135.584c.018.112.083.211.178.273l.643.415c.15.097.345.083.479-.035l2.286-2.004c.104-.091.154-.229.13-.366-.023-.137-.115-.251-.243-.304l-1.23-.495c-.161-.066-.348-.018-.457.117l-1.699,2.084c-.072.088-.103.202-.085.314ZM42.892,140.975c0-1.397-.641-2.67-1.701-3.41-1.052-.731-2.292-.789-3.583-.789h-2.219c-.222,0-.403.173-.403.394v13.525c0,.222.181.394.403.394h1.504c.222,0,.403-.173.403-.394v-5.522h.69c1.06,0,2.408-.115,3.468-.986.896-.748,1.438-1.947,1.438-3.213ZM58.742,143.949c0-4.084-3.344-7.412-7.453-7.412s-7.444,3.328-7.444,7.412,3.344,7.379,7.444,7.379,7.453-3.311,7.453-7.379ZM66.097,149.295c0-.22-.178-.399-.399-.399h-3.332v-11.725c0-.22-.178-.399-.398-.399h-1.507c-.22,0-.399.178-.399.399v13.522c0,.22.178.399.399.399h5.237c.22,0,.399-.178.399-.399v-1.399ZM69.881,137.172c0-.22-.178-.399-.398-.399h-1.507c-.22,0-.399.178-.399.399v13.522c0,.22.178.399.399.399h1.507c.22,0,.398-.178.398-.399v-13.522ZM80.006,137.172c0-.22-.178-.399-.399-.399h-8.071c-.22,0-.399.178-.399.399v1.399c0,.22.178.399.399.399h2.866v11.725c0,.22.178.399.399.399h1.507c.219,0,.398-.178.398-.399v-11.725h2.902c.221,0,.399-.178.399-.399v-1.399ZM89.18,137.216c0-.22-.178-.399-.399-.399h-7.013c-.22,0-.399.178-.399.399v13.523c0,.221.178.399.399.399h7.013c.22,0,.399-.178.399-.399v-1.399c0-.22-.178-.399-.399-.399h-5.107v-4.511h4.946c.22,0,.399-.178.399-.399v-1.399c0-.22-.178-.399-.399-.399h-4.946v-3.221h5.107c.22,0,.399-.178.399-.399v-1.399ZM101.848,138.266c0-.126-.059-.244-.16-.32-1.269-.947-2.667-1.407-4.274-1.407-4.106,0-7.447,3.341-7.447,7.447,0,4.047,3.341,7.34,7.447,7.34,1.5,0,3.016-.498,4.268-1.403.104-.075.165-.195.165-.323v-1.865c0-.161-.097-.307-.246-.368-.149-.062-.321-.028-.434.086-1.066,1.066-2.455,1.677-3.808,1.677-2.759,0-5.09-2.38-5.09-5.197s2.315-5.196,5.054-5.196c1.412,0,2.811.609,3.84,1.671.113.117.285.153.436.092.151-.061.249-.207.249-.369v-1.864ZM116.497,137.172c0-.22-.178-.399-.399-.399h-1.505c-.22,0-.399.178-.399.399v9.479l-9.859-10.328c-.113-.118-.285-.156-.436-.095-.152.06-.251.207-.251.37v14.096c0,.22.178.399.399.399h1.506c.221,0,.399-.178.399-.399v-9.426l9.858,10.311c.113.117.285.155.436.095.151-.061.25-.208.25-.37v-14.133ZM121.065,137.172c0-.22-.178-.399-.398-.399h-1.507c-.22,0-.399.178-.399.399v13.522c0,.22.178.399.399.399h1.507c.22,0,.398-.178.398-.399v-13.522ZM134.457,138.266c0-.126-.059-.244-.16-.32-1.268-.947-2.666-1.407-4.274-1.407-4.106,0-7.447,3.341-7.447,7.447,0,4.047,3.341,7.34,7.447,7.34,1.5,0,3.017-.498,4.268-1.403.104-.075.165-.195.165-.323v-1.865c0-.161-.097-.307-.246-.368-.149-.062-.32-.028-.434.086-1.066,1.066-2.454,1.677-3.809,1.677-2.758,0-5.089-2.38-5.089-5.197s2.316-5.196,5.055-5.196c1.411,0,2.811.609,3.838,1.671.113.117.286.153.436.092.151-.061.249-.207.249-.369v-1.864ZM148.11,150.539l-6.081-14.174c-.057-.14-.205-.238-.362-.238s-.304.09-.37.238l-6.237,14.166c-.057.123-.041.271.033.378.074.115.197.181.329.181h1.652c.164,0,.304-.09.37-.238l1.528-3.599h5.242l1.496,3.591c.057.156.205.246.37.246h1.668c.131,0,.255-.066.329-.173.074-.115.09-.255.033-.378Z"/>
    <g>
      <path class="cls-1" d="M148.11,150.539l-6.081-14.174c-.057-.14-.205-.238-.362-.238s-.304.09-.37.238l-6.237,14.166c-.057.123-.041.271.033.378.074.115.197.181.329.181h1.652c.164,0,.304-.09.37-.238l1.528-3.599h5.242l1.496,3.591c.057.156.205.246.37.246h1.668c.131,0,.255-.066.329-.173.074-.115.09-.255.033-.378ZM139.917,145.059l1.709-3.993,1.668,3.993h-3.377Z"/>
      <path class="cls-1" d="M130.023,136.539c-4.106,0-7.447,3.341-7.447,7.447,0,4.047,3.341,7.34,7.447,7.34,1.5,0,3.017-.498,4.268-1.403.104-.075.165-.195.165-.323v-1.865c0-.161-.097-.307-.246-.368-.149-.062-.32-.028-.434.086-1.066,1.066-2.454,1.677-3.809,1.677-2.758,0-5.089-2.38-5.089-5.197s2.316-5.196,5.055-5.196c1.411,0,2.811.609,3.838,1.671.113.117.286.153.436.092.151-.061.249-.207.249-.369v-1.864c0-.126-.059-.244-.16-.32-1.268-.947-2.666-1.407-4.274-1.407Z"/>
      <path class="cls-1" d="M119.159,136.773h1.507c.22,0,.399.179.399.399v13.522c0,.22-.179.399-.399.399h-1.507c-.22,0-.398-.178-.398-.398v-13.524c0-.22.178-.398.398-.398Z"/>
      <path class="cls-1" d="M116.098,136.773h-1.505c-.22,0-.399.178-.399.399v9.479l-9.859-10.328c-.113-.118-.285-.156-.436-.095-.152.06-.251.207-.251.37v14.096c0,.22.178.399.399.399h1.506c.221,0,.399-.178.399-.399v-9.426l9.858,10.311c.113.117.285.155.436.095.151-.061.25-.208.25-.37v-14.133c0-.22-.178-.399-.399-.399Z"/>
      <path class="cls-1" d="M97.415,136.539c-4.106,0-7.447,3.341-7.447,7.447,0,4.047,3.341,7.34,7.447,7.34,1.5,0,3.016-.498,4.268-1.403.104-.075.165-.195.165-.323v-1.865c0-.161-.097-.307-.246-.368-.149-.062-.321-.028-.434.086-1.066,1.066-2.455,1.677-3.808,1.677-2.759,0-5.09-2.38-5.09-5.197s2.315-5.196,5.054-5.196c1.412,0,2.811.609,3.84,1.671.113.117.285.153.436.092.151-.061.249-.207.249-.369v-1.864c0-.126-.059-.244-.16-.32-1.269-.947-2.667-1.407-4.274-1.407Z"/>
      <path class="cls-1" d="M88.782,136.817h-7.013c-.22,0-.399.178-.399.399v13.523c0,.221.178.399.399.399h7.013c.22,0,.399-.178.399-.399v-1.399c0-.22-.178-.399-.399-.399h-5.107v-4.511h4.946c.22,0,.399-.178.399-.399v-1.399c0-.22-.178-.399-.399-.399h-4.946v-3.221h5.107c.22,0,.399-.178.399-.399v-1.399c0-.22-.178-.399-.399-.399Z"/>
      <path class="cls-1" d="M84.33,135.856l.643.415c.15.097.345.083.479-.035l2.286-2.004c.104-.091.154-.229.13-.366-.023-.137-.115-.251-.243-.304l-1.23-.495c-.161-.066-.348-.018-.457.117l-1.699,2.084c-.072.088-.103.202-.085.314.018.112.083.211.178.273Z"/>
      <path class="cls-1" d="M79.607,136.773h-8.071c-.22,0-.399.178-.399.399v1.399c0,.22.178.399.399.399h2.866v11.725c0,.22.178.399.399.399h1.507c.219,0,.398-.178.398-.399v-11.725h2.902c.221,0,.399-.178.399-.399v-1.399c0-.22-.178-.399-.399-.399Z"/>
      <path class="cls-1" d="M67.977,136.773h1.506c.22,0,.399.179.399.399v13.522c0,.22-.179.399-.399.399h-1.507c-.22,0-.398-.178-.398-.398v-13.523c0-.22.179-.399.399-.399Z"/>
      <path class="cls-1" d="M65.698,148.897h-3.332v-11.725c0-.22-.178-.399-.398-.399h-1.507c-.22,0-.399.178-.399.399v13.522c0,.22.178.399.399.399h5.237c.22,0,.399-.178.399-.399v-1.399c0-.22-.178-.399-.399-.399Z"/>
      <path class="cls-1" d="M51.29,136.538c-4.1,0-7.444,3.328-7.444,7.412s3.344,7.379,7.444,7.379,7.453-3.311,7.453-7.379-3.344-7.412-7.453-7.412ZM51.29,149.134c-2.835,0-5.144-2.334-5.144-5.201s2.309-5.193,5.144-5.193,5.144,2.325,5.144,5.193-2.301,5.201-5.144,5.201Z"/>
      <path class="cls-1" d="M41.191,137.565c-1.052-.731-2.292-.789-3.583-.789h-2.219c-.222,0-.403.173-.403.394v13.525c0,.222.181.394.403.394h1.504c.222,0,.403-.173.403-.394v-5.522h.69c1.06,0,2.408-.115,3.468-.986.896-.748,1.438-1.947,1.438-3.213,0-1.397-.641-2.67-1.701-3.41ZM37.896,142.98h-.6v-4.01h.156c2.079,0,3.131.304,3.131,1.972,0,1.405-.83,2.038-2.687,2.038Z"/>
    </g>
  </g>
  <g>
    <g>
      <path class="cls-1" d="M132.07,74.77c0,26.259-18.73,47.547-41.834,47.547s-41.834-21.287-41.834-47.547,18.73-47.546,41.834-47.546,41.834,21.287,41.834,47.546Z"/>
      <g>
        <path d="M99.384,90.304h0v-11.238l-.688-.123v10.672h-7.473c-.692,0-1.043.606-1.043.606,0,0-.337-.606-1.026-.606h-7.475v-10.672l-.688.123v11.238h8.165c.224.309.621.523,1.032.523s.809-.214,1.032-.523h8.165Z"/>
        <polygon points="82.148 89.187 82.148 78.567 81.955 78.567 81.955 89.381 89.189 89.381 89.189 89.187 82.148 89.187"/>
        <rect x="91.259" y="89.187" width="7.234" height=".193"/>
        <rect x="98.3" y="78.567" width=".194" height="10.621"/>
        <path d="M97.578,88.217h-6.007c-.409,0-.609.305-.609.305v-9.032c0-.609.626-.609.626-.609h5.991v9.337ZM98.007,88.873v-10.55h-6.769s-.707,0-.707.688v10.206s.226-.344.688-.344h6.788Z"/>
        <rect x="83.516" y="79.821" width="1.982" height=".305"/>
        <rect x="83.516" y="82.385" width="1.982" height=".305"/>
        <rect x="83.516" y="84.947" width="1.982" height=".305"/>
        <rect x="85.737" y="79.821" width=".359" height=".305"/>
        <rect x="85.737" y="82.385" width=".359" height=".305"/>
        <rect x="85.737" y="84.947" width=".359" height=".305"/>
        <rect x="83.516" y="80.675" width=".359" height=".305"/>
        <rect x="83.516" y="83.239" width=".359" height=".305"/>
        <rect x="83.516" y="85.802" width=".359" height=".305"/>
        <rect x="87.241" y="81.529" width="1.453" height=".305"/>
        <rect x="87.241" y="84.094" width="1.453" height=".304"/>
        <rect x="87.241" y="86.657" width="1.453" height=".305"/>
        <rect x="86.335" y="79.821" width=".854" height=".305"/>
        <rect x="86.335" y="82.385" width=".854" height=".305"/>
        <rect x="86.335" y="84.947" width=".854" height=".305"/>
        <rect x="84.115" y="80.675" width=".854" height=".305"/>
        <rect x="84.115" y="83.239" width=".854" height=".305"/>
        <rect x="84.115" y="85.802" width=".854" height=".305"/>
        <rect x="86.712" y="80.675" width=".854" height=".305"/>
        <rect x="86.712" y="83.239" width=".854" height=".305"/>
        <rect x="86.712" y="85.802" width=".854" height=".305"/>
        <rect x="85.019" y="81.529" width=".854" height=".305"/>
        <rect x="85.019" y="84.094" width=".854" height=".304"/>
        <rect x="85.019" y="86.657" width=".854" height=".305"/>
        <rect x="87.805" y="80.675" width=".888" height=".305"/>
        <rect x="87.805" y="83.239" width=".888" height=".305"/>
        <rect x="87.805" y="85.802" width=".888" height=".305"/>
        <rect x="86.114" y="81.529" width=".888" height=".305"/>
        <rect x="86.114" y="84.094" width=".888" height=".304"/>
        <rect x="86.114" y="86.657" width=".888" height=".305"/>
        <rect x="87.43" y="79.821" width="1.264" height=".305"/>
        <rect x="87.43" y="82.385" width="1.264" height=".305"/>
        <rect x="87.43" y="84.947" width="1.264" height=".305"/>
        <rect x="85.208" y="80.675" width="1.265" height=".305"/>
        <rect x="85.208" y="83.239" width="1.265" height=".305"/>
        <rect x="85.208" y="85.802" width="1.265" height=".305"/>
        <rect x="83.516" y="81.529" width="1.264" height=".305"/>
        <rect x="83.516" y="84.094" width="1.264" height=".304"/>
        <rect x="83.516" y="86.657" width="1.264" height=".305"/>
        <rect x="91.68" y="86.657" width="1.983" height=".305"/>
        <rect x="91.68" y="84.093" width="1.983" height=".305"/>
        <rect x="91.68" y="81.53" width="1.983" height=".305"/>
        <rect x="93.902" y="86.657" width=".359" height=".305"/>
        <rect x="93.902" y="84.093" width=".359" height=".305"/>
        <rect x="93.902" y="81.53" width=".359" height=".305"/>
        <rect x="91.68" y="85.803" width=".359" height=".305"/>
        <rect x="91.68" y="83.239" width=".359" height=".305"/>
        <rect x="91.68" y="80.676" width=".359" height=".305"/>
        <rect x="95.406" y="84.948" width="1.453" height=".305"/>
        <rect x="95.406" y="82.385" width="1.453" height=".305"/>
        <rect x="95.406" y="79.821" width="1.453" height=".305"/>
        <rect x="94.5" y="86.657" width=".854" height=".305"/>
        <rect x="94.5" y="84.093" width=".854" height=".305"/>
        <rect x="94.5" y="81.53" width=".854" height=".305"/>
        <rect x="92.278" y="85.803" width=".854" height=".305"/>
        <rect x="92.278" y="83.239" width=".854" height=".305"/>
        <rect x="92.278" y="80.676" width=".854" height=".305"/>
        <rect x="94.876" y="85.803" width=".854" height=".305"/>
        <rect x="94.876" y="83.239" width=".854" height=".305"/>
        <rect x="94.876" y="80.676" width=".854" height=".305"/>
        <rect x="93.185" y="84.948" width=".854" height=".305"/>
        <rect x="93.185" y="82.385" width=".854" height=".305"/>
        <rect x="93.185" y="79.821" width=".854" height=".305"/>
        <rect x="95.97" y="85.803" width=".888" height=".305"/>
        <rect x="95.97" y="83.239" width=".888" height=".305"/>
        <rect x="95.97" y="80.676" width=".888" height=".305"/>
        <rect x="94.277" y="84.948" width=".888" height=".305"/>
        <rect x="94.277" y="82.385" width=".888" height=".305"/>
        <rect x="94.277" y="79.821" width=".888" height=".305"/>
        <rect x="95.593" y="86.657" width="1.265" height=".305"/>
        <rect x="95.593" y="84.093" width="1.265" height=".305"/>
        <rect x="95.593" y="81.53" width="1.265" height=".305"/>
        <rect x="93.372" y="85.803" width="1.264" height=".305"/>
        <rect x="93.372" y="83.239" width="1.264" height=".305"/>
        <rect x="93.372" y="80.676" width="1.264" height=".305"/>
        <rect x="91.68" y="84.948" width="1.265" height=".305"/>
        <rect x="91.68" y="82.385" width="1.265" height=".305"/>
        <rect x="91.68" y="79.821" width="1.265" height=".305"/>
        <rect x="91.259" y="89.187" width="7.234" height=".193"/>
        <rect x="91.259" y="89.187" width="7.234" height=".193"/>
        <path d="M97.298,71.069l-.206-.045c-.183-.042-.351-.135-.482-.271l-.15-.156c-.163-.169-.382-.271-.616-.29-.271-.021-.52-.156-.686-.37l-.124-.163c-.118-.154-.278-.266-.46-.327,0,0-.391-.109-.5-.164-.109-.066-.076-.232.05-.249l4.658-.65-4.658-.65c-.074-.01-.116-.071-.116-.133,0-.045.021-.09.067-.116.112-.074.413-.373.413-.373.15-.135.339-.22.541-.24l.102-.01c.268-.028.512-.168.673-.386l.062-.086c.133-.182.327-.311.546-.363l.166-.04c.182-.045.346-.142.474-.278l.19-.202c.114-.123.258-.213.418-.263l.482-.147-.548.021c-.169.007-.334.059-.477.15l-.176.112c-.159.102-.344.154-.533.15l-.216-.005h-.014c-.23,0-.451.081-.626.232-.207.176-.479.258-.749.221l-.202-.026c-.192-.024-.386.009-.557.095,0,0-.088.05-.19.104-.104.055-.221.114-.278.133-.123.033-.218-.109-.142-.211l2.834-3.754-3.754,2.834c-.1.078-.254-.016-.211-.14.054-.154.029-.555.029-.555.01-.202.085-.396.213-.553l.064-.08c.171-.209.244-.481.204-.749l-.017-.104c-.035-.223.012-.451.13-.645l.088-.145c.099-.159.147-.344.14-.533l-.01-.277c-.005-.168.033-.334.111-.481l.237-.446-.372.403c-.116.124-.195.277-.232.443l-.045.206c-.041.183-.135.351-.27.482l-.157.149c-.168.164-.271.382-.289.617-.021.27-.156.52-.372.686l-.163.124c-.152.116-.266.277-.327.46,0,0-.107.391-.164.498v.002c-.064.109-.232.074-.249-.052l-.65-4.656-.659,4.655.002.003c-.019.124-.194.157-.251.048-.055-.109-.163-.498-.163-.498-.061-.183-.175-.344-.327-.462l-.163-.124c-.214-.166-.349-.415-.37-.686-.019-.233-.121-.453-.291-.616l-.156-.15c-.135-.131-.23-.299-.27-.482l-.045-.206c-.036-.166-.118-.318-.232-.443l-.372-.403.237.446c.078.149.116.315.111.482l-.01.277c-.007.187.041.372.138.533l.09.144c.118.194.163.422.128.645l-.016.104c-.041.268.031.539.202.75l.064.078c.128.157.202.351.213.553,0,0,.002.425.028.557.028.13-.109.218-.211.14l-.002-.002-3.743-2.83,2.834,3.752c.078.102-.017.244-.14.211l-.007.003c-.116-.036-.469-.237-.469-.237-.171-.086-.365-.119-.557-.093l-.202.026c-.042.005-.085.009-.126.009-.227,0-.448-.081-.622-.23-.178-.154-.405-.235-.64-.232l-.216.005c-.188.003-.373-.05-.533-.15l-.178-.114c-.142-.09-.306-.142-.475-.149l-.548-.021.482.147c.161.048.304.14.418.263l.19.202c.128.137.292.233.474.278l.166.04c.22.052.413.182.546.363l.062.086c.161.218.405.358.673.386l.102.01c.202.021.391.105.541.24,0,0,.303.299.413.372l.007-.003c.109.066.076.232-.05.249l-4.656.652,4.656.65c.126.017.159.183.05.249h-.002c-.109.055-.498.164-.498.164-.183.059-.344.173-.462.325l-.124.163c-.164.216-.415.351-.686.372-.233.019-.453.121-.616.29l-.15.156c-.13.137-.297.23-.482.27l-.204.047c-.166.036-.318.116-.443.232l-.403.372.444-.237c.149-.078.315-.118.482-.111l.277.009c.188.007.373-.041.533-.138l.145-.088c.192-.119.42-.164.643-.13l.105.016c.266.041.539-.033.749-.202l.08-.064c.157-.128.351-.202.553-.214,0,0,.424,0,.555-.028l.002-.002c.123-.031.216.111.138.213l-2.83,3.752,3.752-2.834c.102-.076.244.019.211.142v.002c-.036.116-.237.469-.237.469-.086.171-.119.365-.093.557l.026.202c.005.041.009.085.009.126,0,.227-.081.448-.232.622-.152.178-.233.405-.23.64l.003.216c.003.188-.048.373-.149.533l-.114.178c-.09.142-.142.306-.149.475l-.021.548.147-.482c.048-.161.14-.304.263-.418l.202-.19c.137-.128.233-.292.277-.474l.041-.166c.052-.22.182-.413.363-.546l.086-.062c.218-.161.358-.405.386-.673l.01-.102c.021-.202.105-.391.24-.541,0,0,.299-.303.372-.413.073-.112.23-.078.249.047l.652,4.658.648-4.658c.01-.074.073-.116.135-.116.043,0,.088.021.116.067.074.112.372.413.372.413.137.15.22.341.24.541l.012.102c.028.268.168.514.384.673l.086.062c.182.135.311.329.363.548l.04.164c.045.182.142.348.278.475l.202.188c.123.114.213.259.261.42l.149.482-.022-.548c-.005-.169-.057-.334-.149-.477l-.112-.176c-.102-.159-.154-.344-.15-.533l.005-.216v-.014c0-.23-.081-.453-.23-.628-.178-.206-.258-.479-.223-.747l.028-.204c.024-.19-.009-.384-.095-.557,0,0-.199-.351-.237-.469h-.002c-.031-.123.111-.218.213-.142l3.752,2.834-2.834-3.754c-.076-.1.017-.24.14-.211.131.028.557.029.557.029.202.01.396.085.553.213l.078.064c.211.169.482.244.749.202l.105-.016c.223-.035.451.012.643.13l.145.088c.161.097.346.145.533.138l.277-.009c.168-.007.334.033.482.111l.444.237-.401-.372c-.125-.116-.278-.195-.443-.232ZM90.203,71.571c-1.759,0-3.186-1.426-3.186-3.186s1.426-3.186,3.186-3.186,3.186,1.426,3.186,3.186-1.425,3.186-3.186,3.186ZM92.264,68.327c-.123.185-.014.261.029.453.076.33-.342.673-.161.683s.278-.213.313-.306c.021-.057.147-.437.131-.539-.012-.071-.149-.214-.218-.296-.021-.024-.078-.022-.095.005ZM90.82,67.132c.017.007.036.007.055.007.169-.003.339-.005.508-.009.061-.002.119-.002.178-.012.086-.014.173-.047.259-.031.163.031.242.207.425.128.149-.064-.028-.251-.093-.306-.062-.052-.13-.066-.206-.095-.092-.035-.19-.062-.289-.052-.102.009-.195.057-.292.088-.169.055-.349.064-.527.061-.036,0-.119-.003-.142.036-.002.002-.002.003-.003.005-.019.047.059.119.088.149.01.012.022.024.038.031ZM92.1,67.554c-.33-.325-.737-.192-1.112-.159-.067.007-.112.04-.142.076-.074.09-.097.353.028.41.128.057.08-.055.332.054.074.031.209.073.292.076.206.009.353-.116.496-.27.061-.064.207-.086.105-.187ZM91.313,69.271c-.09.036-.099.259-.403.296-.306.036-1.075.01-1.264-.036-.221-.055-.335-.109-.446-.175-.195-.119-.313.166-.301.256.003.029.031.052.062.052.067-.003.135-.071.266-.064.061.003.28.099.337.123.135.059.408.171.565.183.214.019.636-.043.699-.08.1-.059.209-.23.304-.242.107-.014.367.054.431.045.062-.009.088-.144.035-.206-.054-.062-.195-.188-.285-.152ZM89.333,68.671c-.062.126-.028.332.116.394.143.062.332.028.422.054.09.028.251.144.358.135.107-.01.206-.062.304-.126.099-.062.135-.017.287-.054.152-.035.268-.124.251-.294-.019-.171-.206-.349-.206-.349,0,0,.017.133-.019.277-.035.144-.161.116-.259.135-.099.017-.107.161-.332.169-.223.009-.178-.116-.251-.169-.071-.054-.304-.009-.403-.081-.093-.067.08-.41.097-.443-.017.01-.304.232-.365.353ZM90.73,70.238c-.296,0-.645.071-.825.026-.178-.045-.339-.206-.339-.206,0,0,.009.225.062.304.054.081.169.233.259.322.09.09.501.009.673,0,.169-.009.152-.124.178-.24.028-.116.287-.206-.009-.206ZM89.268,67.333c-.059-.024-.1-.062-.105-.159-.005-.097.169-.069.296-.033s.111.016.118-.002c.003-.009-.009-.1-.055-.176-.01-.019-.118-.08-.183-.1-.226-.074-.335-.135-.474-.092-.335.104-.437.102-.552.202-.076.069-.105.14-.143.237-.01.024-.002.062.067.031.154-.066.394-.157.493-.176.116-.022.218-.028.278.069.067.102-.024.119-.092.124-.394.04-.593.315-.638.377-.014.017.095.055.133.099.064.071.097.131.201.207.275.204.852-.154,1.003-.154.204,0-.164-.387-.346-.455ZM88.146,68.357c-.016,0-.041.012-.062.019-.1.038-.228.448-.157.598.047.099.105.252.169.456.029.092.199.199.266.23.028.012.08.024.088-.002.038-.114-.126-.32-.265-.659-.118-.292.062-.647-.04-.643Z"/>
        <g>
          <path d="M112.373,97.537c-.912-.304-1.816-.64-2.688-.998-.446-.837-.931-1.672-1.441-2.484l-.193-.307-.234.277c-.514.61-1.198,1.307-2.089,2.127l-1.199-1.332c-.357-.393-.885-.49-1.204-.22-1.822,1.559-3.882,2.769-6.123,3.596-2.229.824-4.579,1.243-6.994,1.243s-4.756-.418-6.986-1.243c-2.24-.827-4.3-2.037-6.123-3.597-.318-.27-.846-.174-1.203.221l-1.201,1.334c-.869-.801-1.571-1.517-2.088-2.13l-.234-.277-.193.307c-.51.812-.994,1.647-1.441,2.484-.872.358-1.777.694-2.689.998l-.37.123.251.298c1.597,1.896,3.429,3.584,5.449,5.019.459.319.825.226,1.003.142.109-.052.208-.128.287-.223h.002s1.125-1.647,1.125-1.647c1.661,1.091,3.446,1.992,5.307,2.678,2.906,1.076,5.966,1.622,9.093,1.622h.027c3.127,0,6.186-.546,9.093-1.621,1.862-.687,3.648-1.588,5.309-2.679l1.071,1.578.058.084.005-.003c.078.09.173.163.278.213.177.084.543.178,1.005-.144,2.017-1.432,3.849-3.12,5.446-5.017l.251-.298-.369-.123ZM72.288,98.831c-.209.227-.318.534-.299.843.018.294.152.562.378.756.252.216.474.432.695.647.356.347.691.675,1.149.996.127.088.147.202.14.282h0c-.005.06-.025.119-.061.172-.034.05-.079.09-.13.114-.128.06-.297.025-.473-.097-1.874-1.331-3.587-2.889-5.095-4.63.826-.284,1.646-.594,2.44-.922l.088-.036.045-.084c.398-.75.827-1.5,1.277-2.231.5.565,1.139,1.206,1.901,1.908l-2.054,2.282ZM72.711,100.028c-.149-.128-.188-.28-.194-.386-.012-.203.034-.341.144-.436.057-.049.123-.067.187-.067.116,0,.229.059.284.105.71.608,1.459,1.183,2.228,1.711l-.621.912c-.06-.088-.137-.166-.227-.228-.419-.294-.74-.607-1.083-.942-.222-.217-.452-.441-.718-.669ZM107.274,98.67c-.126.04-.239.1-.323.172-2.326,1.99-4.955,3.533-7.815,4.588h0c-2.848,1.054-5.845,1.589-8.909,1.589h-.026c-3.064,0-6.062-.535-8.91-1.589-2.859-1.054-5.488-2.598-7.815-4.589-.096-.082-.208-.14-.33-.172l3.145-3.495c.178-.197.395-.233.467-.173,1.87,1.6,3.984,2.841,6.283,3.69,2.289.846,4.7,1.276,7.178,1.276s4.881-.429,7.168-1.276c2.299-.848,4.413-2.09,6.283-3.69.07-.06.292-.021.468.172.659.732,1.482,1.646,2.166,2.408l.972,1.087ZM107.295,99.244c.094-.08.285-.163.414-.092.118.065.187.131.24.229.05.093.072.225.065.391-.003.084-.033.247-.194.384-.675.577-1.208.993-1.902,1.48-.092.063-.169.141-.229.23l-.619-.913c.768-.527,1.517-1.102,2.226-1.709ZM106.219,102.071c.711-.499,1.256-.923,1.945-1.512.226-.194.361-.462.379-.756.018-.308-.09-.615-.297-.84l-.465-.52c-.075-.085-.166-.187-.274-.308-.23-.257-.514-.574-.814-.908l-.61-.682c.781-.719,1.405-1.344,1.902-1.904.451.733.881,1.483,1.277,2.231l.045.084.088.036c.793.328,1.613.638,2.44.922-1.507,1.742-3.221,3.299-5.094,4.63-.178.123-.346.158-.474.097-.106-.05-.181-.162-.19-.286-.006-.081.013-.195.143-.284ZM74.658,102.773h0s0,0,0,0h0Z"/>
          <path d="M105.664,98.504l-.098-.133c-.104.077-.204.051-.299-.077l-1.021-1.381c-.123-.167-.135-.286-.036-.359l-.103-.139-.582.43.103.139c.108-.08.223-.036.346.13l1.021,1.381c.095.128.091.231-.012.307l.098.133.584-.432ZM104.748,99.194l-1.144-1.699c-.148-.219-.17-.364-.066-.434l-.097-.144-.426.287.097.143c.115-.078.247-.007.395.213l.564.838-1.526-.877-.324.218.096.144c.112-.076.192-.077.241-.006l.953,1.415c.161.239.193.391.098.456l.092.137.427-.288-.092-.137c-.117.079-.256-.002-.417-.241l-.621-.923,1.711.966.039-.069ZM102.515,98.39c-.118-.123-.234-.216-.348-.278s-.223-.094-.329-.097c-.105-.003-.201.021-.288.073-.088.052-.156.123-.204.213-.049.09-.072.199-.07.327.002.129.031.276.088.442s.146.351.268.556c.121.203.24.368.359.495.119.127.234.221.345.281.111.06.217.09.318.09.101,0,.194-.026.279-.077.09-.053.158-.129.204-.226.046-.097.067-.213.064-.346-.003-.134-.033-.283-.087-.449s-.14-.344-.253-.535c-.112-.189-.228-.345-.346-.469h0ZM102.643,100.256c-.072-.027-.148-.079-.227-.156-.079-.077-.16-.175-.243-.293-.083-.118-.167-.249-.252-.391-.078-.131-.149-.257-.212-.38-.064-.122-.113-.235-.146-.339-.034-.104-.047-.194-.04-.272.007-.077.043-.136.108-.174.071-.042.146-.048.224-.016.078.031.158.087.238.168.081.08.162.179.243.295.081.117.16.239.237.368.082.138.154.269.217.395.063.126.109.241.139.343.03.103.04.192.03.266-.01.075-.047.131-.109.168-.065.039-.134.045-.206.017h0ZM102.108,100.822l-.077-.146c-.115.061-.209.02-.284-.121l-.803-1.519c-.097-.183-.091-.303.018-.361l-.081-.153-.64.338.081.153c.118-.062.226-.002.322.181l.803,1.519c.075.141.055.242-.058.302l.077.146.642-.339ZM101.026,101.38l-.071-.149c-.132.063-.245-.005-.34-.204l-.763-1.604c-.029-.062-.017-.105.036-.131.087-.041.17-.025.25.051.079.076.167.205.262.389l.1-.069-.37-.777c-.028.025-.061.049-.098.073-.038.024-.07.042-.098.055l-.738.351c-.022.011-.054.023-.095.036-.041.014-.08.023-.117.029l.322.813.131-.023c-.036-.105-.065-.198-.086-.279-.021-.081-.033-.152-.036-.211-.003-.059.003-.108.02-.146.016-.038.044-.066.082-.085.051-.024.093,0,.127.07l.763,1.605c.094.199.077.329-.053.391l.071.149.699-.332ZM98.88,100.856c.073.109.112.169.117.182.004.01-.009.021-.04.033l-.235.096c-.04.016-.063.015-.071-.005-.006-.015-.014-.054-.024-.118l-.133-.757.387.568ZM100.06,101.834l-.061-.149c-.015.003-.031.005-.049.005-.018,0-.036-.002-.055-.005-.019-.004-.037-.012-.056-.024-.018-.012-.036-.031-.052-.055l-1.318-1.949-.197.026.387,2.241c.029.169.01.274-.058.312l.068.167.446-.183-.068-.167c-.109.044-.182.019-.221-.075-.007-.017-.013-.033-.017-.048-.005-.015-.008-.029-.011-.042l-.09-.396c-.011-.052.004-.087.045-.103l.28-.114c.022-.009.045-.012.07-.01.025.003.045.016.061.041l.266.409c.012.018.022.034.032.048.01.015.017.028.022.04.004.01.003.021-.004.034s-.017.025-.03.038-.029.025-.047.038c-.018.013-.035.026-.05.038l.061.149.647-.265ZM98.421,102.496l-.64-1.945c-.083-.251-.064-.397.055-.436l-.054-.164-.487.16.054.164c.132-.044.24.06.323.312l.316.959-1.231-1.258-.371.122.054.164c.128-.042.206-.022.233.06l.533,1.62c.09.274.08.429-.03.465l.052.157.489-.161-.052-.157c-.133.044-.245-.071-.336-.345l-.348-1.057,1.384,1.394.056-.056ZM96.305,103.124l-.04-.16c-.126.031-.208-.03-.247-.186l-.415-1.667c-.05-.201-.016-.316.104-.346l-.042-.168-.703.175.042.168c.13-.032.22.052.27.253l.415,1.667c.039.155-.004.248-.129.279l.04.16.705-.175ZM94.077,101.366c-.008-.046-.013-.084-.015-.113-.002-.029.001-.052.009-.068.008-.016.02-.028.037-.035.017-.007.039-.013.066-.018.155-.028.282.041.38.207s.18.433.247.802c.068.374.085.654.05.84-.034.186-.118.291-.25.315-.031.006-.058.009-.08.009-.022,0-.041-.008-.058-.024-.017-.015-.031-.04-.043-.072-.012-.033-.023-.08-.034-.142l-.31-1.702ZM94.655,103.486c.13-.024.235-.069.316-.135.08-.067.139-.157.175-.272.037-.115.053-.255.049-.42-.004-.166-.027-.359-.067-.581-.042-.232-.093-.428-.152-.588-.059-.16-.126-.286-.201-.379-.075-.093-.158-.156-.249-.188-.091-.033-.189-.04-.295-.02-.081.015-.149.028-.202.041-.053.012-.1.024-.14.035-.04.011-.077.021-.111.03-.034.009-.072.017-.114.025-.031.006-.062.01-.092.013-.03.003-.063.003-.099.002l.031.17c.039.009.072.014.098.014.026,0,.048.007.066.02.018.013.034.038.048.077.014.039.029.102.045.19l.286,1.574c.013.07.021.126.024.17s0,.078-.01.104c-.009.026-.026.045-.05.057-.024.012-.055.022-.095.029l.03.162.708-.129ZM93.512,103.684l-.233-2.034c-.03-.263.017-.402.142-.416l-.02-.172-.51.058.02.172c.138-.016.223.108.253.371l.115,1.004-.951-1.481-.388.044.02.172c.134-.015.206.02.216.106l.195,1.695c.033.286-.008.436-.123.449l.019.164.512-.059-.019-.164c-.14.016-.226-.119-.259-.405l-.127-1.105,1.074,1.645.066-.043ZM91.978,103.831l.019-.815-.119-.026c-.016.111-.031.206-.047.285s-.038.145-.067.198c-.029.053-.068.093-.118.12-.049.027-.116.043-.2.047-.103.005-.158-.056-.164-.181l-.035-.734c-.003-.063.019-.099.065-.109.037,0,.069.006.096.015.027.009.049.028.068.056.018.028.034.069.046.124.012.054.022.126.031.215l.12-.006-.05-1.048-.12.006c0,.094-.005.169-.016.225-.011.056-.027.098-.047.126-.02.028-.044.047-.071.056s-.057.015-.09.016c-.032.002-.049-.029-.052-.092l-.033-.688c-.002-.047.008-.083.032-.109.024-.026.058-.04.104-.042.052-.002.1-.001.143.003.043.004.082.024.117.057.035.034.066.089.093.165.027.076.05.186.069.329l.125-.026-.053-.769-1.186.056.008.173c.134-.006.205.089.214.285l.082,1.743c.007.152-.051.231-.175.237l.008.165,1.2-.057ZM89.838,101.628c0-.118.026-.177.076-.176.057,0,.103.012.14.036.037.024.066.059.087.107.021.047.036.107.043.179.008.072.011.157.011.254,0,.071-.002.14-.006.206-.003.067-.011.125-.023.175-.012.05-.03.09-.055.119-.024.03-.058.045-.101.045-.037,0-.07-.003-.097-.008-.027-.006-.055-.015-.082-.028l.006-.908ZM90.026,103.886v-.165c-.065,0-.115-.024-.149-.072-.034-.047-.051-.114-.05-.201l.005-.711c.025.011.05.019.077.024.027.006.061.008.102.008.098,0,.181-.018.248-.055.068-.038.123-.089.167-.154.043-.065.074-.142.094-.231.019-.089.029-.183.03-.283.002-.262-.039-.457-.122-.585-.083-.128-.216-.192-.398-.193-.045,0-.086.001-.121.005-.035.004-.079.005-.131.005l-.468-.003v.173c.127,0,.191.07.19.206l-.012,1.808c-.001.17-.063.255-.186.254v.165s.725.005.725.005ZM89.013,103.877l.015-.164c-.12-.011-.172-.111-.158-.302l.131-1.772c.002-.026.007-.051.013-.074.006-.023.017-.044.034-.062.016-.018.037-.032.063-.042.026-.01.059-.013.1-.009l.015-.172-.486-.043-.55,1.861-.231-1.93-.552-.049-.015.172c.049.004.087.013.114.026.026.013.045.028.057.047.012.018.017.04.017.065,0,.025-.002.053-.004.084l-.167,1.71c-.012.117-.036.203-.074.256-.038.053-.088.077-.15.072l-.015.164.513.045.014-.164c-.135-.012-.193-.122-.174-.331l.146-1.569.261,2.087.185.016.589-2.023-.128,1.638c-.015.172-.082.253-.202.243l-.014.164.653.058ZM86.909,103.666l.023-.163c-.128-.018-.181-.106-.159-.265l.241-1.701c.029-.205.104-.299.226-.282l.024-.171-.717-.102-.024.171c.132.019.184.131.155.336l-.241,1.701c-.022.158-.097.228-.224.21l-.023.163.719.102ZM84.95,101.931c-.004.131-.007.203-.011.216-.002.01-.02.012-.052.004l-.248-.058c-.042-.01-.06-.025-.055-.045.004-.015.02-.052.049-.11l.332-.693-.016.687ZM85.342,103.413l.037-.157c-.014-.006-.029-.014-.043-.024-.015-.01-.028-.022-.041-.036-.013-.014-.024-.031-.031-.052-.008-.021-.011-.046-.01-.075l.06-2.353-.175-.094-.987,2.049c-.075.155-.151.228-.229.221l-.041.176.469.111.041-.176c-.114-.027-.159-.09-.136-.19.004-.018.009-.034.014-.049.005-.015.01-.028.016-.041l.156-.375c.021-.049.054-.068.097-.058l.294.069c.023.006.044.016.062.033.019.016.027.039.026.069l-.022.488c0,.021-.002.041-.002.058,0,.017-.002.032-.005.045-.002.01-.01.018-.023.025s-.028.011-.047.013c-.018.002-.038.004-.061.004-.022,0-.043,0-.063.001l-.037.157.681.16ZM83.936,102.211c-.117.214-.222.361-.316.442-.094.081-.189.107-.285.078-.074-.022-.125-.072-.154-.149-.028-.077-.04-.174-.035-.29.005-.117.024-.249.058-.398s.076-.307.127-.476c.037-.123.079-.243.124-.359.045-.117.094-.217.146-.301.052-.084.108-.148.167-.192.059-.044.123-.055.19-.035.096.029.157.108.181.235.024.128.014.325-.031.59l.138.042c.115-.381.182-.686.199-.913-.071.014-.137.065-.2.153-.01-.044-.025-.084-.047-.119-.022-.035-.047-.066-.076-.093-.029-.026-.059-.049-.091-.067-.032-.018-.063-.031-.094-.041-.104-.032-.203-.025-.296.019-.093.044-.181.118-.264.222-.082.104-.159.234-.23.39-.07.157-.135.331-.193.525-.055.181-.094.351-.117.511-.023.16-.026.304-.008.433.018.129.059.238.123.327.064.089.156.152.276.188.065.02.131.019.198-.002.068-.021.135-.059.202-.115.067-.056.133-.128.196-.216.063-.088.122-.189.177-.304l-.067-.086ZM82.386,102.606l.056-.155c-.122-.044-.156-.141-.103-.291l.576-1.618c.07-.195.162-.272.278-.231l.058-.163-.682-.243-.058.163c.126.045.154.165.085.36l-.576,1.618c-.054.151-.141.204-.262.161l-.056.155.684.244ZM81.305,102.224l.776-1.895c.1-.245.209-.344.325-.296l.066-.16-.475-.194-.066.16c.129.053.143.202.043.446l-.383.935-.119-1.756-.362-.148-.066.16c.125.051.171.117.138.197l-.646,1.579c-.109.267-.218.378-.325.334l-.063.153.477.195.063-.153c-.13-.053-.141-.213-.031-.48l.422-1.029.148,1.959.078-.006ZM79.912,101.629l.074-.147c-.112-.056-.132-.156-.061-.299l.771-1.535c.093-.185.196-.249.308-.193l.078-.155-.653-.328-.078.155c.121.061.135.184.041.369l-.29.578c-.03.008-.078-.004-.142-.036l-.222-.112c-.025-.012-.045-.025-.061-.039-.016-.014-.03-.031-.043-.053l.289-.575c.093-.186.195-.251.306-.195l.078-.155-.656-.33-.077.155c.124.063.14.186.047.371l-.771,1.535c-.072.143-.17.183-.294.121l-.074.147.656.33.074-.147c-.111-.056-.131-.155-.059-.298l.356-.71c.049-.011.096-.005.141.018l.222.111c.03.015.053.032.071.051.017.019.029.038.036.056l-.356.709c-.072.143-.168.184-.289.123l-.074.148.653.328ZM78.639,100.037c-.163.181-.299.301-.409.358-.11.057-.208.061-.295.01-.067-.039-.105-.099-.115-.181-.01-.082,0-.178.033-.291.032-.112.081-.237.148-.374.067-.137.145-.282.233-.434.065-.111.132-.218.204-.321.071-.103.142-.189.212-.259s.139-.119.207-.148c.068-.029.132-.026.193.01.087.051.127.141.121.271-.006.13-.061.319-.166.567l.125.073c.2-.344.335-.625.404-.843-.072-.002-.149.032-.23.103,0-.045-.006-.087-.018-.127-.013-.039-.03-.075-.052-.108-.022-.032-.046-.061-.073-.086-.027-.025-.054-.045-.082-.061-.094-.055-.192-.071-.293-.05-.101.022-.204.073-.308.155-.104.082-.209.191-.313.327-.105.136-.208.292-.309.466-.095.163-.172.32-.232.47-.059.15-.095.29-.107.419-.012.129.002.245.044.346.041.101.117.184.225.247.058.034.123.049.193.044s.145-.026.224-.066c.079-.039.159-.094.241-.165.082-.071.163-.156.243-.255l-.045-.099ZM76.969,100.028l.497-.647-.081-.091c-.078.08-.146.148-.206.203-.059.055-.117.095-.171.12-.055.025-.11.034-.166.027-.056-.007-.119-.034-.189-.08-.086-.057-.095-.138-.026-.243l.405-.613c.035-.053.074-.069.117-.05.03.023.053.046.069.069s.023.052.022.085c-.002.034-.013.076-.036.127-.022.051-.056.115-.102.192l.1.066.578-.876-.1-.066c-.055.076-.104.134-.146.172-.042.038-.079.063-.112.074-.033.011-.063.012-.091.004-.027-.009-.055-.022-.082-.04-.026-.017-.022-.052.012-.105l.379-.575c.026-.039.056-.062.09-.069.034-.007.071.002.109.027.044.029.082.058.114.087.032.029.052.067.06.115s0,.11-.022.188c-.023.077-.069.18-.138.307l.116.053.41-.652-.991-.654-.095.144c.112.074.113.193.005.357l-.961,1.456c-.084.127-.177.156-.281.088l-.091.138,1.003.662ZM75.561,99.078l.097-.134c-.118-.086-.113-.218.016-.396l1.043-1.438c.04-.055.084-.065.132-.031.078.057.103.138.075.244-.028.106-.1.244-.216.416l.109.054.506-.697c-.035-.012-.072-.03-.111-.051-.039-.022-.071-.041-.095-.059l-.661-.48c-.02-.015-.046-.036-.077-.066-.032-.029-.059-.059-.082-.088l-.559.672.083.104c.075-.082.143-.151.204-.209.061-.058.117-.102.168-.133.051-.031.097-.049.138-.053.041-.004.079.006.114.031.046.033.045.082,0,.145l-1.043,1.438c-.129.178-.252.225-.368.141l-.097.133.626.454Z"/>
        </g>
        <path d="M65.637,109.859l.581.351c.264.159.603.113.814-.112l2.662-2.827s.088-.461-.385-.949c-.104-.107-.24-.184-.394-.3-.114-.086.031-.322.15-.234l1.757,1.469c.067.05.103.132.093.216l-.415,3.519,3.182-1.558c.102-.05.222-.041.315.022l2.051,1.158c.19.095.042.425-.177.319l-.646-.331c-.277-.134-.611-.028-.758.243l-1.809,3.328c-.148.273-.079.613.164.806l.497.394c.084.113-.05.258-.169.184l-3.127-1.912c-.13-.082-.055-.283.097-.26l.729.301c.248.103.534.002.663-.233l1.898-3.46-3.942,1.944c-.151.074-.323-.049-.302-.216l.48-3.774-2.171,2.34c-.237.255-.243.648-.014.911l.544.623c.106.135-.067.31-.203.206l-2.284-1.953c-.113-.087-.013-.265.12-.213Z"/>
        <path d="M82.749,118.851l-.159-.068c-.499-.214-.855-.667-.946-1.202l-.854-5.015c-.033-.197-.27-.279-.419-.146l-3.912,3.505c-.339.304-.802.428-1.248.334l-.465-.098c-.134-.035-.2.155-.074.211l2.72,1.165c.142.059.248-.137.122-.224l-.494-.334c-.342-.231-.372-.723-.061-.994l.912-.794,2.151.73.187,1.313c.059.415-.305.767-.719.693l-.49-.088c-.153.001-.182.218-.034.259l3.663,1.031c.169.045.269-.184.121-.277ZM78.153,114.936l1.481-1.33.316,1.94-1.798-.61Z"/>
        <path d="M88.755,113.993c-1.028-.093-2.51-.197-3.982-.43-.153-.024-.203.201-.059.257l.573.221c.189.073.333.298.321.5l-.253,4.071c-.015.234-.189.428-.421.466l-.497.082c-.181.03-.177.291.004.314,1.287.164,3.377.415,4.14.415,1.135,0,3.03-.994,3.03-3.074,0-1.949-2.257-2.768-2.856-2.822ZM88.433,119.493c-.241,0-.782-.035-1.204-.065-.319-.023-.56-.298-.54-.618l.243-3.962c.022-.363.338-.637.7-.606.389.033.845.076,1.06.11.413.066,1.52.692,1.52,2.461,0,1.745-1.265,2.68-1.779,2.68Z"/>
        <path d="M100.87,118.162c-.395.136-.821.515-1.921-.838-.873-1.073-1.545-1.109-1.545-1.109,0,0,2-.395,1.71-1.738s-2.572-1.167-2.572-1.167l-3.763.578c-.159.025-.168.251-.011.288l.386-.045c.308-.036.591.173.646.478l.748,4.096c.045.24-.097.477-.33.55l-.578.181c-.165.083-.085.333.098.305l3.245-.507c.159-.026.164-.252.007-.285l-.656.007c-.229.002-.427-.161-.468-.387l-.361-2.015.536-.098c.285-.021.594.047.778.265.396.47.97,1.222,1.532,1.66.549.428,1.41.48,1.783.384.18-.046.637-.17.865-.324.138-.093.029-.332-.128-.278ZM96.844,115.965c-.399.073-1.398.252-1.398.252l-.284-1.766c-.051-.317.172-.613.491-.652l.723-.103c.752-.067,1.408.579,1.285,1.324-.045.277-.418.871-.817.944Z"/>
        <path d="M100.415,112.201l3.017-1.255c.124-.05.226.109.128.201l-.549.379c-.173.12-.236.345-.152.538.349.81,1.22,2.883,1.622,3.819.114.265.381.385.656.297,0,0,.298-.106.431-.153.209-.074.278.151.142.217l-2.986,1.341c-.154.068-.277-.176-.071-.259.238-.097.364-.158.364-.158.25-.139.354-.445.242-.708l-1.681-3.951c-.079-.182-.28-.28-.472-.229l-.625.165c-.148.021-.205-.186-.067-.243Z"/>
        <path d="M111.888,108.689c-1.159-1.474-3.37-.739-3.86-.42-.841.547-2.035,1.358-3.298,2.066-.131.073-.036.274.108.23l.569-.177c.188-.058.432.025.542.185l2.227,3.232c.128.186.11.437-.045.605l-.331.361c-.12.131.038.327.19.235,1.081-.649,2.801-1.74,3.384-2.199.867-.682,1.751-2.544.515-4.118ZM111.056,112.636c-.17.162-.618.443-.959.674-.258.174-.605.11-.78-.143l-2.173-3.156c-.199-.288-.12-.685.175-.879.317-.208.691-.45.875-.553.355-.198,1.572-.389,2.624.949,1.037,1.32.625,2.74.238,3.108Z"/>
        <path d="M68.258,40.305c-1.354-1.042-3.251.344-3.695.744-.601.542-1.423,1.459-2.655,2.935-.098.118.016.268.143.184l.416-.349c.165-.11.409-.104.542.014l2.616,2.579c.154.137.182.378.068.581l-.327.443c-.089.159.104.304.221.165,1.199-1.42,2.504-2.66,2.967-3.262.689-.896,1.15-2.922-.295-4.034ZM68.079,44.418c-.157.183-.531.573-.826.876-.223.229-.565.253-.767.054l-2.509-2.469c-.23-.226-.209-.624.047-.881.275-.276.6-.598.763-.74.313-.275,1.453-.754,2.644.266,1.174,1.006.982,2.504.648,2.894Z"/>
        <path d="M77.021,38.093c-.088.036-.239.102-.396.171-.382.168-.819.154-1.19-.036l-4.602-2.358c-.149-.077-.326.036-.318.203l.225,5.087c.021.485-.151.959-.479,1.318l-.344.376c-.08.118.068.256.18.169l2.33-1.804c.111-.111-.002-.28-.116-.219-.172.092-.484.271-.484.271-.32.179-.717-.041-.734-.408-.026-.559-.056-1.207-.059-1.218-.006-.018,1.898-1.249,1.898-1.249l1.105.578c.312.163.325.604.025.787-.21.128-.402.243-.458.277-.143.085-.015.38.188.252,1.398-.878,1.603-1.048,3.32-1.829.196-.089.132-.459-.088-.368ZM71.018,39.283l-.082-1.897,1.667.853-1.586,1.044Z"/>
        <path d="M83.485,32.829c-.733-1.605-3.028-1.428-3.613-1.27-.792.213-1.91.646-3.704,1.42-.143.062-.11.255.043.237,0,0,.255-.067.536-.123.282-.056.416.099.481.271l1.153,3.71c.075.199-.012.435-.209.568l-.5.252c-.154.104-.048.329.122.257,1.738-.737,3.486-1.258,4.182-1.592,1.036-.497,2.291-2.016,1.509-3.729ZM81.494,36.356c-.221.106-.744.275-1.149.414-.307.105-.624-.033-.712-.31l-1.093-3.432c-.1-.314.003-.643.352-.759.375-.124.801-.269,1.015-.313.681-.141,1.974.297,2.368,1.591.419,1.376-.142,2.501-.782,2.808Z"/>
        <path d="M59.674,56.334c-.02.818-.697,1.088-1.891,1.392-.722.184-1.197.704-1.197.704,0,0,.713-1.915-.637-2.229-.811-.189-1.595.843-1.983,1.871-.34.899-.618,1.864-1.077,3.456-.087.301.19.37.272.139.049-.139.248-.787.772-.6.567.203,2.892,1.051,3.161,1.147.429.153.39.556.234.941-.113.278.189.394.278.121.387-1.185.514-1.955.934-3.047.08-.207-.213-.276-.282-.077-.13.379-.299.903-.704.752-.733-.272-1.649-.574-1.649-.574,0,0,.187-.519.224-.618.082-.222.169-.346.63-.51,1.035-.368,2.977-.356,3.219-2.882.024-.247-.298-.24-.304.015ZM56.077,58.93c-.15.468-.329.971-.453,1.28l-1.394-.493s-.493-.101-.313-.722c.12-.413.281-.839.464-1.054.344-.402.74-.45.979-.41.595.099.892.851.716,1.4Z"/>
        <path d="M51.402,69.487c.198-1.844.581-4.024.856-5.52.046-.248.096-.302.225-.286.384.049.795.117,1.233,0,.123-.033.298.233.038.376-.549.303-.923.614-1.169,1.192-.507,1.191-.803,2.159-.202,2.266.707.126,1.38.225,1.38.225,0,0,.578-2.237-.55-2.261-.202-.004-.154-.43.056-.394.19.033,2.07.336,2.259.377.169.037.14.456-.1.402-.414-.092-1.047-.155-1.338,1.932-.036-.013,1.109.204,1.769.3.908.132.767-2.933-.278-4.299-.153-.2.06-.429.228-.267.142.137.869.703,1.237.696.298-.006.222.288.172.559-.364,1.99-.668,3.105-.91,5.566-.023.232-.302.162-.288-.053.017-.266.11-.737-.342-.837s-3.06-.505-3.436-.577c-.31-.059-.518.274-.551.654-.023.262-.319.228-.289-.052Z"/>
        <path d="M57.937,49.459c.022.011,1.104.327,1.242.393s.212.396-.315.376c-.194-.007-1.289-.057-1.823,1.036-.438.895.078,1.951,1.187.917.899-.838,1.801-2.269,3.148-1.404.832.535.613,2.055.27,2.747-.38.767-1.273,2.156-1.523,2.052-.402-.168-1.293-.52-1.469-.585-.179-.066-.074-.499.272-.428.794.163,1.931-.122,2.478-1.224.484-.975-.269-2.068-1.25-1.438-.604.388-1.701,1.802-2.424,1.932-.526.095-1.453-.04-1.283-1.621.122-1.139.909-2.007,1.041-2.363.09-.241.15-.542.449-.391Z"/>
        <path d="M54.139,92.875c-.087-.216.169-.366.285-.141.233.452.581.967,1.019.762.807-.377,1.532-.76,1.812-.864.616-.23,2.198-.625,3.316,1.531.792,1.528.039,3.135-.525,3.433-.431.228-2.098,1.006-2.441,1.187-.35.184-.078.534.116,1.027.066.168-.165.37-.315.076-.503-.983-.981-1.773-1.468-2.839-.097-.212.174-.339.279-.151.093.167.409.862.859.628.607-.316,1.944-.923,2.498-1.197.441-.218,1.059-.893.471-2.274-.554-1.301-1.947-1.383-2.53-1.088-.541.274-1.13.531-1.813.877s-.372,1.289-.15,1.671c.107.185-.198.367-.298.116-.391-.983-.844-2.082-1.116-2.755Z"/>
        <path d="M51.762,83.776c-.04-.204.221-.315.289-.046.117.461.473,1.01,1.002.841.745-.238,3.657-.966,3.772-1.002.097-.031.257.187.171.394-.135.323-2.736,6.53-2.736,6.53,0,0,1.999-.515,2.863-.743.797-.21.65-1.295.553-1.669-.086-.333.216-.373.272-.134.26,1.112.577,1.885.959,2.876.093.241-.2.35-.282.089-.114-.363-.494-1.009-1.129-.837-.898.243-3.403.883-3.403.883,0,0-.152.493-.011,1.024.061.231-.192.383-.275.106-.064-.215-.559-1.929-.559-1.929,0,0-.029-.072.043-.235.076-.171,2.374-5.607,2.374-5.607,0,0-1.755.451-2.512.654-.65.175-.674,1.157-.543,1.589.069.226-.208.396-.282.089s-.529-2.683-.567-2.875Z"/>
        <path d="M51.889,82.795c-.017-.254-.131-.879.384-.934.585-.063,2.459-.304,3.423-.417.568-.067.628.612.656.856.018.154.288.175.273-.069-.016-.265-.321-2.267-.385-3.156-.013-.181-.324-.186-.285.053.077.466.013.894-.336.945-.589.087-2.173.26-3.445.419-.312.039-.648-.434-.64-.805.006-.263-.295-.2-.285-.002.039.735.191,1.759.356,3.154.031.259.298.184.284-.043Z"/>
        <path d="M51.405,73.319c0-.068.013-.234.041-.417.053-.355.439-.516.747-.33l2.852,1.808s-2.24,1.281-2.733,1.563c-.592.338-.933.061-.947-.456-.005-.17-.014-.242-.015-.338-.005-.298-.314-.291-.311-.003.01,1.124.065,2.452.129,3.559.014.245.299.242.311-.001.003-.067.008-.137.013-.206.024-.319.159-.668.435-.83l4.293-2.561c.157-.092.159-.318.004-.413l-3.912-2.504c-.559-.342-.728-.979-.718-1.633h0c.005-.257-.295-.247-.311-.015-.084,1.296-.119,1.578-.179,2.711-.014.266.302.284.301.067Z"/>
        <path d="M59.269,48.068c.13-.192.499-.661.947-.345.501.353,1.863,1.349,2.693,1.925.503.349.077.936-.05,1.145-.083.136.12.339.264.13.668-.966,1.28-1.799,1.895-2.608.114-.15-.142-.304-.232-.176-.281.401-.698.636-.923.492-.557-.358-1.802-1.268-3.026-2.146-.302-.216.036-.744.202-.963.165-.217-.117-.348-.228-.189-.866,1.229-1.326,1.795-1.797,2.578-.127.211.117.359.255.157Z"/>
        <path d="M100.715,31.661c-.371-.129-2.559-.673-3.817-1-.263-.068-.399.232-.03.32.477.114.745.366.673.653-.078.309-.895,3.061-1.089,3.694-.155.505-.73.429-.982.345-.335-.111-.346.24-.173.273.955.181,2.725.622,3.095.737.255.079.366-.248.094-.304-.39-.08-.82-.345-.706-.742.154-.536.424-1.43.424-1.43,1.679,1.119,3.826,1.253,4.342-.185.505-1.408-1.499-2.246-1.83-2.361ZM101.11,33.903c-.515.775-1.49,1.003-2.799-.039,0,0,.467-1.622.561-1.895.063-.184.337-.38.68-.282.3.086.489.121.886.257.788.27,1.113,1.295.672,1.958Z"/>
        <path d="M107.796,34.821c-2.14-1.393-4.141-.793-4.829.484-.603,1.12-.222,2.693,1.421,3.892,1.83,1.336,3.887.905,4.634-.004,1.041-1.266.516-3.237-1.226-4.372ZM107.949,38.224c-.267.392-1.422,1.958-3.159.883-1.698-1.05-.792-2.93-.592-3.228.31-.462,1.46-1.985,3.155-.96,1.753,1.061.881,2.888.597,3.305Z"/>
        <path d="M111.358,37.716c-.139-.118.032-.386.205-.231.464.414,1.657,1.269,2.508,2.094.195.189-.075.382-.228.272-.337-.241-.656-.585-1.03-.157-.391.446-1.575,1.775-2.322,2.605-.793.881,2.157,2.304,3.759,2.088.147-.02.389.254.047.371-.375.128-.648.224-1.062.545-.155.12-.224.533-.615.14-.662-.667-3.16-3.073-4.577-3.985-.228-.147.056-.416.224-.245.268.273.84.57,1.181.201.533-.577,1.97-2.185,2.318-2.585.354-.407-.104-.856-.408-1.113Z"/>
        <path d="M119.192,47.896c-.161-.085-.162-.343.048-.345.433-.003.888-.296,1.106-.417s.281.008.347.116c.997,1.636,2.201,3.327,3.241,5.532.03.063.111.184-.06.282-.207.119-.641.306-.918.766-.125.208-.445.021-.291-.302.28-.585.393-1.534-.012-2.279-.318-.587-.677-.32-1.108-.054-.356.22-2.127,1.26-2.472,1.463-.457.27-.103.909.013,1.103.132.222-.14.37-.262.15-.8-1.448-1.245-2.149-1.648-2.779-.095-.149.166-.34.279-.111.137.277.475.713.911.461.709-.409,2.373-1.41,2.9-1.713.349-.2.208-.907-.465-1.3-1-.583-1.412-.472-1.609-.575Z"/>
        <path d="M115.864,48.763c-.195-.206-.539-.736-.144-1.065.442-.367,1.834-1.502,2.659-2.162.428-.342.82.113,1.004.358.131.174.389.029.23-.202-.474-.689-1.433-1.789-2.001-2.478-.134-.163-.35.049-.214.206.343.393.427.794.237.958-.519.448-1.8,1.47-2.87,2.331-.265.213-.687-.05-.904-.385-.153-.238-.392-.002-.258.164.618.769,1.29,1.418,2.026,2.465.162.23.39-.027.235-.19Z"/>
        <path d="M121.303,96.331l.846-1.699.988,1.58-1.833.119ZM117.509,98.734c.175-.134.31-.297.372-.354.215-.196.317-.524,1.397-.617,1.419-.123,4.652-.34,4.719-.342.069-.002.125-.055.155-.113.03-.058.045-.15.006-.208,0,0-2.404-3.834-2.406-3.838-.277-.402-.54-1.236-.315-1.827.091-.238.129-.369-.042-.445-.107-.048-.189-.036-.275.165-.357.842-.494,1.26-1.072,2.479-.045.095-.047.21.046.262.146.081.23-.104.264-.165.1-.179.139-.489.435-.554.272-.06.441.036.569.199.23.294.599.954.599.954l-1.014,2.032s-1.095.039-1.153.032c-.186-.024-.37-.173-.437-.347-.099-.257-.006-.356.095-.558.041-.082.126-.221.091-.315-.047-.125-.224-.104-.29.018-.59,1.075-1.07,2.023-1.698,2.982-.112.171-.247.344-.211.47.023.08.091.147.166.089Z"/>
        <path d="M122.625,91.273c-.382-.435-1.27-2.314-.049-4.539.938-1.71,2.017-2.034,3.131-1.811,1.485.297,2.135,2.291,1.707,3.933-.37,1.421-.449,1.099-.781,2.675-.04.192.018.407-.306.307-.373-.114-1.012-.086-1.495.06-.19.057-.344-.304.013-.381.352-.075,2.247-.975,2.242-3.112-.003-1.11-.99-1.942-1.681-2.147-.825-.245-2.321-.182-2.985,1.612-.567,1.533.331,2.926.474,3.164.113.187-.15.375-.27.239Z"/>
        <path d="M123.657,83.297c.038-.457.305-.853.666-.798.577.088,2.428.338,3.357.494.544.091.409.723.374.975-.025.179.263.265.31.031.051-.254.356-2.435.455-3.124.039-.272-.281-.279-.306-.063-.056.473-.164.86-.562.815-.604-.068-2.155-.294-3.391-.478-.424-.063-.522-.445-.43-.859.086-.386-.296-.361-.317-.163-.123,1.183-.227,1.629-.467,3.129-.038.237.292.285.312.041Z"/>
        <path d="M128.955,78.99c-.011.213-.293.249-.299-.036-.011-.488-.127-.98-.776-.98-.914,0-3.662.051-3.791.058-.108.006-.225-.232-.085-.416.218-.287,4.233-5.693,4.233-5.693,0,0-2.113.021-2.839.042-.837.024-1.065,1.046-1.035,1.412.029.353-.301.312-.304.06-.011-1.077-.094-1.719-.196-2.938-.018-.213.279-.343.301-.013.026.39.243,1.1.884,1.068.699-.035,3.386-.05,3.386-.05,0,0,.173-.356.141-.913-.014-.245.286-.331.305-.035.015.23.113,1.732.117,1.934.002.103.022.218-.075.348-.115.155-3.533,4.743-3.533,4.743,0,0,1.603-.02,2.461-.034.814-.013.952-.948.919-1.411-.017-.242.311-.341.314-.018s-.106,2.426-.129,2.87Z"/>
        <path d="M125.158,69.747c-1.069-.45-2.194-2.019-2.056-4.113.126-1.922,1.042-2.769,2.09-2.958,1.479-.267,2.953,1.164,3.335,3.106.155.788-.052.64.311,2.186.044.189.343.598-.055.647-.472.058-.943.385-1.305.712-.142.129-.409-.122-.179-.352.282-.282,1.513-1.614.808-3.448-.402-1.047-1.461-1.708-2.631-1.514-.934.155-2.151.979-2.023,2.684.121,1.608,1.439,2.55,1.838,2.722.192.083.027.395-.132.329Z"/>
        <path d="M124.721,54.459c.938,2.116,1.167,2.917,1.983,5.251.087.25.085.322-.033.375-.354.157-.73.248-1.117.649-.089.092-.337-.026-.215-.301.263-.592.582-.993.372-2.221-.186-1.088-.517-1.586-.968-1.417-.674.252-1.338.502-1.338.502,0,0,.66,2.25,1.596,1.662.171-.108.375.32.176.397-.181.07-1.981.733-2.161.803-.171.066-.341-.315-.143-.387.356-.129.593-.24.617-.729.025-.509-.129-.981-.36-1.642,0,0-1.16.423-1.682.646-.838.358.842,2.816,2.442,3.524.165.073.211.426-.109.352-.188-.044-.974-.173-1.317.041-.253.157-.316-.143-.419-.431-.678-1.887-1.082-3.118-2.056-5.323-.099-.224.206-.295.275-.103.076.213.369.77.833.591.433-.167,2.827-1.052,3.188-1.184.297-.109.319-.562.163-.925-.109-.255.154-.398.275-.127Z"/>
        <g>
          <g>
            <path d="M132.038,74.781c0,26.259-18.73,47.547-41.834,47.547s-41.834-21.287-41.834-47.547,18.73-47.546,41.834-47.546,41.834,21.287,41.834,47.546ZM132.465,74.781c0-26.527-18.921-48.032-42.261-48.032s-42.261,21.505-42.261,48.032,18.921,48.032,42.261,48.032,42.261-21.505,42.261-48.032Z"/>
            <path d="M130.992,74.781c0,25.603-18.262,46.358-40.788,46.358s-40.788-20.755-40.788-46.358,18.262-46.358,40.788-46.358,40.788,20.755,40.788,46.358ZM131.409,74.781c0-25.864-18.448-46.831-41.205-46.831s-41.205,20.967-41.205,46.831,18.448,46.831,41.205,46.831,41.205-20.967,41.205-46.831Z"/>
          </g>
          <g>
            <path d="M120.923,74.797c0,19.812-13.753,35.855-30.72,35.855s-30.72-16.06-30.72-35.872,13.754-35.872,30.72-35.872,30.72,16.06,30.72,35.872v.016ZM121.386,74.781c0-20.109-13.96-36.411-31.182-36.411s-31.182,16.302-31.182,36.411,13.961,36.411,31.182,36.411,31.182-16.302,31.182-36.411Z"/>
            <path d="M121.976,74.781c0,20.49-14.225,37.1-31.772,37.1s-31.772-16.61-31.772-37.1,14.225-37.1,31.772-37.1,31.772,16.61,31.772,37.1ZM122.454,74.781c0-20.798-14.439-37.659-32.25-37.659s-32.25,16.861-32.25,37.659,14.439,37.659,32.25,37.659,32.25-16.861,32.25-37.659Z"/>
          </g>
        </g>
        <path d="M92.116,30.985c.07-.178-.017-.265-.195-.195l-.803.316c-.178.07-.384-.015-.46-.19l-.344-.791c-.076-.175-.2-.175-.276,0l-.344.791c-.076.175-.282.26-.46.19l-.803-.316c-.178-.07-.265.017-.195.195l.316.803c.07.178-.015.383-.19.46l-.791.344c-.175.076-.175.2,0,.276l.791.344c.175.076.26.282.19.46l-.316.803c-.07.178.017.265.195.195l.803-.316c.178-.07.384.015.46.19l.344.791c.076.175.2.175.276,0l.344-.791c.076-.175.282-.26.46-.19l.803.316c.178.07.265-.017.195-.195l-.316-.803c-.07-.178.015-.384.19-.46l.791-.344c.175-.076.175-.2,0-.276l-.658-.286c-.248-.108-.369-.4-.27-.652l.263-.668Z"/>
        <path d="M118.591,101.893c.054-.183-.04-.263-.211-.177l-.772.385c-.171.085-.383.018-.475-.15l-.411-.758c-.091-.168-.214-.157-.275.024l-.274.818c-.061.181-.258.284-.441.23l-.827-.245c-.183-.054-.262.04-.177.211l.385.772c.085.171.018.383-.15.474l-.758.412c-.168.091-.157.214.024.275l.818.274c.181.061.284.258.23.441l-.245.827c-.054.183.04.263.211.177l.772-.385c.171-.085.383-.018.474.15l.412.758c.091.168.214.157.275-.024l.274-.818c.061-.181.258-.284.441-.23l.827.245c.183.054.263-.04.177-.211l-.385-.772c-.085-.171-.018-.383.15-.475l.758-.412c.168-.091.157-.214-.024-.275l-.681-.228c-.257-.086-.403-.367-.326-.626l.204-.688Z"/>
        <path d="M65.441,102.222c.088-.169.011-.265-.173-.215l-.832.23c-.184.051-.38-.056-.437-.238l-.259-.823c-.057-.182-.18-.195-.274-.029l-.426.751c-.094.166-.308.229-.477.141l-.765-.399c-.169-.088-.265-.011-.215.173l.23.832c.051.184-.056.38-.238.437l-.823.259c-.182.057-.195.18-.029.274l.751.426c.166.094.229.308.141.477l-.399.765c-.088.169-.011.265.173.215l.832-.23c.184-.051.38.056.437.238l.259.823c.057.182.18.195.274.029l.425-.751c.094-.166.308-.229.477-.141l.765.399c.169.088.265.011.215-.173l-.23-.832c-.051-.184.056-.38.238-.437l.823-.259c.182-.057.195-.18.029-.274l-.625-.354c-.236-.134-.325-.437-.2-.677l.332-.637Z"/>
        <path d="M103.729,51.48c.325-.021.631-.175.821-.453,0,0,.481-.695.782-.946.548-.431,1.207-.318,1.207-.318,0,0-.289-.823-1.05-.816.348-.003-.187-1.036-.187-1.036h-.003v-.003s-.839-.097-1.036.19c-.263-.716-1.136-.697-1.136-.697,0,0,.339.577.126,1.243-.024.074-.066.163-.114.256-.088-.078-.169-.154-.228-.221-.432-.546-.318-1.207-.318-1.207,0,0-.823.29-.814,1.051-.287-.197-1.036.19-1.036.19v.003h-.003s-.093.839.194,1.036c-.648.239-.692.977-.693,1.112,0,0-.003.01,0,.01v.014s.021-.012.057-.029c.085-.017.175-.009.258.033.207.1.29.356.187.569-.104.213-.356.304-.564.202-.118-.055-.197-.173-.216-.278s-.022-.311-.022-.311c-.017-.349.102-.595.102-.595.002-.003.005-.007.005-.01.105-.213.021-.469-.187-.569-.208-.102-.46-.01-.564.202-.002.003-.002.007-.003.01h-.002s-.135.256-.422.458c-.002.002-.003.003-.005.003l-.192.13c-.119.076-.271.092-.405.028-.208-.102-.292-.356-.189-.571.106-.213.358-.304.565-.202.057.029.106.071.144.119.042.083.036.131.036.131l.038-.035c.15-.13.617-.597.418-1.209.334.104.934-.488.934-.488v-.003l.002-.002s-.157-.828-.489-.932c.603-.463.323-1.29.323-1.29,0,0-.45.496-1.146.493-.078-.002-.175-.016-.278-.033.05-.109.102-.211.149-.285.394-.576,1.058-.664,1.058-.664,0,0-.522-.7-1.247-.465.104-.334-.488-.934-.488-.934,0,0-.003,0-.003.002,0-.002-.002-.003-.002-.003,0,0-.828.159-.934.491-.462-.603-1.288-.325-1.288-.325,0,0,.496.45.493,1.148-.003.088-.021.199-.042.318-.093-.043-.178-.086-.244-.13-.576-.392-.664-1.056-.664-1.056,0,0-.7.522-.465,1.247-.332-.104-.934.488-.934.488,0,0,.002.002.002.003-.002,0-.003.002-.003.002,0,0,.159.828.491.932-.603.463-.325,1.29-.325,1.29l.04-.022c.086-.066.199-.097.313-.08.228.035.382.254.347.488-.036.235-.251.396-.479.361-.15-.022-.278-.123-.332-.256l-.109-.235c-.121-.329-.081-.598-.081-.598v-.002s.003-.007.005-.01c.033-.235-.121-.453-.351-.488-.227-.035-.441.126-.477.361v.01s-.054.285-.268.564c-.002.002-.002.003-.002.005l-.161.197-.002.002c-.09.111-.249.156-.399.133-.228-.035-.386-.252-.349-.488.036-.233.249-.396.477-.361.114.017.211.08.272.168.005.007.009.012.009.012,0,0,.51-.707.071-1.328.349,0,.747-.743.747-.743,0,0-.003-.002-.003-.003l.003-.002s-.398-.743-.747-.743c.439-.622-.071-1.328-.071-1.328,0,0-.284.607-.949.811-.076.021-.169.036-.273.05.016-.118.033-.227.055-.309.204-.667.813-.949.813-.949,0,0-.707-.514-1.328-.074,0-.348-.745-.745-.745-.745l-.002.002-.003-.002s-.742.398-.742.745c-.622-.439-1.33.074-1.33.074,0,0,.607.282.813.949.023.083.042.192.054.309-.1-.014-.195-.029-.27-.05-.667-.204-.949-.811-.949-.811,0,0-.515.705-.074,1.328-.349,0-.747.743-.747.743l.003.002s-.003.003-.003.003c0,0,.398.743.747.743-.441.621.074,1.328.074,1.328,0,0,.009-.022.031-.059.062-.069.145-.118.242-.133.228-.035.443.128.477.363.035.233-.121.453-.349.488-.149.022-.315-.021-.406-.133h.002l-.166-.206c-.213-.277-.256-.548-.256-.548v-.01c-.036-.235-.251-.398-.479-.361-.228.035-.386.252-.349.488,0,.003.003.007.003.01,0,0,.005.038.005.102,0,.112-.014.304-.092.515,0,.002,0,.003-.003.005l-.088.228c-.054.135-.197.225-.348.249-.228.035-.443-.126-.479-.361-.036-.235.119-.453.348-.488.105-.017.207.01.29.066.017.019.031.031.031.031,0,0,.278-.826-.327-1.29.332-.104.489-.932.489-.932l-.003-.002v-.003s-.602-.59-.932-.486c.233-.724-.467-1.247-.467-1.247,0,0-.088.664-.664,1.06-.066.041-.15.086-.246.13-.022-.118-.038-.227-.04-.315-.005-.697.489-1.148.489-1.148,0,0-.826-.278-1.29.327-.102-.332-.932-.488-.932-.488,0,0,0,.002-.002.002l-.002-.002s-.591.602-.489.934c-.723-.232-1.243.469-1.243.469,0,0,.664.086,1.058.662.047.074.097.173.145.28-.1.017-.195.031-.272.033-.698.005-1.15-.491-1.15-.491,0,0-.277.828.328,1.29-.332.104-.489.934-.489.934,0,0,.002,0,.002.002v.002s.602.591.934.488c-.233.724.465,1.245.465,1.245,0,0,.005-.041.024-.112.04-.071.1-.131.18-.169.207-.1.46-.01.564.204.102.213.019.467-.188.569-.135.066-.297.059-.417-.021l-.194-.13c-.285-.201-.406-.448-.406-.448-.002-.005-.002-.007-.003-.01-.104-.213-.358-.303-.565-.202-.207.102-.29.356-.187.569.002.003.005.007.007.01h-.002s.119.265.1.616c0,.002.002.003.002.005l-.017.232c-.016.14-.095.27-.228.335-.207.1-.46.01-.565-.202-.102-.214-.019-.469.188-.571.106-.05.218-.052.322-.016l.003.002s.022-.873-.692-1.136c.287-.197.192-1.036.192-1.036h-.002v-.003s-.752-.387-1.036-.19c.009-.761-.814-1.051-.814-1.051,0,0,.109.66-.323,1.207-.055.067-.135.144-.225.221-.048-.093-.09-.182-.116-.256-.211-.666.128-1.243.128-1.243,0,0-.873-.019-1.136.697-.197-.287-1.034-.19-1.034-.19,0,0,0,.002-.003.003,0,0-.244.474-.244.811,0,.088.016.166.057.225-.764-.007-1.051.816-1.051.816,0,0,.66-.112,1.209.318.296.251.78.946.78.946.192.278.496.432.821.453.055.009.157.036.251.128.164.157.15.339.15.339v.009c0,.173.048.348.154.5.258.37.747.481,1.119.263-.1.149-.161.337-.161.545,0,.472.32.854.718.854h.064c-.086.197-.14.439-.14.702,0,.349.092.664.235.88-.247.213-.413.595-.413,1.032v.353h-3.066c-.227.003-.432.1-.581.254-.149.156-.24.368-.24.603,0,0-.009,30.211,0,30.26,0,2.874,2.324,5.363,5.41,5.363,3.811,0,4.099-.005,5.284.005,1.662,0,3.681.842,4.738,2.82,1.056-1.98,3.071-2.82,4.736-2.82l5.325-.005c2.747,0,5.376-2.251,5.376-5.363v-30.26c0-.474-.373-.858-.835-.858h-3.055v-.353c0-.437-.166-.82-.413-1.032.142-.216.232-.531.232-.88,0-.263-.052-.505-.137-.702h.064v-.005c.375-.026.674-.394.674-.849,0-.225-.073-.429-.192-.579l.007-.01c.005.003.01.009.016.012.379.261.904.159,1.172-.23.109-.156.159-.334.156-.508h.002s-.014-.182.149-.339c.093-.092.195-.119.251-.128ZM98.849,49.649s-.237-.456-.578-.674c.344-.24.692.026.692.026.1.306-.114.648-.114.648ZM98.395,45.601c.306-.1.648.111.648.111,0,0-.458.239-.674.579-.24-.344.026-.69.026-.69ZM98.315,47.565s.066-.211.159-.463c.145.035.299.066.406.069.475.002.859-.225.859-.225,0,0,.022.379-.389.695.358.111.444.607.465.704l-1.632-.508c.055-.081.099-.171.131-.271ZM76.735,47.97s-.093.508.041.889c-.418-.022-.529-.446-.529-.446.111-.303.488-.443.488-.443ZM75.935,50.458s-.33-.475-.533-.647c-.375-.294-.818-.351-.818-.351,0,0,.216-.313.735-.308-.214-.311.024-.752.067-.844l1.606,2.32c-.358.237-.828.163-1.058-.171ZM102.359,48.041s.09.508.351.816c-.403.126-.652-.23-.652-.23-.003-.323.301-.586.301-.586ZM100.72,51.962c.149-.048.277-.017.277-.017,0,0,.118.024.031.114-.019.021-.041.028-.142.1-.1.073-.073.233.102.259.208.029.171.258.005.334-.242.107-.569-.093-.607-.278-.062-.304.183-.462.334-.512ZM97.241,45.324c.112-.361.605-.446.705-.467l-.84,2.696c-.406-.137-.636-.553-.515-.941,0,0,.171-.553.178-.818.003-.477-.223-.861-.223-.861,0,0,.379-.022.695.391ZM97.445,50.314c.019-.123.111-.045.111-.045,0,0,.104.081.156.228.052.147.081.439-.197.578-.168.083-.529-.052-.591-.306-.045-.18.111-.348.265-.202.128.121.273.045.268-.08-.005-.124-.014-.147-.01-.173ZM96.261,48.454c.109-.339.462-.527.792-.424.213.067.361.242.411.448-.067-.067-.152-.121-.249-.152-.341-.109-.709.088-.818.437-.031.099-.038.197-.026.29-.13-.161-.178-.384-.111-.6ZM95.322,45.397s.239.458.579.674c-.344.24-.692-.026-.692-.026-.1-.306.112-.648.112-.648ZM94.608,48.099s-.023-.379.389-.695c-.36-.112-.444-.607-.467-.705l1.634.51c-.055.081-.1.171-.133.271,0,0-.066.211-.157.463-.145-.036-.299-.066-.406-.069-.477-.002-.859.225-.859.225ZM94.931,49.631c.126-.092.259-.099.259-.099,0,0,.119-.014.062.099-.01.024-.029.038-.104.137-.074.1,0,.246.175.218.208-.033.239.195.102.318-.194.175-.569.08-.659-.085-.15-.271.038-.496.164-.588ZM92.493,47.985s-.363-.367-.754-.472c.258-.332.667-.182.667-.182.188.263.086.654.086.654ZM91.785,45.61c.455-.138.752-.47.752-.47,0,0,.137.354-.164.78.377,0,.607.446.655.534h-1.71c.028-.095.045-.195.045-.297,0,0,0-.223.014-.491.149-.01.304-.026.408-.055ZM90.853,44.254c.265-.187.654-.086.654-.086,0,0-.365.365-.47.756-.332-.258-.183-.669-.183-.669ZM91,49.464c.202.099.347-.048.294-.197-.054-.149-.071-.171-.076-.206-.024-.157.116-.097.116-.097,0,0,.157.059.275.218.119.159.263.501-.022.775-.173.166-.659.138-.832-.147-.119-.201.007-.465.246-.346ZM90.706,47.276c-.085-.045-.183-.069-.287-.069-.356,0-.647.297-.647.664,0,.102.024.199.064.285-.171-.114-.285-.313-.285-.539,0-.354.28-.643.626-.643.223,0,.417.121.529.303ZM89.305,49.464c.24-.119.366.145.246.346-.173.285-.661.313-.832.147-.287-.273-.142-.616-.022-.775.119-.159.277-.218.277-.218,0,0,.14-.061.116.097-.005.035-.024.057-.078.206-.052.149.093.296.294.197ZM88.892,44.168s.353-.133.778.166c0-.377.446-.605.534-.654v2.822c-.427-.01-.771-.339-.771-.745,0,0,0-.577-.071-.833-.14-.456-.47-.756-.47-.756ZM87.861,44.975s.363.365.754.47c-.258.332-.667.182-.667.182-.187-.263-.086-.652-.086-.652ZM87.982,47.767s-.135-.354.164-.78c-.377,0-.605-.446-.654-.534h1.708c-.028.095-.043.195-.043.299,0,0,0,.221-.014.489-.15.01-.304.026-.41.055-.455.14-.752.47-.752.47ZM85.621,50.219c-.09.164-.463.259-.659.085-.138-.123-.105-.351.104-.318.175.028.249-.118.175-.218-.074-.099-.095-.112-.107-.137-.054-.112.066-.099.066-.099,0,0,.131.007.258.099.128.092.316.316.164.588ZM85.892,48.295s-.456-.24-.859-.225c.145-.394.581-.373.581-.373.258.195.278.598.278.598ZM84.505,46.241c.392-.27.579-.674.579-.674,0,0,.233.297.074.794.36-.114.712.246.785.313l-1.632.512c0-.099-.016-.199-.047-.297,0,0-.066-.213-.133-.472.14-.054.284-.116.373-.175ZM84.013,48.141c-.095-.016-.195-.01-.294.019-.341.107-.529.477-.42.828.031.097.081.182.145.252-.201-.057-.367-.213-.432-.429-.107-.339.076-.699.405-.801.213-.067.437-.01.597.13ZM83.2,50.567c.152-.145.31.022.266.202-.062.254-.424.389-.591.306-.28-.138-.251-.431-.201-.578.055-.147.159-.228.159-.228,0,0,.09-.078.107.045.007.026-.003.048-.007.173-.005.124.137.201.266.08ZM83.212,45.226c.195-.258.595-.278.595-.278,0,0-.239.456-.221.861-.394-.147-.373-.583-.373-.583ZM81.314,45.731s.299-.235.794-.076c-.112-.36.246-.711.315-.785l.844,2.694c-.411.119-.839-.092-.96-.479,0,0-.175-.552-.32-.776-.268-.392-.673-.578-.673-.578ZM80.572,46.808s.456.24.858.223c-.144.394-.581.373-.581.373-.256-.195-.277-.597-.277-.597ZM82.1,48.762c-.392.27-.579.674-.579.674,0,0-.233-.297-.074-.792-.36.112-.714-.246-.785-.315l1.63-.512c.002.099.017.199.048.297,0,0,.066.213.133.472-.142.054-.284.118-.373.175ZM79.668,51.962c.149.05.396.207.334.512-.036.185-.367.386-.605.278-.168-.076-.204-.304.002-.334.178-.026.206-.187.104-.259-.1-.073-.123-.08-.142-.1-.085-.09.033-.114.033-.114,0,0,.126-.031.275.017ZM79.719,50.532s-.507-.093-.889.043c.022-.42.446-.529.446-.529h.003c.304.111.439.486.439.486ZM77.793,52.28c.057.078.124.14.202.185-.194.003-.386-.088-.505-.261-.189-.273-.126-.641.138-.825.169-.118.384-.13.565-.05-.09.012-.18.045-.256.099-.275.19-.337.571-.145.852ZM77.88,49.956c-.029-.093-.073-.185-.133-.27,0,0-.126-.183-.266-.412.116-.093.235-.195.304-.277.294-.375.351-.818.351-.818,0,0,.311.216.306.735.311-.214.754.024.845.067l-1.407.973ZM104.533,57.88c.15,0,.271.121.271.27v30.059c0,2.5-2.03,4.528-4.54,4.544h-5.376v.002c-1.879.017-3.562.868-4.684,2.199-1.124-1.331-2.801-2.182-4.682-2.199v-.002h-5.384c-2.523,0-4.57-2.033-4.57-4.544v-30.059c0-.149.123-.27.273-.27h28.691ZM81.674,53.964c-.012.056-.019.102-.018.169-.117.083-.255.284-.177.521.057.175.197.274.324.304.012.055.048.117.07.151-.345.062-.467.079-.76.14-.131.027-.158-.13-.072-.174.108-.055.266-.188.217-.405-.053-.238-.227-.266-.388-.318-.096-.031-.098-.219.103-.257.159-.03.447-.078.701-.132ZM81.212,53.255c-.014-.07.032-.138.102-.152.07-.014.138.032.152.102l.04.205c.014.07-.032.138-.102.152-.07.014-.138-.032-.152-.102l-.04-.205ZM98.962,54.655c.077-.237-.06-.439-.177-.521.001-.067-.006-.113-.018-.169.254.054.542.102.701.132.201.038.199.226.103.257-.16.052-.334.08-.387.318-.049.217.109.35.217.405.086.044.059.201-.072.174-.293-.061-.415-.078-.76-.14.023-.033.058-.095.07-.151.127-.031.267-.13.324-.304ZM98.712,53.362l.04-.205c.014-.07.082-.116.152-.102.07.014.116.082.102.152l-.04.205c-.014.07-.082.116-.152.102-.07-.014-.116-.082-.102-.152ZM100.024,56.372c-.512-.159-2.481-.597-3.823-.774-.274-.023-.16.416-.32.393-.387-.046-2.631-.387-5.692-.387-2.223,0-5.464.221-8.768.963-.346.086-.687.164-1.291.328,0,0-.044-.074.03-.129.214-.107.291-.158.312-.29.014-.093-.08-.278.08-.323,1.725-.419,4.951-1.157,9.605-1.157,4.877,0,8.359.863,8.488.881.129.018,1.695.418,1.823.473.182.063.148.165.108.33-.04.165-.103.279-.199.25-.45-.102-1.227-.341-1.337-.341s-.114-.199.04-.171c.279.045.603.154.797.199.205.068.267-.199.148-.245ZM94.727,56.414v.553c0,.069-.055.124-.125.124s-.124-.055-.124-.124v-.553c0-.069.055-.124.124-.124s.125.055.125.124ZM93.389,56.414v.47c0,.114-.092.207-.207.207-.112,0-.206-.093-.206-.207v-.47c0-.114.093-.206.206-.206.116,0,.207.092.207.206ZM92.651,56.35v.534c0,.114-.093.207-.207.207s-.208-.093-.208-.207v-.534c0-.114.093-.206.208-.206s.207.092.207.206ZM91.911,56.309v.576c0,.114-.092.207-.206.207s-.206-.093-.206-.207v-.576c0-.114.092-.207.206-.207s.206.093.206.207ZM91.172,56.264v.621c0,.114-.092.207-.206.207-.116,0-.209-.093-.209-.207v-.621c0-.114.093-.207.209-.207.114,0,.206.093.206.207ZM90.419,56.264v.621c0,.114-.09.207-.204.207s-.206-.093-.206-.207v-.621c0-.114.092-.207.206-.207s.204.093.204.207ZM89.68,56.264v.621c0,.114-.09.207-.204.207s-.208-.093-.208-.207v-.621c0-.114.093-.207.208-.207s.204.093.204.207ZM88.942,56.309v.576c0,.114-.092.207-.207.207-.112,0-.204-.093-.204-.207v-.576c0-.114.092-.207.204-.207.116,0,.207.093.207.207ZM88.204,56.35v.534c0,.114-.092.207-.206.207s-.208-.093-.208-.207v-.534c0-.114.093-.206.208-.206s.206.092.206.206ZM87.465,56.414v.47c0,.114-.093.207-.209.207-.112,0-.204-.093-.204-.207v-.47c0-.114.092-.206.204-.206.116,0,.209.092.209.206ZM86.475,56.374v.593c0,.069-.055.124-.126.124-.067,0-.123-.055-.123-.124v-.593c0-.069.055-.124.123-.124.071,0,.126.055.126.124ZM85.671,56.549v.418c0,.069-.057.124-.125.124-.069,0-.124-.055-.124-.124v-.418c0-.067.055-.124.124-.124.067,0,.125.057.125.124ZM84.509,56.774v.194c0,.069-.055.124-.124.124s-.125-.055-.125-.124v-.194c0-.069.055-.124.125-.124s.124.055.124.124ZM82.079,54.814c.015-.094.104-.159.198-.144s.158.103.144.198c-.015.094-.103.159-.198.144-.094-.015-.159-.103-.144-.198ZM82.57,53.974c-.018-.061-.049-.122-.072-.151.249-.04.563-.086.723-.112.201-.033.243.139.163.201-.133.104-.286.19-.255.431.028.22.225.309.345.323.096.012.135.165.003.184-.296.043-.436.067-.778.117.014-.057.025-.109.017-.168.101-.068.207-.22.196-.404-.014-.258-.209-.388-.341-.422ZM83.706,54.279c-.026-.24.164-.457.423-.485l1.069-.114c.259-.028.49.144.515.384s-.164.457-.422.485l-1.069.114c-.259.028-.49-.144-.516-.384ZM86.5,53.979c.041.189.177.308.306.353.004.031.027.118.055.162-.367.028-.575.044-.806.061-.14.01-.154-.146-.059-.183.119-.045.298-.168.271-.4-.03-.254-.209-.303-.371-.374-.097-.043-.092-.201.122-.219.17-.014.459-.035.743-.057-.009.036-.014.065-.02.131-.131.074-.297.269-.242.526ZM88.584,54.208c.099.022.118.19-.022.195-.314.013-.458.019-.822.036.017-.049.035-.121.036-.174.113-.06.24-.208.249-.401.013-.271-.177-.428-.311-.478-.015-.064-.02-.087-.035-.122.275-.014.565-.03.742-.03.215,0,.24.119.15.175-.15.094-.32.167-.314.423.006.233.202.347.326.375ZM87.712,53.886c-.026.097-.125.155-.222.129-.097-.026-.155-.125-.129-.222.026-.097.125-.155.222-.129.097.026.155.125.129.222ZM87.461,54.304c-.026.097-.125.155-.222.129-.097-.026-.154-.125-.129-.222.026-.097.125-.155.222-.129.097.026.155.125.129.222ZM87.402,53.519c-.026.097-.125.155-.222.129-.097-.026-.155-.125-.129-.222.026-.097.125-.155.222-.129.097.026.155.125.129.222ZM87.153,53.925c-.026.097-.125.155-.222.129-.097-.026-.155-.125-.129-.222.026-.097.125-.155.222-.129s.154.125.129.222ZM88.892,53.583l1.038-.416c.222-.086.382-.096.619.022l1.06.427c.09.039.134.166,0,.241l-1.1.452c-.145.078-.411.092-.615-.017l-1.035-.473c-.096-.064-.058-.196.032-.235ZM91.869,53.41c-.09-.056-.064-.176.15-.175.177,0,.467.016.742.03-.014.034-.02.058-.035.122-.134.05-.324.208-.311.478.009.193.136.341.249.401.001.053.02.125.036.174-.364-.018-.507-.024-.822-.036-.141-.006-.122-.173-.022-.195.124-.028.32-.142.326-.375.007-.256-.163-.33-.313-.423ZM93.699,53.454c-.005-.066-.01-.095-.02-.131.285.022.574.043.743.057.214.018.219.176.122.219-.162.071-.341.12-.371.374-.027.232.152.355.271.4.095.036.082.193-.059.183-.231-.017-.438-.034-.806-.061.029-.044.052-.131.055-.162.129-.046.265-.164.306-.353.055-.257-.111-.452-.242-.526ZM93.506,54.055c-.097.026-.196-.032-.222-.129-.026-.097.032-.196.129-.222.097-.026.196.032.222.129.026.097-.032.196-.129.222ZM93.198,54.434c-.097.026-.196-.032-.222-.129-.026-.097.032-.196.129-.222.097-.026.196.032.222.129.026.097-.032.196-.129.222ZM93.257,53.649c-.097.026-.196-.032-.222-.129-.026-.097.032-.196.129-.222.097-.026.196.032.222.129.026.097-.032.196-.129.222ZM93.076,53.794c.026.097-.032.196-.129.222-.097.026-.196-.032-.222-.129-.026-.097.032-.196.129-.222.097-.026.196.032.222.129ZM94.728,54.066c.026-.24.256-.412.515-.384l1.069.114c.259.028.448.244.423.485-.026.24-.256.412-.516.384l-1.069-.114c-.259-.028-.448-.244-.422-.485ZM98.017,54.869c-.015-.094.049-.183.144-.198.094-.015.183.049.198.144.015.094-.049.183-.144.198s-.183-.049-.198-.144ZM100.557,55.408l-1.022-.603c-.048-.035-.029-.11.029-.12l1.225-.14c.027-.004.055.009.069.033l.27.471c.018.032.007.073-.025.091l-.473.272c-.023.013-.052.012-.073-.004ZM98.543,54.684c-.094.015-.183-.049-.198-.144-.015-.094.049-.183.144-.198.094-.015.183.049.198.144.015.094-.049.183-.144.198ZM98.347,54.275c-.094.015-.183-.049-.198-.144-.015-.094.049-.183.144-.198.094-.015.183.049.198.144.015.094-.049.183-.144.198ZM98.384,53.313c-.014.07-.082.116-.152.102-.07-.014-.116-.082-.102-.152l.04-.205c.014-.07.081-.116.152-.102.07.014.116.082.102.152l-.04.205ZM98.162,54.394c.015.094-.049.183-.144.198-.094.015-.183-.049-.198-.144-.015-.094.049-.183.144-.198.094-.015.183.049.198.144ZM97.871,53.975c-.132.034-.327.165-.341.422-.01.183.095.336.196.404-.008.059.004.11.017.168-.343-.05-.482-.074-.778-.117-.133-.019-.094-.172.003-.184.12-.014.317-.103.345-.323.031-.242-.122-.328-.255-.431-.08-.062-.038-.235.163-.201.16.026.474.072.723.112-.023.03-.055.09-.072.151ZM97.757,53.152c-.046.185-.139.145-.429.095-1.878-.327-4.923-.613-7.105-.603-3.829.017-6.443.528-7.492.689-.353.071-.383-.394-.142-.432,1.23-.193,4.96-.708,7.635-.706,1.757.001,6.485.494,6.969.572.291.042.119.3.227.327.148.044.124-.095.18-.204.056-.11.204-.04.194.051-.007.06-.021.154-.036.212ZM82.473,54.25c.094.015.159.103.144.198-.015.094-.104.159-.198.144-.094-.015-.158-.103-.144-.198.015-.094.103-.159.198-.144ZM82.089,54.274c-.094-.015-.159-.103-.144-.198s.103-.159.198-.144.159.103.144.198c-.015.094-.103.159-.198.144ZM81.986,53.464c-.07.014-.138-.032-.152-.102l-.04-.205c-.014-.07.032-.138.102-.152s.138.032.152.102l.04.205c.014.07-.032.138-.102.152ZM81.947,54.341c.094.015.158.103.144.198-.015.094-.103.159-.198.144-.094-.015-.159-.103-.144-.198.015-.094.104-.159.198-.144ZM80.877,54.684c.058.009.076.084.029.12l-1.022.603c-.021.016-.05.017-.073.004l-.473-.272c-.032-.018-.043-.059-.025-.091l.27-.471c.014-.024.041-.037.069-.033l1.225.14ZM79.4,56.573c.108-.029.22.035.249.144l.024.091c.029.108-.035.22-.144.249-.108.029-.22-.035-.249-.143l-.024-.091c-.029-.108.035-.22.144-.249ZM100.945,53.589c-.974,0-1.662-.646-2.023-1.483-1.084.694-2.378.354-2.989-.633-.69.418-1.619.435-2.329.015-.195-.116-.35-.283-.476-.451-.187.135-.38.248-.596.332-.818.352-1.727.089-2.318-.548-.758.834-2.068.884-2.967.212-.125.167-.279.333-.473.448-.717.424-1.599.409-2.293-.022-.119.216-.252.42-.446.576-.69.556-1.718.593-2.52.094-.303,1.126-2.186,1.962-2.701,1.272-.129-.192-.112-.406-.048-.566.017-.044.067-.065.11-.047.027.011.045.034.051.061.082.321.189.436.45.434.807-.059,1.655-.783,1.802-1.585.027-.19.278-.259.4-.115.192.164.418.326.667.4.763.26,1.67-.252,1.94-1.006.054-.149.248-.201.37-.101.35.277.857.522,1.309.442.502-.075.87-.338,1.133-.792.069-.106.211-.137.317-.068.191.167.439.382.696.475.746.304,1.529.018,2.017-.651.088-.115.269-.115.357,0,.639.936,1.869.873,2.643.156.146-.114.276-.074.371.079.152.246.266.45.448.581.591.364,1.408.292,2.042-.116.11-.071.289-.133.396.138.527,1.023,1.555,1.272,2.575.431.13-.107.338-.063.381.099.245.829.821,1.515,1.708,1.531.264.009.459-.041.517-.323.014-.117.199-.113.215,0,.094.412-.347.759-.735.732ZM101.756,50.447c-.453-.144-.887-.041-.887-.041,0,0,.09-.368.579-.546-.31-.214-.244-.712-.233-.813l1.406.973c-.078.062-.149.135-.207.22,0,0-.126.183-.289.394-.13-.076-.266-.15-.368-.187ZM102.907,52.199c-.116.171-.313.258-.51.246.078-.043.15-.104.204-.182.19-.275.116-.655-.166-.851-.078-.054-.164-.088-.252-.102.18-.071.392-.054.565.067.273.188.344.557.159.821ZM105.229,49.152c.323-.003.586.301.586.301,0,0-.508.092-.816.353-.126-.401.23-.654.23-.654ZM103.205,49.579s.33-.475.418-.726c.144-.455.041-.889.041-.889,0,0,.367.092.545.581.214-.311.714-.244.813-.235l-1.605,2.32c-.348-.251-.443-.718-.213-1.051ZM79.689,54.718l.714.106-.794.179c-.039.011-.073-.029-.056-.066l.089-.192c.008-.018.028-.029.048-.027ZM84.853,54.04c.012.115-.079.22-.203.233l-.514.055c-.125.013-.235-.069-.248-.185-.012-.115.079-.22.203-.233l.514-.055c.124-.013.235.069.248.185ZM91.204,53.679l-1.827-.007c-.051,0-.066-.069-.019-.09l.747-.279c.063-.028.134-.03.198-.007l.918.292c.049.018.037.091-.016.091ZM96.553,54.144c-.012.115-.123.198-.248.185l-.514-.055c-.124-.013-.215-.117-.203-.233.012-.115.123-.198.248-.185l.514.055c.125.013.215.117.203.233ZM100.833,55.004l-.794-.179.714-.106c.02-.002.039.009.048.027l.089.192c.017.037-.017.077-.056.066Z"/>
      </g>
    </g>
    <path d="M82.797,78.88h5.991s.626,0,.626.609v9.032s-.2-.305-.609-.305h-6.007v-9.337ZM89.156,88.873c.462,0,.688.344.688.344v-10.206c0-.688-.707-.688-.707-.688h-6.769s0,10.55,0,10.55h6.788Z"/>
  </g>
</svg>